<mxfile host="www.draw.io" modified="2019-11-08T14:22:23.124Z" agent="Mozilla/5.0 (Windows NT 10.0; Win64; x64) AppleWebKit/537.36 (KHTML, like Gecko) Chrome/78.0.3904.70 Safari/537.36" etag="Kk8bDaYTbnBymnO2PlBR" version="12.2.0" type="github" pages="1">
  <diagram id="xaufmLdjMdMlkapUwwFg" name="Page-1">
    <mxGraphModel dx="10416" dy="4262" grid="0" gridSize="10" guides="1" tooltips="1" connect="1" arrows="1" fold="1" page="0" pageScale="1" pageWidth="850" pageHeight="1100" math="0" shadow="0">
      <root>
        <mxCell id="0"/>
        <mxCell id="1" parent="0"/>
        <mxCell id="oC6a1WEsOzrQhsxOkKVa-65" value="DevRG" style="rounded=1;whiteSpace=wrap;html=1;fillColor=#d80073;strokeColor=#A50040;fontColor=#ffffff;gradientColor=none;" parent="1" vertex="1">
          <mxGeometry x="-6941.5" y="-2584.5" width="138" height="56" as="geometry"/>
        </mxCell>
        <mxCell id="oC6a1WEsOzrQhsxOkKVa-47" value="" style="edgeStyle=orthogonalEdgeStyle;rounded=0;orthogonalLoop=1;jettySize=auto;html=1;startSize=9;endSize=13;" parent="1" edge="1">
          <mxGeometry relative="1" as="geometry">
            <mxPoint x="-5381.833333333334" y="-1890" as="sourcePoint"/>
            <mxPoint x="-5382.5" y="-1810" as="targetPoint"/>
          </mxGeometry>
        </mxCell>
        <mxCell id="oC6a1WEsOzrQhsxOkKVa-26" value="" style="rounded=1;whiteSpace=wrap;html=1;" parent="1" vertex="1">
          <mxGeometry x="-7132" y="-1902" width="674" height="99" as="geometry"/>
        </mxCell>
        <mxCell id="9IajQ7TqccM-ipKMEV8c-57" value="" style="rounded=1;whiteSpace=wrap;html=1;fillColor=#d5e8d4;strokeColor=#82b366;" parent="1" vertex="1">
          <mxGeometry x="-6389" y="-2482" width="172" height="124" as="geometry"/>
        </mxCell>
        <mxCell id="9IajQ7TqccM-ipKMEV8c-56" value="" style="rounded=1;whiteSpace=wrap;html=1;fillColor=#ffe6cc;strokeColor=#d79b00;" parent="1" vertex="1">
          <mxGeometry x="-6707" y="-2483" width="185" height="119" as="geometry"/>
        </mxCell>
        <mxCell id="9IajQ7TqccM-ipKMEV8c-55" value="" style="rounded=1;whiteSpace=wrap;html=1;fillColor=#fff2cc;strokeColor=#d6b656;" parent="1" vertex="1">
          <mxGeometry x="-6968" y="-2497" width="189" height="134" as="geometry"/>
        </mxCell>
        <mxCell id="9IajQ7TqccM-ipKMEV8c-52" value="&lt;font color=&quot;#000000&quot;&gt;&lt;b&gt;Prod-DB&lt;/b&gt;&lt;/font&gt;" style="rounded=0;whiteSpace=wrap;html=1;fillColor=#008a00;strokeColor=#005700;fontColor=#ffffff;gradientColor=#ffffff;" parent="1" vertex="1">
          <mxGeometry x="-6366.5" y="-2450.5" width="120" height="20" as="geometry"/>
        </mxCell>
        <mxCell id="9IajQ7TqccM-ipKMEV8c-47" value="&lt;font color=&quot;#000000&quot;&gt;&lt;b&gt;Prod-KV&lt;/b&gt;&lt;/font&gt;" style="rounded=0;whiteSpace=wrap;html=1;fillColor=#008a00;strokeColor=#005700;fontColor=#ffffff;gradientColor=#ffffff;" parent="1" vertex="1">
          <mxGeometry x="-6366" y="-2429" width="120" height="18" as="geometry"/>
        </mxCell>
        <mxCell id="9IajQ7TqccM-ipKMEV8c-45" value="" style="shape=image;verticalLabelPosition=bottom;labelBackgroundColor=#ffffff;verticalAlign=top;aspect=fixed;imageAspect=0;image=data:image/png,iVBORw0KGgoAAAANSUhEUgAAABYAAAARCAYAAADZsVyDAAACz0lEQVQ4EZ2US0hUYRTHf9+dSR1lcnww+Up7YxA+UzTcFARRFBG1UAyCFlmpiyJaWhCEGyk1d9EuCEHatRAqCQzUfGALQzAnstEZckYHXzPXufHdy70zoxNEBz7OPef8z+/ON/f7jqiurtZIYmFHLv6KFjIKy7lSNMtjdwtogg5fHwMLx1j7OUXeWBc2dT1JN4hk4KC7GlHXRlulRlPZMrnem5B9DhBoS+/4vf8lr6ez6ZkUaMPduPzju+C7wEF3FTln7tNzVqP2qArfLkF0BSrmjOaRw4ALTrxldM7O3UHB8vsuXL4vCXAlPpLbF3Xt9OrQCMxeBCUAKRp4mmH+OqREQQmiTV+m5pCqa0V9O9v29HgUCWB/xW19+zXlpTDXDMoKhFVjBYYg8BEiMo4gCMLXG9SWl9JeGcVXcevv4IzCMq7VuA2BooEtCqFtCKjGCqqwqkJIBZsGSlTXXj3pxnHgVHJwKKuUKrcgP2+fISh6ir4fhwJpcUvG6YpRO/JE18qeygIHkmGa9VdsOEsoSQmYedh7AfL7IMsOuTtW9h442As55y39AeFFMkyzmw9JfWaTkfbeiZWjAopeQHZjLCefRGJo/WJHyINny5VYlZGEOxpAXqNtAc7G3VBgPpqHZJhmgZ2BGcb94F1cMmsxrwoYW4OIAP8b2PoRq2H0TPzaRDJMs8AysbYwRf+oz6zFvATbFdhSILUBUotjNaB/zKdf8fhkAjhvtIueSYXRqdibdfGWAMUGmwra+iqoKxZjZGqGnglFnxtWEuPQWLEcKNrwc1oHBbLBsrCChg1tU0BY0YeRrElN6yBon7t3DSNbQUHBIwsApK17Cfg8DKzXIlaXKM4EZ9gDy5Og2SHnNIv2el59+M7DIdj49AyX7x+GkPkSefcXa+7pY7PKDQ/SOvQT1RnpZMK7+X9j04SbPpR1nA2n8cHkkYr/+qZmp/8D720HTrnjr78AAAAASUVORK5CYII=;" parent="1" vertex="1">
          <mxGeometry x="-6366" y="-2427" width="22" height="17" as="geometry"/>
        </mxCell>
        <mxCell id="9IajQ7TqccM-ipKMEV8c-46" value="&lt;font color=&quot;#000000&quot;&gt;&lt;b&gt;QA-KV&lt;/b&gt;&lt;/font&gt;" style="rounded=0;whiteSpace=wrap;html=1;fillColor=#1ba1e2;strokeColor=#006EAF;fontColor=#ffffff;gradientColor=#ffffff;" parent="1" vertex="1">
          <mxGeometry x="-6683" y="-2433.5" width="132" height="19" as="geometry"/>
        </mxCell>
        <mxCell id="9IajQ7TqccM-ipKMEV8c-26" value="&lt;font color=&quot;#000000&quot;&gt;Dev-DB&lt;/font&gt;" style="rounded=0;whiteSpace=wrap;html=1;fillColor=#d80073;strokeColor=#A50040;fontColor=#ffffff;gradientColor=#ffffff;" parent="1" vertex="1">
          <mxGeometry x="-6945" y="-2460" width="120" height="18" as="geometry"/>
        </mxCell>
        <mxCell id="9IajQ7TqccM-ipKMEV8c-18" value="&lt;font color=&quot;#000000&quot;&gt;Dev-SA&lt;/font&gt;" style="rounded=0;whiteSpace=wrap;html=1;fillColor=#d80073;strokeColor=#A50040;fontColor=#ffffff;gradientColor=#ffffff;" parent="1" vertex="1">
          <mxGeometry x="-6945" y="-2478" width="120" height="18" as="geometry"/>
        </mxCell>
        <mxCell id="9IajQ7TqccM-ipKMEV8c-16" value="&lt;font color=&quot;#000000&quot;&gt;&lt;b&gt;QA-SA&lt;/b&gt;&lt;/font&gt;" style="rounded=0;whiteSpace=wrap;html=1;fillColor=#1ba1e2;strokeColor=#006EAF;fontColor=#ffffff;gradientColor=#ffffff;" parent="1" vertex="1">
          <mxGeometry x="-6683" y="-2469" width="132" height="18" as="geometry"/>
        </mxCell>
        <mxCell id="9IajQ7TqccM-ipKMEV8c-2" value="DevRG" style="rounded=1;whiteSpace=wrap;html=1;fillColor=#d80073;strokeColor=#A50040;fontColor=#ffffff;gradientColor=none;" parent="1" vertex="1">
          <mxGeometry x="-7012" y="-1942" width="417" height="40" as="geometry"/>
        </mxCell>
        <mxCell id="9IajQ7TqccM-ipKMEV8c-3" value="QARG" style="rounded=1;whiteSpace=wrap;html=1;fillColor=#1ba1e2;strokeColor=#006EAF;fontColor=#ffffff;gradientColor=none;" parent="1" vertex="1">
          <mxGeometry x="-6684" y="-2572.5" width="120" height="60" as="geometry"/>
        </mxCell>
        <mxCell id="9IajQ7TqccM-ipKMEV8c-4" value="ProdRG" style="rounded=1;whiteSpace=wrap;html=1;fillColor=#008a00;strokeColor=#005700;fontColor=#ffffff;gradientColor=none;" parent="1" vertex="1">
          <mxGeometry x="-6366" y="-2569" width="120" height="60" as="geometry"/>
        </mxCell>
        <mxCell id="9IajQ7TqccM-ipKMEV8c-7" value="" style="edgeStyle=orthogonalEdgeStyle;rounded=0;orthogonalLoop=1;jettySize=auto;html=1;" parent="1" source="9IajQ7TqccM-ipKMEV8c-5" target="9IajQ7TqccM-ipKMEV8c-3" edge="1">
          <mxGeometry relative="1" as="geometry">
            <mxPoint x="-6527.5" y="-2572" as="targetPoint"/>
          </mxGeometry>
        </mxCell>
        <mxCell id="9IajQ7TqccM-ipKMEV8c-9" value="" style="edgeStyle=orthogonalEdgeStyle;rounded=0;orthogonalLoop=1;jettySize=auto;html=1;entryX=0.5;entryY=0;entryDx=0;entryDy=0;" parent="1" source="9IajQ7TqccM-ipKMEV8c-5" target="9IajQ7TqccM-ipKMEV8c-4" edge="1">
          <mxGeometry relative="1" as="geometry">
            <mxPoint x="-6404" y="-2690" as="targetPoint"/>
            <Array as="points">
              <mxPoint x="-6306" y="-2708"/>
            </Array>
          </mxGeometry>
        </mxCell>
        <mxCell id="9IajQ7TqccM-ipKMEV8c-11" value="" style="edgeStyle=orthogonalEdgeStyle;rounded=0;orthogonalLoop=1;jettySize=auto;html=1;" parent="1" source="9IajQ7TqccM-ipKMEV8c-5" edge="1">
          <mxGeometry relative="1" as="geometry">
            <mxPoint x="-6874" y="-2581" as="targetPoint"/>
            <Array as="points">
              <mxPoint x="-6612" y="-2711"/>
              <mxPoint x="-6612" y="-2711"/>
            </Array>
          </mxGeometry>
        </mxCell>
        <mxCell id="9IajQ7TqccM-ipKMEV8c-5" value="" style="shape=image;verticalLabelPosition=bottom;labelBackgroundColor=#ffffff;verticalAlign=top;aspect=fixed;imageAspect=0;image=data:image/png,iVBORw0KGgoAAAANSUhEUgAAAD0AAAA1CAYAAADyMeOEAAAFIklEQVRoBe2aQWhdVRCGJ5JFwNQGWqhtAioRo+1CsEK6EbNpN5qVXbTZ2cXrUiHPpWlal76CXTYL3dlNu4qrdpPipgEjdNFqigWF1BpoIbFZZFGIfBdO3tzJuy9zzz3vBcwbCPfce8+b+f8zc+bMOTd9W1tbW7LP5JV9xjej2yO9X7ze83TP0//jEejvJLeNh8uyvvirrN37RTZXngr3WgaPj8nAyFEZOvWhHBz/QLjvhvSlXqc3V/6W1Vs/yT8354V2GRkYOSavn52UI599KrQ7JclIv/z3hfx1bU5Wvv8xCdaRC1Pyxhc16X/tQBJ9WkkS0s9uL8jyV7MC8d1k8L13si4bvz3arWtGeOzbWTl8ZmLXvmU6VCb9+Jurhd6F4KEzExnoovnKPGfQnt9ekKKBwOujX0+X4dW2bzRpvAph5q6Vw6cnZHRmuvS8JAcs12dlbXHJqszmOl5PIdGkCWdLGM+OztRl6NTJStjW7i3J4yuNHZ4nyaUgHkX6jysNefLDjRwxvDvWmE2WeIgkvP7szkLOzvDn5+XtmXruWdmb0mUo888SZok5MXc1GWFIkLXRiW4t2AZDFSnlaUZ/8aPJXJbGw4BD7p+rifQ14bx/Yy67YRqs3mrO/fC82bN960FtOudxBmT85/noQS5Vkf353fUcYeYwIR2kVQLiHQmKeRor2Ng8V9ue4ww+WGLD3B3eALdhTdLqRPFgBwcb2NIClrIVX/i9m7TN1IR11SwdQHiu2Boaz68KFpNHD33cpKmntbAOd1v0VMK2xeTF4yJN1aRDibncyQ1BEXhsYjsImOzOLbxrd3WRtkmI0rKqkIjuvnVy+497j1jbFptHh4v0usm8qTcAHqChj7VtsYV+7a4u0ptPnuZ0FG0ecp06dGNtW2wesy7SMfPGYzxFnxhsLtIanE4k+nk321UxlCYtfarO7CZTbasihtKky4QT5SKik03/gUENP6pdBkMrAy7S3nCyFdPSJ1Py4OJ07lCAk8+U4sWmbbpI20KkaKSHL0xp3VlBY7eBtk/uB44ba9tic6jwlaEHzUmIJRIMsYZystEqhHnGu6r1urVtsQUs7a6uraUF+vzOXXnzy4st9XKkA/mNh48yT7ND4s/qaPljx0Nsa4nR6yJNQTAwfFRCIUCIUfcWhVaTZH5XpMHGtG2tDSZbrHj0uuY0io6cnczp42AwpawvLmUfC/hgwF+rbaO1aTF58bg8jTLCFjBBKPT5iwmvoENfg77wjJUAm0Hse55zHh4jbk8TypxEauHcO6zF+nnqNjawpQUsTKMYcXsa5SSv1Zvz8vLFRmaLuU3InbieB+QBwiDadV3/7tXjzX0zNvRSxUpQlEi1jqJ2qdNQlLBkUHBoSXUIr3WGNoTt/GaQ7RYz9Pdc3eEdlGHMhjmgGIiUoY6u++drOwhjuwpheJT2dCD/e/3SjjMqlg8+tFVNbiQt5rAOaexy8P9u43KAEH2NJo0n+LzT6nAO0lRfRet4EVrWYcIZ0lZSEUZvNOkAqtV3rfAOzxOKh05/XFhE4E2qLHKF9WzQQ0jHHuwHHfpamTTKALxcv7Sd1bUB2w4VVBFB3T+r1xuXK89hrZN2EtIoItw50bRfQaxB7z3eZVmKXYvb2UlGOhhhXpLNWc9DrR7e7Xallqa0ZAksmw92063fJyetlRPCJCVOTrLNgvk/Ew4AIMf2kOQXQl/r6ES7o6Q7ATiFztLFSQqje62jR3qvPdAt+z1Pd2uk99rOf1iJR1SgNUmuAAAAAElFTkSuQmCC;" parent="1" vertex="1">
          <mxGeometry x="-6667.5" y="-2754" width="87" height="76" as="geometry"/>
        </mxCell>
        <mxCell id="9IajQ7TqccM-ipKMEV8c-12" value="" style="shape=image;verticalLabelPosition=bottom;labelBackgroundColor=#ffffff;verticalAlign=top;aspect=fixed;imageAspect=0;image=data:image/png,iVBORw0KGgoAAAANSUhEUgAAABcAAAAXCAYAAADgKtSgAAAC+ElEQVRIDdVVX0hTYRT/bffeNudWWbZN12Tin2nRQqZEiM0VsiUFGfawIfTSv/foXegxil6THgMResgKCXwwxIFmUM1IbYZCtbnbms3Nua3dGd+Ne7t310v24EMHPr7z/c45v3P4uPf3adxu9xZ2ybS7xMvTysi9Xi8CgcA/9QsGg+ju7t62hiaoy+VCZ2cndDodn9TY2IilpaVtC6QgyTObzfxqbW1FKBRCOBwWUyi/3z/o8XjAMAxyuRwmJycxPz8vJhDHZKmFqy+AdDyGwkZajCWTSWSzWdTU1ECv16Ourg6lUgnRaJTPoSmKQiaTQTwex9jYmFhIHJ3RhGMXAugYuMbjZJ99NIS5J8PIZ343IZOS1dvbC4vFAo7jRA7+WsgpFouJIHFaes6jfeAqP7U0QBq09JzjmyyOPxdDpJ6QS00kF8Dakx509AVR63ILkGIn13T65iA/QOjBXSQ+fVTkEED2tRCAO3sJX7TMtsnlYJrbwvqZ/nJYPCsmL3FFsE4XnkUiaNYCzoYmMVlwopEFTH1bR8JUDVCr0AiBsl1BLsQ1jiZEACy/e4N2mw3V1WakEyxmFxaxsM8GEOK/mCq5UFc80obXXBGVyyuIpPLIEeIdmuLOy+vsWuCUjgb2V+FAcwMqTJXlKapn1cn3aoCjFHBQcqE0Q+OQzYJcdhM/2O8o5AqqxCSgIGdoGscpgEysZnpDBayOw9hIpbH2mYGarCoo9syGoM/++cXVGhCc5gqgZ8ZVUxTkK0+H8bjfi9CLUWQlv7KUoZjPIzk6AvayDz9nXkpDMl8kt1qtskD4/m2MBP2Ym3srw1OvQojfuIiNh3dkOBGvcqPz+TyMRiOcTifsdjump6dF2cyl1jB16wo+tJ1AVfA6YkP3UIy8l3FI5ZqIllS4KIZhBonUEtExGAyor69HIpEAkVPBNle/Ym18FKUkK0D8TvTc5/OBpmleesv1nP9aBNns6uqCw+HY0UNB2MmDwrIsr6gTExOyxuSg+W8f6F+BfQgGSsp9FQAAAABJRU5ErkJggg==;" parent="1" vertex="1">
          <mxGeometry x="-6318" y="-2569" width="23" height="23" as="geometry"/>
        </mxCell>
        <mxCell id="9IajQ7TqccM-ipKMEV8c-13" value="" style="shape=image;verticalLabelPosition=bottom;labelBackgroundColor=#ffffff;verticalAlign=top;aspect=fixed;imageAspect=0;image=data:image/png,iVBORw0KGgoAAAANSUhEUgAAABcAAAAXCAYAAADgKtSgAAAC+ElEQVRIDdVVX0hTYRT/bffeNudWWbZN12Tin2nRQqZEiM0VsiUFGfawIfTSv/foXegxil6THgMResgKCXwwxIFmUM1IbYZCtbnbms3Nua3dGd+Ne7t310v24EMHPr7z/c45v3P4uPf3adxu9xZ2ybS7xMvTysi9Xi8CgcA/9QsGg+ju7t62hiaoy+VCZ2cndDodn9TY2IilpaVtC6QgyTObzfxqbW1FKBRCOBwWUyi/3z/o8XjAMAxyuRwmJycxPz8vJhDHZKmFqy+AdDyGwkZajCWTSWSzWdTU1ECv16Ourg6lUgnRaJTPoSmKQiaTQTwex9jYmFhIHJ3RhGMXAugYuMbjZJ99NIS5J8PIZ343IZOS1dvbC4vFAo7jRA7+WsgpFouJIHFaes6jfeAqP7U0QBq09JzjmyyOPxdDpJ6QS00kF8Dakx509AVR63ILkGIn13T65iA/QOjBXSQ+fVTkEED2tRCAO3sJX7TMtsnlYJrbwvqZ/nJYPCsmL3FFsE4XnkUiaNYCzoYmMVlwopEFTH1bR8JUDVCr0AiBsl1BLsQ1jiZEACy/e4N2mw3V1WakEyxmFxaxsM8GEOK/mCq5UFc80obXXBGVyyuIpPLIEeIdmuLOy+vsWuCUjgb2V+FAcwMqTJXlKapn1cn3aoCjFHBQcqE0Q+OQzYJcdhM/2O8o5AqqxCSgIGdoGscpgEysZnpDBayOw9hIpbH2mYGarCoo9syGoM/++cXVGhCc5gqgZ8ZVUxTkK0+H8bjfi9CLUWQlv7KUoZjPIzk6AvayDz9nXkpDMl8kt1qtskD4/m2MBP2Ym3srw1OvQojfuIiNh3dkOBGvcqPz+TyMRiOcTifsdjump6dF2cyl1jB16wo+tJ1AVfA6YkP3UIy8l3FI5ZqIllS4KIZhBonUEtExGAyor69HIpEAkVPBNle/Ym18FKUkK0D8TvTc5/OBpmleesv1nP9aBNns6uqCw+HY0UNB2MmDwrIsr6gTExOyxuSg+W8f6F+BfQgGSsp9FQAAAABJRU5ErkJggg==;" parent="1" vertex="1">
          <mxGeometry x="-6635.5" y="-2572.5" width="23" height="23" as="geometry"/>
        </mxCell>
        <mxCell id="9IajQ7TqccM-ipKMEV8c-14" value="" style="shape=image;verticalLabelPosition=bottom;labelBackgroundColor=#ffffff;verticalAlign=top;aspect=fixed;imageAspect=0;image=data:image/png,iVBORw0KGgoAAAANSUhEUgAAABcAAAAXCAYAAADgKtSgAAAC+ElEQVRIDdVVX0hTYRT/bffeNudWWbZN12Tin2nRQqZEiM0VsiUFGfawIfTSv/foXegxil6THgMResgKCXwwxIFmUM1IbYZCtbnbms3Nua3dGd+Ne7t310v24EMHPr7z/c45v3P4uPf3adxu9xZ2ybS7xMvTysi9Xi8CgcA/9QsGg+ju7t62hiaoy+VCZ2cndDodn9TY2IilpaVtC6QgyTObzfxqbW1FKBRCOBwWUyi/3z/o8XjAMAxyuRwmJycxPz8vJhDHZKmFqy+AdDyGwkZajCWTSWSzWdTU1ECv16Ourg6lUgnRaJTPoSmKQiaTQTwex9jYmFhIHJ3RhGMXAugYuMbjZJ99NIS5J8PIZ343IZOS1dvbC4vFAo7jRA7+WsgpFouJIHFaes6jfeAqP7U0QBq09JzjmyyOPxdDpJ6QS00kF8Dakx509AVR63ILkGIn13T65iA/QOjBXSQ+fVTkEED2tRCAO3sJX7TMtsnlYJrbwvqZ/nJYPCsmL3FFsE4XnkUiaNYCzoYmMVlwopEFTH1bR8JUDVCr0AiBsl1BLsQ1jiZEACy/e4N2mw3V1WakEyxmFxaxsM8GEOK/mCq5UFc80obXXBGVyyuIpPLIEeIdmuLOy+vsWuCUjgb2V+FAcwMqTJXlKapn1cn3aoCjFHBQcqE0Q+OQzYJcdhM/2O8o5AqqxCSgIGdoGscpgEysZnpDBayOw9hIpbH2mYGarCoo9syGoM/++cXVGhCc5gqgZ8ZVUxTkK0+H8bjfi9CLUWQlv7KUoZjPIzk6AvayDz9nXkpDMl8kt1qtskD4/m2MBP2Ym3srw1OvQojfuIiNh3dkOBGvcqPz+TyMRiOcTifsdjump6dF2cyl1jB16wo+tJ1AVfA6YkP3UIy8l3FI5ZqIllS4KIZhBonUEtExGAyor69HIpEAkVPBNle/Ym18FKUkK0D8TvTc5/OBpmleesv1nP9aBNns6uqCw+HY0UNB2MmDwrIsr6gTExOyxuSg+W8f6F+BfQgGSsp9FQAAAABJRU5ErkJggg==;" parent="1" vertex="1">
          <mxGeometry x="-6895.5" y="-2579.5" width="23" height="23" as="geometry"/>
        </mxCell>
        <mxCell id="9IajQ7TqccM-ipKMEV8c-15" value="" style="shape=image;verticalLabelPosition=bottom;labelBackgroundColor=#ffffff;verticalAlign=top;aspect=fixed;imageAspect=0;image=data:image/png,iVBORw0KGgoAAAANSUhEUgAAABYAAAAWCAYAAADEtGw7AAABOklEQVRIDdWVMUvEMBzFX3oZVE5BcFFBCyKODh0OFw8clPsGfgk3V7+O3EdwVSjU3cWbWoTDQQQXPUiayIvUXumpNLSDb2lS+v/ln5dHKqIosuhAQQdMh5RYXkJwPGiNb+7ugY8ZZDAcIDgbtgaGAMzNLTqzojOwXNUG9vmlNSuENngDIEcb2zg/Om0NPM5eMSbYGAOlFIQQCMPQe4E0TWGtBXmUA2utHdibCoCMhWBCsyzzZnPXVK1jvryaPjKGXrrsb7q6CrjweKJnXlAW/WgFD2/U65dgtj5/Pf0xr4HzPP9OhX2a4l2rL+C8J1zgl/lKT0Lt7LmmyKMqqbiePJQdNxydbO26iorH3Aa1v7beEFd+vjAVxeFdHBy6PDOP9LzJs+ZxHMcofCnX9x8lSeKKxb/7NXV2H38CdCjK8HFznxMAAAAASUVORK5CYII=;" parent="1" vertex="1">
          <mxGeometry x="-6944.5" y="-2475.5" width="17" height="17" as="geometry"/>
        </mxCell>
        <mxCell id="9IajQ7TqccM-ipKMEV8c-22" value="&lt;font color=&quot;#000000&quot;&gt;&lt;b&gt;Prod-SA&lt;/b&gt;&lt;/font&gt;" style="rounded=0;whiteSpace=wrap;html=1;fillColor=#008a00;strokeColor=#005700;fontColor=#ffffff;gradientColor=#ffffff;" parent="1" vertex="1">
          <mxGeometry x="-6366" y="-2463" width="120" height="15" as="geometry"/>
        </mxCell>
        <mxCell id="9IajQ7TqccM-ipKMEV8c-23" value="" style="shape=image;verticalLabelPosition=bottom;labelBackgroundColor=#ffffff;verticalAlign=top;aspect=fixed;imageAspect=0;image=data:image/png,iVBORw0KGgoAAAANSUhEUgAAABYAAAAWCAYAAADEtGw7AAABOklEQVRIDdWVMUvEMBzFX3oZVE5BcFFBCyKODh0OFw8clPsGfgk3V7+O3EdwVSjU3cWbWoTDQQQXPUiayIvUXumpNLSDb2lS+v/ln5dHKqIosuhAQQdMh5RYXkJwPGiNb+7ugY8ZZDAcIDgbtgaGAMzNLTqzojOwXNUG9vmlNSuENngDIEcb2zg/Om0NPM5eMSbYGAOlFIQQCMPQe4E0TWGtBXmUA2utHdibCoCMhWBCsyzzZnPXVK1jvryaPjKGXrrsb7q6CrjweKJnXlAW/WgFD2/U65dgtj5/Pf0xr4HzPP9OhX2a4l2rL+C8J1zgl/lKT0Lt7LmmyKMqqbiePJQdNxydbO26iorH3Aa1v7beEFd+vjAVxeFdHBy6PDOP9LzJs+ZxHMcofCnX9x8lSeKKxb/7NXV2H38CdCjK8HFznxMAAAAASUVORK5CYII=;" parent="1" vertex="1">
          <mxGeometry x="-6366" y="-2463" width="16" height="16" as="geometry"/>
        </mxCell>
        <mxCell id="9IajQ7TqccM-ipKMEV8c-27" value="&lt;font color=&quot;#000000&quot;&gt;&lt;b&gt;QA-DB&lt;/b&gt;&lt;/font&gt;" style="rounded=0;whiteSpace=wrap;html=1;fillColor=#1ba1e2;strokeColor=#006EAF;fontColor=#ffffff;gradientColor=#ffffff;" parent="1" vertex="1">
          <mxGeometry x="-6684" y="-2452" width="133" height="19" as="geometry"/>
        </mxCell>
        <mxCell id="9IajQ7TqccM-ipKMEV8c-28" value="&lt;font color=&quot;#000000&quot;&gt;&lt;b&gt;Prod-AS&lt;/b&gt;&lt;/font&gt;" style="rounded=0;whiteSpace=wrap;html=1;fillColor=#008a00;strokeColor=#005700;fontColor=#ffffff;gradientColor=#ffffff;" parent="1" vertex="1">
          <mxGeometry x="-6366" y="-2411" width="120" height="20" as="geometry"/>
        </mxCell>
        <mxCell id="9IajQ7TqccM-ipKMEV8c-30" value="" style="shape=image;verticalLabelPosition=bottom;labelBackgroundColor=#ffffff;verticalAlign=top;aspect=fixed;imageAspect=0;image=data:image/png,iVBORw0KGgoAAAANSUhEUgAAABkAAAAaCAYAAABCfffNAAACpElEQVRIDeWUu2tUQRTGv3vnvndDHktIFAXrtLGzMI1CLIXtBMFGBUHBVv8DC1GIrYVgkV4JWGgr1imsBCFGsutmjbmPmb0zcm6c+8rddYOkcmA5uzvnfL9zzpwZY3V1VeGUl3nK+pn8fwp5FHBsnUvwOOAn6rI1jfdDX+DKgoTtGAAMrC0Bl3iCdwMTT0L7rxLGpOl64AlcnZdwPRJvXjxR2BqYeBqNhzVC7rkC6/MSnj9evI5MIoW3+yaex8dhFcgtV+D6nIQfTC9eh8Whwushw6u4OIl8hG+bHN12+k8AAnqBgRutEe6wYjhy3I9DhZ89AWfWhL/MYLdzfj3Zsb/FL4loNwUfSvR9B/CPXHOIjiQH+rjzBLNgTdG6UagQ7Y6QDKSWqdgc8oUxhIaBQB09ZRSQDDjcDkOwzMAaJiyNSTxF3E8roqRDenpVDr6lFG6GCS4nQu/n1ltkWRuZY0ByhZDE96ri5PzBtbHpO9gzi3bnlZDDoWFgo+VhYcHARZ4iKWVIgvTxlxii78fFvQ7DR8fCRuLkiekvlUruewLrHX2zgZQy3qnCdKC2zpyJ1nkLVCEtwRXe9E08K92XvJK7KsF6W8F2ijIpcOaCBa9jIvyWQhwUB2vPmAjOMJAtL3p6rrVTiEjiheFmWzmkFwPDzyILqgeT0OyMmUHivsygdfGsigOZJ9ObNMKU7fBAZjBqg1V6Wki4SXwUKRx+HVUqLVeXV1IfYYLtb3PQgQZnGcw/PS8HZ1O2c8IRXpQS3Yg3j3AJNk6cEmga4cp06Swnwahd5QHQMU3ieq8RojcnwbTPJ8fCy8CtXD69p+1EiHZaESm6UYKVUXEJty2GTd/Ftl08H9q/bqeC6CCCrXGB9449lbiOy6dL/zHJUtbTZF7X+A1zrSg8ctmWjAAAAABJRU5ErkJggg==;" parent="1" vertex="1">
          <mxGeometry x="-6366" y="-2446" width="18" height="19" as="geometry"/>
        </mxCell>
        <mxCell id="9IajQ7TqccM-ipKMEV8c-31" value="" style="shape=image;verticalLabelPosition=bottom;labelBackgroundColor=#ffffff;verticalAlign=top;aspect=fixed;imageAspect=0;image=data:image/png,iVBORw0KGgoAAAANSUhEUgAAABkAAAAaCAYAAABCfffNAAACpElEQVRIDeWUu2tUQRTGv3vnvndDHktIFAXrtLGzMI1CLIXtBMFGBUHBVv8DC1GIrYVgkV4JWGgr1imsBCFGsutmjbmPmb0zcm6c+8rddYOkcmA5uzvnfL9zzpwZY3V1VeGUl3nK+pn8fwp5FHBsnUvwOOAn6rI1jfdDX+DKgoTtGAAMrC0Bl3iCdwMTT0L7rxLGpOl64AlcnZdwPRJvXjxR2BqYeBqNhzVC7rkC6/MSnj9evI5MIoW3+yaex8dhFcgtV+D6nIQfTC9eh8Whwushw6u4OIl8hG+bHN12+k8AAnqBgRutEe6wYjhy3I9DhZ89AWfWhL/MYLdzfj3Zsb/FL4loNwUfSvR9B/CPXHOIjiQH+rjzBLNgTdG6UagQ7Y6QDKSWqdgc8oUxhIaBQB09ZRSQDDjcDkOwzMAaJiyNSTxF3E8roqRDenpVDr6lFG6GCS4nQu/n1ltkWRuZY0ByhZDE96ri5PzBtbHpO9gzi3bnlZDDoWFgo+VhYcHARZ4iKWVIgvTxlxii78fFvQ7DR8fCRuLkiekvlUruewLrHX2zgZQy3qnCdKC2zpyJ1nkLVCEtwRXe9E08K92XvJK7KsF6W8F2ijIpcOaCBa9jIvyWQhwUB2vPmAjOMJAtL3p6rrVTiEjiheFmWzmkFwPDzyILqgeT0OyMmUHivsygdfGsigOZJ9ObNMKU7fBAZjBqg1V6Wki4SXwUKRx+HVUqLVeXV1IfYYLtb3PQgQZnGcw/PS8HZ1O2c8IRXpQS3Yg3j3AJNk6cEmga4cp06Swnwahd5QHQMU3ieq8RojcnwbTPJ8fCy8CtXD69p+1EiHZaESm6UYKVUXEJty2GTd/Ftl08H9q/bqeC6CCCrXGB9449lbiOy6dL/zHJUtbTZF7X+A1zrSg8ctmWjAAAAABJRU5ErkJggg==;" parent="1" vertex="1">
          <mxGeometry x="-6686" y="-2452" width="17" height="18" as="geometry"/>
        </mxCell>
        <mxCell id="9IajQ7TqccM-ipKMEV8c-33" value="" style="shape=image;verticalLabelPosition=bottom;labelBackgroundColor=#ffffff;verticalAlign=top;aspect=fixed;imageAspect=0;image=data:image/png,iVBORw0KGgoAAAANSUhEUgAAABkAAAAaCAYAAABCfffNAAACpElEQVRIDeWUu2tUQRTGv3vnvndDHktIFAXrtLGzMI1CLIXtBMFGBUHBVv8DC1GIrYVgkV4JWGgr1imsBCFGsutmjbmPmb0zcm6c+8rddYOkcmA5uzvnfL9zzpwZY3V1VeGUl3nK+pn8fwp5FHBsnUvwOOAn6rI1jfdDX+DKgoTtGAAMrC0Bl3iCdwMTT0L7rxLGpOl64AlcnZdwPRJvXjxR2BqYeBqNhzVC7rkC6/MSnj9evI5MIoW3+yaex8dhFcgtV+D6nIQfTC9eh8Whwushw6u4OIl8hG+bHN12+k8AAnqBgRutEe6wYjhy3I9DhZ89AWfWhL/MYLdzfj3Zsb/FL4loNwUfSvR9B/CPXHOIjiQH+rjzBLNgTdG6UagQ7Y6QDKSWqdgc8oUxhIaBQB09ZRSQDDjcDkOwzMAaJiyNSTxF3E8roqRDenpVDr6lFG6GCS4nQu/n1ltkWRuZY0ByhZDE96ri5PzBtbHpO9gzi3bnlZDDoWFgo+VhYcHARZ4iKWVIgvTxlxii78fFvQ7DR8fCRuLkiekvlUruewLrHX2zgZQy3qnCdKC2zpyJ1nkLVCEtwRXe9E08K92XvJK7KsF6W8F2ijIpcOaCBa9jIvyWQhwUB2vPmAjOMJAtL3p6rrVTiEjiheFmWzmkFwPDzyILqgeT0OyMmUHivsygdfGsigOZJ9ObNMKU7fBAZjBqg1V6Wki4SXwUKRx+HVUqLVeXV1IfYYLtb3PQgQZnGcw/PS8HZ1O2c8IRXpQS3Yg3j3AJNk6cEmga4cp06Swnwahd5QHQMU3ieq8RojcnwbTPJ8fCy8CtXD69p+1EiHZaESm6UYKVUXEJty2GTd/Ftl08H9q/bqeC6CCCrXGB9449lbiOy6dL/zHJUtbTZF7X+A1zrSg8ctmWjAAAAABJRU5ErkJggg==;" parent="1" vertex="1">
          <mxGeometry x="-6944.5" y="-2460" width="18" height="19" as="geometry"/>
        </mxCell>
        <mxCell id="9IajQ7TqccM-ipKMEV8c-36" value="" style="shape=image;verticalLabelPosition=bottom;labelBackgroundColor=#ffffff;verticalAlign=top;aspect=fixed;imageAspect=0;image=data:image/png,iVBORw0KGgoAAAANSUhEUgAAABYAAAAWCAYAAADEtGw7AAABOklEQVRIDdWVMUvEMBzFX3oZVE5BcFFBCyKODh0OFw8clPsGfgk3V7+O3EdwVSjU3cWbWoTDQQQXPUiayIvUXumpNLSDb2lS+v/ln5dHKqIosuhAQQdMh5RYXkJwPGiNb+7ugY8ZZDAcIDgbtgaGAMzNLTqzojOwXNUG9vmlNSuENngDIEcb2zg/Om0NPM5eMSbYGAOlFIQQCMPQe4E0TWGtBXmUA2utHdibCoCMhWBCsyzzZnPXVK1jvryaPjKGXrrsb7q6CrjweKJnXlAW/WgFD2/U65dgtj5/Pf0xr4HzPP9OhX2a4l2rL+C8J1zgl/lKT0Lt7LmmyKMqqbiePJQdNxydbO26iorH3Aa1v7beEFd+vjAVxeFdHBy6PDOP9LzJs+ZxHMcofCnX9x8lSeKKxb/7NXV2H38CdCjK8HFznxMAAAAASUVORK5CYII=;" parent="1" vertex="1">
          <mxGeometry x="-6684" y="-2468" width="16" height="16" as="geometry"/>
        </mxCell>
        <mxCell id="9IajQ7TqccM-ipKMEV8c-40" value="&lt;font color=&quot;#000000&quot;&gt;DEVKV&lt;/font&gt;" style="rounded=0;whiteSpace=wrap;html=1;fillColor=#d80073;strokeColor=#A50040;fontColor=#ffffff;gradientColor=#ffffff;" parent="1" vertex="1">
          <mxGeometry x="-6944.5" y="-2439" width="120" height="20" as="geometry"/>
        </mxCell>
        <mxCell id="9IajQ7TqccM-ipKMEV8c-42" value="" style="shape=image;verticalLabelPosition=bottom;labelBackgroundColor=#ffffff;verticalAlign=top;aspect=fixed;imageAspect=0;image=data:image/png,iVBORw0KGgoAAAANSUhEUgAAABYAAAARCAYAAADZsVyDAAACz0lEQVQ4EZ2US0hUYRTHf9+dSR1lcnww+Up7YxA+UzTcFARRFBG1UAyCFlmpiyJaWhCEGyk1d9EuCEHatRAqCQzUfGALQzAnstEZckYHXzPXufHdy70zoxNEBz7OPef8z+/ON/f7jqiurtZIYmFHLv6KFjIKy7lSNMtjdwtogg5fHwMLx1j7OUXeWBc2dT1JN4hk4KC7GlHXRlulRlPZMrnem5B9DhBoS+/4vf8lr6ez6ZkUaMPduPzju+C7wEF3FTln7tNzVqP2qArfLkF0BSrmjOaRw4ALTrxldM7O3UHB8vsuXL4vCXAlPpLbF3Xt9OrQCMxeBCUAKRp4mmH+OqREQQmiTV+m5pCqa0V9O9v29HgUCWB/xW19+zXlpTDXDMoKhFVjBYYg8BEiMo4gCMLXG9SWl9JeGcVXcevv4IzCMq7VuA2BooEtCqFtCKjGCqqwqkJIBZsGSlTXXj3pxnHgVHJwKKuUKrcgP2+fISh6ir4fhwJpcUvG6YpRO/JE18qeygIHkmGa9VdsOEsoSQmYedh7AfL7IMsOuTtW9h442As55y39AeFFMkyzmw9JfWaTkfbeiZWjAopeQHZjLCefRGJo/WJHyINny5VYlZGEOxpAXqNtAc7G3VBgPpqHZJhmgZ2BGcb94F1cMmsxrwoYW4OIAP8b2PoRq2H0TPzaRDJMs8AysbYwRf+oz6zFvATbFdhSILUBUotjNaB/zKdf8fhkAjhvtIueSYXRqdibdfGWAMUGmwra+iqoKxZjZGqGnglFnxtWEuPQWLEcKNrwc1oHBbLBsrCChg1tU0BY0YeRrElN6yBon7t3DSNbQUHBIwsApK17Cfg8DKzXIlaXKM4EZ9gDy5Og2SHnNIv2el59+M7DIdj49AyX7x+GkPkSefcXa+7pY7PKDQ/SOvQT1RnpZMK7+X9j04SbPpR1nA2n8cHkkYr/+qZmp/8D720HTrnjr78AAAAASUVORK5CYII=;" parent="1" vertex="1">
          <mxGeometry x="-6944" y="-2439" width="23" height="18" as="geometry"/>
        </mxCell>
        <mxCell id="9IajQ7TqccM-ipKMEV8c-44" value="" style="shape=image;verticalLabelPosition=bottom;labelBackgroundColor=#ffffff;verticalAlign=top;aspect=fixed;imageAspect=0;image=data:image/png,iVBORw0KGgoAAAANSUhEUgAAABYAAAARCAYAAADZsVyDAAACz0lEQVQ4EZ2US0hUYRTHf9+dSR1lcnww+Up7YxA+UzTcFARRFBG1UAyCFlmpiyJaWhCEGyk1d9EuCEHatRAqCQzUfGALQzAnstEZckYHXzPXufHdy70zoxNEBz7OPef8z+/ON/f7jqiurtZIYmFHLv6KFjIKy7lSNMtjdwtogg5fHwMLx1j7OUXeWBc2dT1JN4hk4KC7GlHXRlulRlPZMrnem5B9DhBoS+/4vf8lr6ez6ZkUaMPduPzju+C7wEF3FTln7tNzVqP2qArfLkF0BSrmjOaRw4ALTrxldM7O3UHB8vsuXL4vCXAlPpLbF3Xt9OrQCMxeBCUAKRp4mmH+OqREQQmiTV+m5pCqa0V9O9v29HgUCWB/xW19+zXlpTDXDMoKhFVjBYYg8BEiMo4gCMLXG9SWl9JeGcVXcevv4IzCMq7VuA2BooEtCqFtCKjGCqqwqkJIBZsGSlTXXj3pxnHgVHJwKKuUKrcgP2+fISh6ir4fhwJpcUvG6YpRO/JE18qeygIHkmGa9VdsOEsoSQmYedh7AfL7IMsOuTtW9h442As55y39AeFFMkyzmw9JfWaTkfbeiZWjAopeQHZjLCefRGJo/WJHyINny5VYlZGEOxpAXqNtAc7G3VBgPpqHZJhmgZ2BGcb94F1cMmsxrwoYW4OIAP8b2PoRq2H0TPzaRDJMs8AysbYwRf+oz6zFvATbFdhSILUBUotjNaB/zKdf8fhkAjhvtIueSYXRqdibdfGWAMUGmwra+iqoKxZjZGqGnglFnxtWEuPQWLEcKNrwc1oHBbLBsrCChg1tU0BY0YeRrElN6yBon7t3DSNbQUHBIwsApK17Cfg8DKzXIlaXKM4EZ9gDy5Og2SHnNIv2el59+M7DIdj49AyX7x+GkPkSefcXa+7pY7PKDQ/SOvQT1RnpZMK7+X9j04SbPpR1nA2n8cHkkYr/+qZmp/8D720HTrnjr78AAAAASUVORK5CYII=;" parent="1" vertex="1">
          <mxGeometry x="-6686.5" y="-2432" width="22" height="17" as="geometry"/>
        </mxCell>
        <mxCell id="9IajQ7TqccM-ipKMEV8c-49" value="" style="shape=image;verticalLabelPosition=bottom;labelBackgroundColor=#ffffff;verticalAlign=top;aspect=fixed;imageAspect=0;image=data:image/png,iVBORw0KGgoAAAANSUhEUgAAABMAAAAUCAYAAABvVQZ0AAADeElEQVQ4Ea2U22tcVRTGf+cyZ+bMPc1M0k6mSdOktTF0Cp1WScRStVQt3ooI+uaD6JN/gQr+GYJgEQT1QX3ywWJetOKDmmoTTUyTxvQ6SebanLmcu5xtZkgIFR/ccPZee/Gtb3/77LWWVCwWff6noT6Ix9IzmJEMRt8xAdE6ZdIbsyhO60Eh7CELSNJPv8sThZN88PMtJAkkwPV9Sj5E7/1EZu0bErXFPaRKLpd7v+ut5B7n5qPvUCHO6VyKRFil2rQIKwrxkMrkQJzRkXGOT78IyRzG8pVuqFh7ypJTr7PQd46YIhNRFWZuVHhpYhAZicG4Rj4V6QWarodUOE/pzipc+7znF2Th8TM8+fybXPtxjagqo6sKvifR6DgUh5ICHNhL5SY3qm0apk3TcWkNPceR6zNo7bLAyMFcPzAtNhPZGPlUiExM46mxfaQiKh3Hw/F8FtebbBo2qiSJwyKKLK5fGrsoYoNJKFsLH+bEAZO3p5LI+BiWxJe/w3zJpNQwOdSvUzyY5Nc791k3fPEYtidjez5b+TNYK18JdXJ94CSPjO7j7CEEUXBCXPN5teBRM2ySmkp1y6Zq2Jw6mGK0T+eNUzrvnU0wORBCkSWRQkKZFclycVLvSe0amuJzJKNws/ZPTtcNG8N0eOW4yrnxkICdzoeY/rCEpWehtoisb62xvGl3OXatt7eJhFOSqLddEmGvhxlJK2SiKkFuBkM8wEdXDVbKnR4oMH5YtWm7Ht1aMx0X2/W4fN3G2ea7NGvz8sM5spIhYtVwp4zjw6fzMSb7myiYbHSSNJ046XiH9YaFIkNI8WmbHlf+crjwcQdV8fizYjGWUklW5gmKTA1yZKg6SyJ8mM/+8FmpOKQi93lsRCGfjnAsK/HaCZ9oSOLSL6b4Wo6HYTtYnsfK1csM1+4JZeKauY3vxWa10abtuCJZZ5YrzJUMjmZcQRQAXpjQ6I9ppKMhkhGVnI6oUxEMiNq063e5baos+DnhD/5TUNibTYtMFKaGNeGfK3moSpKHMjEKgwkac19jL33b5ULa2c/qA0VKhbdQI3E0WUKVZfFCzx4NkwhLfPJbC8v1SOshMktf7KrLgHEXWeBoJYYpjzxDc38RWYuJ9hP0Ic/zcfFJ3PqO/dsZ35O0bewh2wkIlAbkQT+LVxcIXr5b1DtxXftfybqg/7r+DcOBWhssHsKGAAAAAElFTkSuQmCC;" parent="1" vertex="1">
          <mxGeometry x="-6366" y="-2410" width="19" height="20" as="geometry"/>
        </mxCell>
        <mxCell id="9IajQ7TqccM-ipKMEV8c-63" style="edgeStyle=orthogonalEdgeStyle;rounded=0;orthogonalLoop=1;jettySize=auto;html=1;exitX=0.75;exitY=1;exitDx=0;exitDy=0;entryX=0.603;entryY=0.873;entryDx=0;entryDy=0;entryPerimeter=0;" parent="1" source="9IajQ7TqccM-ipKMEV8c-50" target="9IajQ7TqccM-ipKMEV8c-55" edge="1">
          <mxGeometry relative="1" as="geometry"/>
        </mxCell>
        <mxCell id="9IajQ7TqccM-ipKMEV8c-50" value="&lt;font color=&quot;#000000&quot;&gt;DEV-AS&lt;/font&gt;" style="rounded=0;whiteSpace=wrap;html=1;fillColor=#d80073;strokeColor=#A50040;fontColor=#ffffff;gradientColor=#ffffff;" parent="1" vertex="1">
          <mxGeometry x="-6944" y="-2420" width="120" height="20" as="geometry"/>
        </mxCell>
        <mxCell id="9IajQ7TqccM-ipKMEV8c-51" value="&lt;font color=&quot;#000000&quot;&gt;&lt;b&gt;QA-AS&lt;/b&gt;&lt;/font&gt;" style="rounded=0;whiteSpace=wrap;html=1;fillColor=#1ba1e2;strokeColor=#006EAF;fontColor=#ffffff;gradientColor=#ffffff;" parent="1" vertex="1">
          <mxGeometry x="-6685" y="-2415" width="133" height="19" as="geometry"/>
        </mxCell>
        <mxCell id="9IajQ7TqccM-ipKMEV8c-53" value="" style="shape=image;verticalLabelPosition=bottom;labelBackgroundColor=#ffffff;verticalAlign=top;aspect=fixed;imageAspect=0;image=data:image/png,iVBORw0KGgoAAAANSUhEUgAAABMAAAAUCAYAAABvVQZ0AAADeElEQVQ4Ea2U22tcVRTGf+cyZ+bMPc1M0k6mSdOktTF0Cp1WScRStVQt3ooI+uaD6JN/gQr+GYJgEQT1QX3ywWJetOKDmmoTTUyTxvQ6SebanLmcu5xtZkgIFR/ccPZee/Gtb3/77LWWVCwWff6noT6Ix9IzmJEMRt8xAdE6ZdIbsyhO60Eh7CELSNJPv8sThZN88PMtJAkkwPV9Sj5E7/1EZu0bErXFPaRKLpd7v+ut5B7n5qPvUCHO6VyKRFil2rQIKwrxkMrkQJzRkXGOT78IyRzG8pVuqFh7ypJTr7PQd46YIhNRFWZuVHhpYhAZicG4Rj4V6QWarodUOE/pzipc+7znF2Th8TM8+fybXPtxjagqo6sKvifR6DgUh5ICHNhL5SY3qm0apk3TcWkNPceR6zNo7bLAyMFcPzAtNhPZGPlUiExM46mxfaQiKh3Hw/F8FtebbBo2qiSJwyKKLK5fGrsoYoNJKFsLH+bEAZO3p5LI+BiWxJe/w3zJpNQwOdSvUzyY5Nc791k3fPEYtidjez5b+TNYK18JdXJ94CSPjO7j7CEEUXBCXPN5teBRM2ySmkp1y6Zq2Jw6mGK0T+eNUzrvnU0wORBCkSWRQkKZFclycVLvSe0amuJzJKNws/ZPTtcNG8N0eOW4yrnxkICdzoeY/rCEpWehtoisb62xvGl3OXatt7eJhFOSqLddEmGvhxlJK2SiKkFuBkM8wEdXDVbKnR4oMH5YtWm7Ht1aMx0X2/W4fN3G2ea7NGvz8sM5spIhYtVwp4zjw6fzMSb7myiYbHSSNJ046XiH9YaFIkNI8WmbHlf+crjwcQdV8fizYjGWUklW5gmKTA1yZKg6SyJ8mM/+8FmpOKQi93lsRCGfjnAsK/HaCZ9oSOLSL6b4Wo6HYTtYnsfK1csM1+4JZeKauY3vxWa10abtuCJZZ5YrzJUMjmZcQRQAXpjQ6I9ppKMhkhGVnI6oUxEMiNq063e5baos+DnhD/5TUNibTYtMFKaGNeGfK3moSpKHMjEKgwkac19jL33b5ULa2c/qA0VKhbdQI3E0WUKVZfFCzx4NkwhLfPJbC8v1SOshMktf7KrLgHEXWeBoJYYpjzxDc38RWYuJ9hP0Ic/zcfFJ3PqO/dsZ35O0bewh2wkIlAbkQT+LVxcIXr5b1DtxXftfybqg/7r+DcOBWhssHsKGAAAAAElFTkSuQmCC;" parent="1" vertex="1">
          <mxGeometry x="-6687" y="-2416" width="19" height="20" as="geometry"/>
        </mxCell>
        <mxCell id="9IajQ7TqccM-ipKMEV8c-54" value="" style="shape=image;verticalLabelPosition=bottom;labelBackgroundColor=#ffffff;verticalAlign=top;aspect=fixed;imageAspect=0;image=data:image/png,iVBORw0KGgoAAAANSUhEUgAAABMAAAAUCAYAAABvVQZ0AAADeElEQVQ4Ea2U22tcVRTGf+cyZ+bMPc1M0k6mSdOktTF0Cp1WScRStVQt3ooI+uaD6JN/gQr+GYJgEQT1QX3ywWJetOKDmmoTTUyTxvQ6SebanLmcu5xtZkgIFR/ccPZee/Gtb3/77LWWVCwWff6noT6Ix9IzmJEMRt8xAdE6ZdIbsyhO60Eh7CELSNJPv8sThZN88PMtJAkkwPV9Sj5E7/1EZu0bErXFPaRKLpd7v+ut5B7n5qPvUCHO6VyKRFil2rQIKwrxkMrkQJzRkXGOT78IyRzG8pVuqFh7ypJTr7PQd46YIhNRFWZuVHhpYhAZicG4Rj4V6QWarodUOE/pzipc+7znF2Th8TM8+fybXPtxjagqo6sKvifR6DgUh5ICHNhL5SY3qm0apk3TcWkNPceR6zNo7bLAyMFcPzAtNhPZGPlUiExM46mxfaQiKh3Hw/F8FtebbBo2qiSJwyKKLK5fGrsoYoNJKFsLH+bEAZO3p5LI+BiWxJe/w3zJpNQwOdSvUzyY5Nc791k3fPEYtidjez5b+TNYK18JdXJ94CSPjO7j7CEEUXBCXPN5teBRM2ySmkp1y6Zq2Jw6mGK0T+eNUzrvnU0wORBCkSWRQkKZFclycVLvSe0amuJzJKNws/ZPTtcNG8N0eOW4yrnxkICdzoeY/rCEpWehtoisb62xvGl3OXatt7eJhFOSqLddEmGvhxlJK2SiKkFuBkM8wEdXDVbKnR4oMH5YtWm7Ht1aMx0X2/W4fN3G2ea7NGvz8sM5spIhYtVwp4zjw6fzMSb7myiYbHSSNJ046XiH9YaFIkNI8WmbHlf+crjwcQdV8fizYjGWUklW5gmKTA1yZKg6SyJ8mM/+8FmpOKQi93lsRCGfjnAsK/HaCZ9oSOLSL6b4Wo6HYTtYnsfK1csM1+4JZeKauY3vxWa10abtuCJZZ5YrzJUMjmZcQRQAXpjQ6I9ppKMhkhGVnI6oUxEMiNq063e5baos+DnhD/5TUNibTYtMFKaGNeGfK3moSpKHMjEKgwkac19jL33b5ULa2c/qA0VKhbdQI3E0WUKVZfFCzx4NkwhLfPJbC8v1SOshMktf7KrLgHEXWeBoJYYpjzxDc38RWYuJ9hP0Ic/zcfFJ3PqO/dsZ35O0bewh2wkIlAbkQT+LVxcIXr5b1DtxXftfybqg/7r+DcOBWhssHsKGAAAAAElFTkSuQmCC;" parent="1" vertex="1">
          <mxGeometry x="-6945" y="-2421" width="19" height="20" as="geometry"/>
        </mxCell>
        <mxCell id="9IajQ7TqccM-ipKMEV8c-59" value="&lt;font color=&quot;#000000&quot;&gt;&lt;b&gt;QA-ASP&lt;/b&gt;&lt;/font&gt;" style="rounded=0;whiteSpace=wrap;html=1;fillColor=#1ba1e2;strokeColor=#006EAF;fontColor=#ffffff;gradientColor=#ffffff;" parent="1" vertex="1">
          <mxGeometry x="-6687" y="-2396" width="136" height="14" as="geometry"/>
        </mxCell>
        <mxCell id="9IajQ7TqccM-ipKMEV8c-61" value="&lt;font color=&quot;#000000&quot;&gt;&lt;b&gt;Prod-ASP&lt;/b&gt;&lt;/font&gt;" style="rounded=0;whiteSpace=wrap;html=1;fillColor=#008a00;strokeColor=#005700;fontColor=#ffffff;gradientColor=#ffffff;" parent="1" vertex="1">
          <mxGeometry x="-6366" y="-2393" width="120" height="17" as="geometry"/>
        </mxCell>
        <mxCell id="9IajQ7TqccM-ipKMEV8c-62" value="&lt;font color=&quot;#000000&quot;&gt;DEV-ASP&lt;/font&gt;" style="rounded=0;whiteSpace=wrap;html=1;fillColor=#d80073;strokeColor=#A50040;fontColor=#ffffff;gradientColor=#ffffff;" parent="1" vertex="1">
          <mxGeometry x="-6945" y="-2400" width="120" height="20" as="geometry"/>
        </mxCell>
        <mxCell id="9IajQ7TqccM-ipKMEV8c-64" value="" style="shape=image;verticalLabelPosition=bottom;labelBackgroundColor=#ffffff;verticalAlign=top;aspect=fixed;imageAspect=0;image=data:image/png,iVBORw0KGgoAAAANSUhEUgAAABcAAAAXCAYAAADgKtSgAAACoUlEQVRIDdVVTWgTQRh9u9kkG5O2bpRKa9pgTAuREFR60NQfrKEJiCABq6gHoRdBxSCKVy+CBwVBT4JCjR6siKII8RdaL/WnSi1ETGmraagUf5YkNWnSbiq7wckus9bm0IMDA2/efN/7vn0zyzCCIMxjiQa7RLqKLKcWbz8XRU1zi5rSxe8vncHUYJ/unprUiP8RFrNzmCupw8q4zmqAiWNQ42ypXlyWSH0vItx8FrGEH48TmzUVWBbo2r5Cwy20oDznjSxSmXqI+Roqz2xkwTAU/VdCY4sctbKOQ1I6gaY1UKY6U7akmkGJ5wolLMs9xMuxVqRnG4iWzLsazGhrtRLuX4Cy5euPIvZ678PvHEI2J5EpSfMYSc2gMFs5abPZDIvFAoPBoFuH6nxtI48Lg5eRLxqwwa3NsddykH2XB8dxMJlMCuZ5HqIoaoPlGIpRCAMYnZNTcx6PB3t2dyAzXcCTp31Ip9MolSpfJctQ4mOTBZxuO4bbQ524Mxygaoe32hWOmS/g8LabSE0Bvb2cbjOU56vsRtyL78KrCS+sFpZMlgHcq3mYjeUbY+JrsXxdDwTvLXTt2w+Xy0U1QnVu5VmU+DDaN1KxhGDT3+Dz+cDY/HDYgO7uRsRiMeUMisViJY6gRYK5/DRmRj8gEomQDIfDgVAoBJvNRjgZULZodnUWvyZGsaNjJ2RB9QgGgxAEQXMtqxZ3Sq+Rz75BPB4n2plMBunJRzgQ9qHeXvmLKc9Jhg7YVLiGo503gE4gePwInj3vV6JS428RcF9FwA0kP7HoeVBOrqpzwTZLSp46KCIajWJgYAD9L+4SXpII1N7zbHJkwceiTzqExGcfmsav4OeXJC5GTypKW9YzcNcyOH+9hHcfK+rMf/uGVuV5xc3Fod9Jo70FF4c8rgAAAABJRU5ErkJggg==;" parent="1" vertex="1">
          <mxGeometry x="-6944" y="-2399" width="18" height="18" as="geometry"/>
        </mxCell>
        <mxCell id="9IajQ7TqccM-ipKMEV8c-65" value="" style="shape=image;verticalLabelPosition=bottom;labelBackgroundColor=#ffffff;verticalAlign=top;aspect=fixed;imageAspect=0;image=data:image/png,iVBORw0KGgoAAAANSUhEUgAAABcAAAAXCAYAAADgKtSgAAACoUlEQVRIDdVVTWgTQRh9u9kkG5O2bpRKa9pgTAuREFR60NQfrKEJiCABq6gHoRdBxSCKVy+CBwVBT4JCjR6siKII8RdaL/WnSi1ETGmraagUf5YkNWnSbiq7wckus9bm0IMDA2/efN/7vn0zyzCCIMxjiQa7RLqKLKcWbz8XRU1zi5rSxe8vncHUYJ/unprUiP8RFrNzmCupw8q4zmqAiWNQ42ypXlyWSH0vItx8FrGEH48TmzUVWBbo2r5Cwy20oDznjSxSmXqI+Roqz2xkwTAU/VdCY4sctbKOQ1I6gaY1UKY6U7akmkGJ5wolLMs9xMuxVqRnG4iWzLsazGhrtRLuX4Cy5euPIvZ678PvHEI2J5EpSfMYSc2gMFs5abPZDIvFAoPBoFuH6nxtI48Lg5eRLxqwwa3NsddykH2XB8dxMJlMCuZ5HqIoaoPlGIpRCAMYnZNTcx6PB3t2dyAzXcCTp31Ip9MolSpfJctQ4mOTBZxuO4bbQ524Mxygaoe32hWOmS/g8LabSE0Bvb2cbjOU56vsRtyL78KrCS+sFpZMlgHcq3mYjeUbY+JrsXxdDwTvLXTt2w+Xy0U1QnVu5VmU+DDaN1KxhGDT3+Dz+cDY/HDYgO7uRsRiMeUMisViJY6gRYK5/DRmRj8gEomQDIfDgVAoBJvNRjgZULZodnUWvyZGsaNjJ2RB9QgGgxAEQXMtqxZ3Sq+Rz75BPB4n2plMBunJRzgQ9qHeXvmLKc9Jhg7YVLiGo503gE4gePwInj3vV6JS428RcF9FwA0kP7HoeVBOrqpzwTZLSp46KCIajWJgYAD9L+4SXpII1N7zbHJkwceiTzqExGcfmsav4OeXJC5GTypKW9YzcNcyOH+9hHcfK+rMf/uGVuV5xc3Fod9Jo70FF4c8rgAAAABJRU5ErkJggg==;" parent="1" vertex="1">
          <mxGeometry x="-6686" y="-2396" width="15" height="15" as="geometry"/>
        </mxCell>
        <mxCell id="9IajQ7TqccM-ipKMEV8c-68" value="" style="shape=image;verticalLabelPosition=bottom;labelBackgroundColor=#ffffff;verticalAlign=top;aspect=fixed;imageAspect=0;image=data:image/png,iVBORw0KGgoAAAANSUhEUgAAABcAAAAXCAYAAADgKtSgAAACoUlEQVRIDdVVTWgTQRh9u9kkG5O2bpRKa9pgTAuREFR60NQfrKEJiCABq6gHoRdBxSCKVy+CBwVBT4JCjR6siKII8RdaL/WnSi1ETGmraagUf5YkNWnSbiq7wckus9bm0IMDA2/efN/7vn0zyzCCIMxjiQa7RLqKLKcWbz8XRU1zi5rSxe8vncHUYJ/unprUiP8RFrNzmCupw8q4zmqAiWNQ42ypXlyWSH0vItx8FrGEH48TmzUVWBbo2r5Cwy20oDznjSxSmXqI+Roqz2xkwTAU/VdCY4sctbKOQ1I6gaY1UKY6U7akmkGJ5wolLMs9xMuxVqRnG4iWzLsazGhrtRLuX4Cy5euPIvZ678PvHEI2J5EpSfMYSc2gMFs5abPZDIvFAoPBoFuH6nxtI48Lg5eRLxqwwa3NsddykH2XB8dxMJlMCuZ5HqIoaoPlGIpRCAMYnZNTcx6PB3t2dyAzXcCTp31Ip9MolSpfJctQ4mOTBZxuO4bbQ524Mxygaoe32hWOmS/g8LabSE0Bvb2cbjOU56vsRtyL78KrCS+sFpZMlgHcq3mYjeUbY+JrsXxdDwTvLXTt2w+Xy0U1QnVu5VmU+DDaN1KxhGDT3+Dz+cDY/HDYgO7uRsRiMeUMisViJY6gRYK5/DRmRj8gEomQDIfDgVAoBJvNRjgZULZodnUWvyZGsaNjJ2RB9QgGgxAEQXMtqxZ3Sq+Rz75BPB4n2plMBunJRzgQ9qHeXvmLKc9Jhg7YVLiGo503gE4gePwInj3vV6JS428RcF9FwA0kP7HoeVBOrqpzwTZLSp46KCIajWJgYAD9L+4SXpII1N7zbHJkwceiTzqExGcfmsav4OeXJC5GTypKW9YzcNcyOH+9hHcfK+rMf/uGVuV5xc3Fod9Jo70FF4c8rgAAAABJRU5ErkJggg==;" parent="1" vertex="1">
          <mxGeometry x="-6365" y="-2391" width="15" height="15" as="geometry"/>
        </mxCell>
        <mxCell id="oC6a1WEsOzrQhsxOkKVa-83" value="" style="edgeStyle=orthogonalEdgeStyle;rounded=0;orthogonalLoop=1;jettySize=auto;html=1;startSize=9;endSize=13;" parent="1" source="oC6a1WEsOzrQhsxOkKVa-5" target="oC6a1WEsOzrQhsxOkKVa-22" edge="1">
          <mxGeometry relative="1" as="geometry"/>
        </mxCell>
        <mxCell id="oC6a1WEsOzrQhsxOkKVa-5" value="&lt;b&gt;Jenkins&lt;/b&gt;" style="rounded=1;whiteSpace=wrap;html=1;fillColor=#990000;strokeColor=#006EAF;fontColor=#ffffff;gradientColor=#ffffff;" parent="1" vertex="1">
          <mxGeometry x="-6623.5" y="-2230" width="133" height="68" as="geometry"/>
        </mxCell>
        <mxCell id="oC6a1WEsOzrQhsxOkKVa-6" value="" style="shape=image;verticalLabelPosition=bottom;labelBackgroundColor=#ffffff;verticalAlign=top;aspect=fixed;imageAspect=0;image=data:image/png,iVBORw0KGgoAAAANSUhEUgAAAEYAAABECAYAAAA85kOPAAAQaklEQVR4Ae1baXNb1Rl+tEuWZEneHTuxMU5IgrNCFhI3CwQopGXoTBnamU5Lv/Vjf0r/QT902n6ATqfQFiZlCQlZIfu+QuJ9k6191+08r3yVqxvJV7KsQDt5ZzR3O/eco/eed3+OSVEUBU/pMQ6YH7vz9IZw4CljKiwEa4X7Dbut5HJQMlko2SzymQyUbA5KPi/X0Em1yWyGyWoBzBaYrRaYbDaYbFaYrFbwWSPpiTMmMzeP5Og4Et+NIPHdQ6SnZ5EJLiA1OYV8OlPyX60eN+xdHbD5fXD2dMHVvwbO/tVwruqC1ddc0nalL0yNVL5cCfl4AsnxSSQfjiHxYBSpyUmkp+dABmWCQWQjUeRiCWTDEXA1acnscMDa7IHF5YLV3wxbawC2lgAcnR3CKGdfL1xremFra5E22nfrPW8IY8iQXDSOzFwQiYejiF6/hejl6whfvo5McB75ZKqueVs8bjh7uuHdvBHeTRvRtG4ArtU9sAX8MDvswAqIWUMYk0skELl0DXNHjmLuixPCINEn1C35PPS6pGYumUwwWSwwL+qcpsFn0HpwGG2vH4RzTW+BOTV3WvrCijKG4pB4MILg0ZPCmPj975Aam0Q+nS4dtcKVtdkLi7tJnmYXQsglkhValt7me1xBZJBv13b4d71QYJDdVtqwhqsVU76pyWnEbt7BwulzmPvsGJIPRx9TppyX2ekAlSqVJ38UC1n+AGw+H6xej0w/HQwiF08ACpBPJEQXZUNhZEMR5OLxkr75QaKRKOL3HyA1NYNsJAb/ru2irG0BXw3seNR0ZVaMomD6w08w/Y9PMPfFV496156ZTHLFL+te9yy824bQvHUTmtY+I8pU21R7TtFLjowhev02wheuIHLhSsGazc1XFElasdZD+9D187fg27kNWBxb26/ReV2MUTIZcKUEj51C8LPjiFy5jvRs8LExaV49z69HYP9LcHZ3iXWx+rywNjeL6Kgr5rEXeUNRkEsmkYvEkA0XVkx6Zg6xW3cx+5+jYu1o2bREX8fe1orA3p3CoNZDB2Cy1Ob31CVKyZFxLJw9j9l/f4rorbtigtUJ0tTa/M0i956Nz8G7dQi+HVtFfMx2u9rM+GgyiSmmybZ3tEl7KnfXQB+oW6I37yB+5z4S9x8gG4uLo0gHMjUxhYUz50TZWzweeDasFVNvPGChxfJWDL9iIonZjz/D1N//hdDXF0pknh6qo6sd3qEN6Hj7TXi3PA9HZ3u1c6qpXfzbh1g4cQYzHx1B7N63oB6iN60SVw7FadWv3kHztk2i49RnSx2XtWJysThmjnwhjIlcvo58JvtoDLMJ7mf70fLyj9D+5itwdHfB4nU/er7CZ87uTrS+sg9NgwOY+uAjhM6eR2JkrDhKJhTCwqmvZXXROrbs31N8ttRJzYyhBYjduS86JXr1plgLdQBaFHqj7W8cQmDPDjStHRBfYznKT+3T6EgrZ+9oF2umpDOweD0IHjsJijl1IMUqMx8SseL8XH2r4ejqMFw5NTFGLMToBOaPn0bo3CWkp2aK8zY7nXD1r0brof1oP/wqaCZT41PF5+qJne67x11QqrG46IW8xl/hH3VQl9TgvVKxss/Avt0wu5xQ8jnMfXoMmdm5oognKHJnL4gJb3l5uCDaS1irmhiTT6URuXwNk+9/iGxwQf2vcnSt6UHLgWH0/OZdsTTzX52RdihY6WLbnl+/C9/O7aIUI9duIvzNJURv3Co+dw8OYPXv3jP8osUXdCfezRtg9bqRi0QROnNe4jS1SfzufYz/5W+ykovhg/pQd6yeMYqCyMUr4kvQXDJtQKJbzkFaDg6DX0KNehk1h89d0g0HdBx+rXBPUZCZnUfszj1hjtpQyeULYYN6o8YjraGzdxU6335T+skdPy2iRLPPlZkamxCdQw/bs3Fdxd6rYgxFiIHfwpnz4qtQdlXiEqazRp/Bs+HRQPRa6YXqKacJIOmfUP617ZzzCxUdN31fla4tTS74dmyT1ZKemhWFzAwu/wdN+vyJs3Cs6kLTYH9FHViV16Ok0kjPzsnSjN28WzIfhvydPzsM93ODRde+pMH3cWE2i67x7XoBLQf2lugrflS6F9Er15GdD1VcnVUxJh2cx8Kpb5DRfU1HV6eE/Vwpqgh9H3yoNCZ9J/f6QQlBGJ8VSVGQGJ1A+NI1UG+Wo6oYwxwKfQEuey0xzqFZpke6pFuvfekJnlOkaCnbXt0Pu87BTI2OI3LpKvKp8rkhQ8ZQLpltC319UbxK9X8x5+odKsQ/pjrCe7W/Rh25qrvefVsYpM0Tp8YnEblyA7l4sqxOM2QM87HJsUlkZoPiMPEPMBlNJ8ne2QGbr7nhiel6mGa2WSVopQdua/EXu2JIk56ZlfyzPghlI0OrlJ6eQWp8oiTZxMFcz/YLcxgXNYKYW2FwyKNKFpdDXH961FXHXlTEdjtcfb1iidTon/llpl+ZkJfkerNXHUaOhoxJTc7IitG+ZbLbxQrp5Vbbpt5zphWY45n95PNiV/SXOt56XRzIqhmz+LZUGPp6wdhOJeoXRuWM/p2rV6m35WgoSunJaUlPat8y220Sxtc6OW0fT/rc9cwaqShox6VFit/7Dkyj6smQMQwas6HSF0XH9HTD6l9e2lA/iSdxbe9sg729tWQoeu/UnZJCLXkCVMWYzEK45DVqdypdi8tZcv+HfGH1eGBxa3wZJgezWXFcmfjSkyFj6MPQ6/1/JFY+kxNTyEVjj/09Q8YISkRTU2bwRVPdKGv02AxX8AYdPkd3p1ipYrcV6lyGjCl2sHhC08ccqtZZ0rf5oV5z7lavV4p1RnOsmTHSoZI36neJ5xqcUpmvZdIncJboqeZHXPkyd80cKnRi6Mfo38tGoyKXLLkuh2giJXAzQepFzNuoxNxOI2Mu5qqTYxMVA0d1HjwaMsbqdkvlMLuooJhDJYIB/NpLEHWRvb1NInI1qcXmjLlYd2aWjc6WljFENPAdmHVpvyXGqeVRPpstMc2FeXjA5JaejBkT8EmsoTKGHVAhszJAt5qdlyNCNlhxDF+8itxito/tWL4lQxwdrYhcv4WsxhVgwMd6USP0Fz+OHmbCwhwhJZKD1v0JQx0jdWZvaRzBAQj0ofNXiQjL8A/vhMVTKNKr7WgakyOjkgthdVFLhHP4XtwCk8Xwe2lfq+qcMRKzBFqio2pt8ZfNLxsyht6ivau0WMYyRfzut2DutxIxjvLvfhFtrx2UlUP9QSJTqWMo7+qKY0WB9Z7Anp1wDfTXXE6tNAftfda/k2Pj2ltgaMMkPiuaejL8NIR6OVZ1l7xHxcsUJyuNFJdyxME8zw1C+clrsHqapNySDUdBplIUKS5S9qBftKpLyi6+FzaD5ZVGEMsnyQePCnEcg7qFoksQgJ4MGUNnjvg3LSnptBTVtUls7XP1nDWi5m1DknRmqTY5OrEIIspKOMGQwtHTLSkB+hiU+UaRYP4ejpZ0TwvYNNAPaxmoiOFMiHljvoLLnQq4gLjMgRkwRt7UM4JpKVe8IvLJZisU8l0uKaoLzCyfFzQmZZzeaDnlV/IP6rjgfMXFGCt8FLUrqWC2tki6gXGUngwZw4lTX7A2HLt9r1A0ZxkiEpVSbfTaLTS/uKVQhtD3vnhNy2Vx8Vdf0MkKYyYUlqybCjDiEOxf0BVtgVJ3H5D24XMXxWfSRtH84CJGrYGyvpMhYzgwO/Hv2SGpQKIJVApfuCyoSs/Q+iUZo7av98igj7pi/qvTovzV/tSPFxjeXaqjFEWyj+N/el8gcGp7Hp293QJNKefD8Hl1jGktMGb+y5NIYKTYf3omiNite6KI3esGGl5CYX2LGTc6hdRJKjGXy7qWd/PzJYxJTc8W5nfrnsDP1PY8MqNHq2lxPu7c8XlVjLG6mwTa0fTcoAByVKWbTybFxQ5+eULExO1ukkS5dgIreS6VxEi0BGHB/mn6bX5/MVnPciwdutiN2widvVDwvhcxxBQ7lnDdawdA2Bv1XDkqf1fXUhRowC+APyIc+CVUSCqrCLMffy6D0bSvlLkVc261lqwM3bSKlyzfiEVbNACSgJopVE5ZDyNDhUwm0SdEdro3rC2rW9ROq2IMG5tMJvh3vyCKjygCJpI5IE03AzMmrfk1ut55S+27riNxLrSGlfwkbec0t46eruIfzSyEMPnBR5g/eVb0ovoROT/6Vy37XoJn/aM6u7Yv9bxqxhD8Q9iWd8sQWg7ulcK4wLrInFQK0Ru3xfTSWWrevgm21vocNZY7TAeHq2IMTS+ZQ3ESHMyprxGkPnxQCqmlwiVTqI+MSsrVM4arxmaTTtsPvybOGus+ar6UCpFgIsI4uGOEipCTXW5ASPnnryoSnZJDanpGVsnMP4+IftECqGneiRxt/+mPZeOG7GpZovOaGMN+qEN8L25G7PZeKNmM4G/V/rl3gKaUWLf2w4cEckaE03KZo/ZrdCQYMbOwgIk/fyDQWsZx+p0sns0bEfjRbhBYZLYaFwlrZozIqd8nwSGDQP5Ym5F9R7m8oDmj126KcmY0S5NI3BtzLY0grtToDSLSv8H88VMF8dEgGAR392w/2t94RaD0WjO/1HxqZgw7Y+dEI+WiUUEpMVqmtZKlqygSdYfPXy7sRZoPSbBJkI5zdY+E+GRuPSRufjiMxMi4+ClEbtH6sBYt2cHFzqlomcpghE9gE5EP1dKyGKN2Tj3CTF0ulcLC8dPytdRnDBmokAlQZmjv37sTvb/9pUTq9FTrIfotkas3MPbHvyJ67TbSc8Gi+6Dtl9XHtkP70fveL2quaiwPAL04Os21mkclOjx49AQIrdATYyQJRtf0ikJ1rulB00CfxCosZ5QL+4t9LK5A5lMIdqbnyx1yskvu4aiAEPX6hB+LoGuB1Q7vkui9VkhtXSuGSlW0/fq1gtEjpJX+R/z2PQEZUf+QKGK5sQnxd8gESWWQSWt6BLqqmk4qajV2kUQWcbp5RTZ/pSYWd8k9HBNRzcVKs38ch16s7Fsgbmd4l/hdtYhP8WOwr5Xc+seMHjdwETIavXoDTEzJXiVNwU47uP6c2UJbICC3uRcgG6mcOtW+S53F3AoZTPRo59tvwLtpA/ihlksryhgC/4iK5P5HKt/g8VMIE4ml2x1SabL0k8yLsQsZqq64Su3V+3TcfDu2o+XAHrjXr5VqI8WpHjehLlFSJ6Ye+ccoKpwUN3kSm+deNyjgHOqE1Mg4svG4JLvUd7RHMjZXRb1Kci8UydWr4OrtFkCzZ2iDwGmZUKsUGGrHMjpf0RWjH4xfnNgT+hmyCeviVaSmpmWXGlcETSuZQR9ICng6kWNO2GS1iSfNxDUZQldBkkx9vfBu24TmrUNihlU9pZ/Dcq8byhhOisyh1WDQybQmU6LcNxm/90AsDBlFj5k6RW9dqNipqImk4upgfpbWjEqbcRtjJOoWrtR6xKYc8xrOGP2gtCbc10hoLKNg1pkIZWdelnGWlrhKmA+2OJ0SFUugGOC+SW/ZWpD23XrPnzhj6p3wk3rfsOD2pCbyQxvnKWMqfJGnjKnAmBX1YyqM0fDbsayCB/E8Ts8WQpDdbRb0NZnhti4fTvI/r3zTeeD3FxI4Oq3ZsArgQIcVf9jmgn2ZMvFfb8ymdiP1d5wAAAAASUVORK5CYII=;" parent="1" vertex="1">
          <mxGeometry x="-6621.5" y="-2226.5" width="26" height="25" as="geometry"/>
        </mxCell>
        <mxCell id="oC6a1WEsOzrQhsxOkKVa-7" value="" style="shape=image;html=1;verticalAlign=top;verticalLabelPosition=bottom;labelBackgroundColor=#ffffff;imageAspect=0;aspect=fixed;image=https://cdn4.iconfinder.com/data/icons/logos-brands-5/24/jenkins-128.png;fillColor=#990000;" parent="1" vertex="1">
          <mxGeometry x="-6621.5" y="-2273.5" width="44" height="44" as="geometry"/>
        </mxCell>
        <mxCell id="oC6a1WEsOzrQhsxOkKVa-100" value="" style="edgeStyle=orthogonalEdgeStyle;rounded=0;orthogonalLoop=1;jettySize=auto;html=1;startSize=9;endSize=13;entryX=0.389;entryY=-0.018;entryDx=0;entryDy=0;entryPerimeter=0;" parent="1" source="oC6a1WEsOzrQhsxOkKVa-22" target="oC6a1WEsOzrQhsxOkKVa-39" edge="1">
          <mxGeometry relative="1" as="geometry">
            <mxPoint x="-6288.5" y="-2082" as="targetPoint"/>
          </mxGeometry>
        </mxCell>
        <mxCell id="oC6a1WEsOzrQhsxOkKVa-102" value="" style="edgeStyle=orthogonalEdgeStyle;rounded=0;orthogonalLoop=1;jettySize=auto;html=1;startSize=9;endSize=13;entryX=0.5;entryY=0;entryDx=0;entryDy=0;" parent="1" source="oC6a1WEsOzrQhsxOkKVa-22" target="oC6a1WEsOzrQhsxOkKVa-54" edge="1">
          <mxGeometry relative="1" as="geometry">
            <mxPoint x="-6267.5" y="-1969" as="targetPoint"/>
          </mxGeometry>
        </mxCell>
        <mxCell id="oC6a1WEsOzrQhsxOkKVa-106" value="" style="edgeStyle=orthogonalEdgeStyle;rounded=0;orthogonalLoop=1;jettySize=auto;html=1;startSize=9;endSize=13;entryX=0.363;entryY=0.036;entryDx=0;entryDy=0;entryPerimeter=0;" parent="1" source="oC6a1WEsOzrQhsxOkKVa-22" target="oC6a1WEsOzrQhsxOkKVa-62" edge="1">
          <mxGeometry relative="1" as="geometry">
            <mxPoint x="-6121" y="-2083" as="targetPoint"/>
          </mxGeometry>
        </mxCell>
        <mxCell id="oC6a1WEsOzrQhsxOkKVa-22" value="&lt;b&gt;IAM&lt;/b&gt;" style="rounded=1;whiteSpace=wrap;html=1;gradientColor=#009900;" parent="1" vertex="1">
          <mxGeometry x="-6334" y="-2117" width="133" height="68" as="geometry"/>
        </mxCell>
        <mxCell id="oC6a1WEsOzrQhsxOkKVa-18" value="" style="shape=image;verticalLabelPosition=bottom;labelBackgroundColor=#ffffff;verticalAlign=top;aspect=fixed;imageAspect=0;image=data:image/png,iVBORw0KGgoAAAANSUhEUgAAAGUAAABkCAYAAACfIP5qAAAO3klEQVR4Ae1dW2hVxxr+d+KJJ8ZbVEi9HT36UFHQoNaH2GpUenmocnyQFkQa8aEIrRKwD2pBW7QgWnroi3hBoxbqUVql6oM9gndbpILGSwVR44VIjJigMTkmNXP4Zu9/71mz117XWXuvSAZ25v7PP/PN/899JSGEEBR30/lAciheXEjabeeJSkZLd6JsZtLuXyXt1+FPIragdD4ggCCe7pe2p8YuGU2J8o+oqOILT8njmih+oHQ+oO6W/SSatgRvMwan/OO0RAUnlv+c8QHFBBg27ZeoWNXjJCceoACQps0kWv5j06zhgxJlVVQ0/lB4QnmiUHhQOh/QqzsLiVKDeWT1LhlNRaO+p0QPmBAUFBTRdoG6AUgeTdG4Q7EHpnCgQEJuTs8jHJmi4g5MUYbVPLowhjxYkccCrUV1Pyxc2VZO7H0FAUVOeVMLQXu2HEIx3S2rkj9eQDqkto9Cp7idX7Vpz4h9aOTqq7WjgQaXjk2XHngc4bWHtjCExAWdtelqTOc1zXSeHZFJCip46vZX1Pq/BkuVRNNmi9+rJ/G30bbrjaLR3wdeIIqW/ZbiG1pOSZ4tgQXwRAIKALncuIcuP6qjseXVmWqltk4yAT5cqb0uHzlck0oJU6bilSNqJM+Hry91zRtlAuOgAJC6S3Po1J31VkCI5AIxysoEoY1Fq2rQiS431lHdH3PU4Ly6jYLCgMCGqRzxSaYykJIwK3alR2eIJl1QbUGNztPY8tmSFFRZoYAxBgoq8e9z/yQGBIO7qrqEQ6N6aVC5Y6yDytszQWdyXLDCG1QYG64T+/Nl9zFREMRd18PV49ZZSIsX5y3+IB7MtBJPrYMzn7EEocd5QCNR8hF7LTY6GTrbvybttnQySyLDntCSAqazAVlPao8zybOUGJyzpH4maIvO+xYyNdNPWvx2dbQkMOwJBYods1BZ1eOtUiJ5bkueGhrm3ww5RX2BIOpQSGBCgYJpL/QuG4wjEPPXwQAYXdqhptX6RlXPwKCAOUx72TAg6uqd42CLruQ5uxoWG7cmKcyX3Tiiq2pOa9IOBIqd2qocXuM4EIaZtpqssC0th4Up1Jg6i7Sruy3NEIGBZl/oLWCODcTcdhzhBLBR8RdqQMaNDUbqOz4TEIFLdFwh6qi3p+wACjJAYjADYwM1hjWYChbHmbB9S4quV1ltuTLjUHHxV5Nr9tAJunKXwdeUcpWBOuoDf5QLywCg7Enz7hkQIkqU/COdL8vx8nZWkNGA7jaikMBDKnTJiGp88QUKBnd19mHHaK7GlCoqVyTCowTGQUqgVr2e2+sqGlojCuMLFGzFq8ayt6VG2LlTh1N2UQgTufR9rgxew7vbHC/zuXYWpRy7ThgFMJ5BwcCuSglUly7OCv+2zsSQj23DZSAaD4OxYeMItjw4c+DJhhe9Iza0nLZJFS7IMygqIChS39vywgaulDoaSIuTqnHMnB0pQXZQi5ime1VdTB0zTXRINpAUdSbK4WFsz6Bg9c4GTOmrXY5zs92AEc9/NQKM4xQ4xWRCO1p2453j9Q556o5VrXO6oLYnUOwG+MAFemgIABNYlbEadBmj5OWLgBfz9A5pelzxBEqoAV5HDzcVx3m4QtpRT6L1kHdwUmCIZ//NvUhkXsBDyGusOjC6eueigtieQFEJBxng1fxwQ4/j4rWrwfpCAUdKD8Yc9ffydnIbv/VQEgzkcTKp66tOSbzE8Qklp1XVO4cFtT1ts6i9YPDfM4Nc0EKRD29IutuS5yKudFLgIJ2gHFslrkSSCVCu38HdjrQ62CNebSO79H7CXCVFn1n4nQY7MQMV4med4ETLNQ7T34pV8lGRa1oPCfR20NvJA4mcSdxB0e5tDS4dk5NYkAgJjBdVFoQ450mpLNMvvHRpMQWMKyhcL7Z1Rjg8jI3G8jT4BygEklg84Q8jKksvXpcWPT6o3xWUhqfmV6x2zELPy8YzKDXyFVfIWZYdr7nCTI0rrqDo106j6h2yolAzFV8YA8e0utLB0GdgenxQvzsoymFWFKrLlnGAg0ekXsxfguhlN9GzrqTtJU9EaUztg7lOiXVJiag+VrL85M4amu172U2J5pfpcFFeRNQ37Y3cEZXW8CcphtYojq3FgOS4zOCYt8CReZt9qSpLdUdS/x4MiMn2cJUUk4W50ZI34HuQhESl2l1BUfWm6d1QHSTMlvK2wtcLD+DX1ZUpTeIKSgBeg2fBrCufWy/BOZU5WzvuWSgY2xe0ULXx6AXpvcMmS+igvGy9hOaSsp4OmtqCcpUUvSBTq1a3NpFbL3jPGGOjd9CCqS9dZKNsM3k66HauHyUDBaLtKin6CVtUM46s+qc+gKA/f8tKV6AASImqNSAl6qQoDFuuoIC4KpYqI2EKdsybWq+YeKXlWE6ISL0d9LE3BGnyBIraA9BDdF0ahoGsvD1kAakf/+r3wbLq5SPAIyjJF7NM1/SVGqaLz0vl5TNT6QKDOXTVBSqqNglGNZPLEygYV9RCo1pE9pQVfZbqMjieABpPoCChqsLgjwIYfNLD0y2XTKcqiCtLdQ3PPPM2wZAPUKwqzNTZgV6JuK9P7FTX2CHWttHr5NfvGRR9agxJiWrAl5+x9XJhz29tDaTXpcTkVJjZ8wwKMugvf3UGmagJm8/sTdAyRQOdUH18C7p6m5goyxco+oAPBvVBzwRTFhoOz/Is6fLg0V9uYZzVx1oTbPgCBQVm3TjXHhKZYErSiNn0GOpa74D6yy5TdfcNCqRF7R1gVL8AHpq5mAGSVFvW5w5RSQnazjcoyKT3EKNqLGaAoL5YLOuTGr0NQndEhUAgUOx6iRFpCQNIcYKoT0KpmhknwNDXZLq2MFNShkogUJBdn3WYUGOBV/TFCRJDSoj6Bq5OpkUUFwBRP2qAKEyB9borWYw4A9cCzOkP/sOqMbmix9cn/JgcgITdGcgFSM0062en/LDqNW1gUFAA1JgODL7EoIu7V2aQztcZfS5AQv4PFQCC72CqhiUEdtQmFChgDsBUj8t8zQhhmM+HBsbLiSPGEE1lyd2AEMfIDAhs1bh9EEhNG9Zt7GPRkBB9Hg/dq2/P+GEYY4yff24TGSAjaiIfR9R2MQYKiNoBA1DCDIw4DvbyXXyc50P1BTWQbLupr52KDlqG13xGQUGhdsCgYgAmqD52BaZktHw+4bXSajqoKezh6XtaSAO1HOV6ROVDdRsHBcSxZjFdyZzfyA8BSC7pQOfBGFIIQNB+kYACwhhfIDW64VkMpMevyQImICBO0gH+MO0NKtV+62SXPjJQUFiumQzigurqNDAABGcuPnaRGQx8gx9u3cQBEPAUKSgogBvCTp0hHg3hW1XwzXwPgKB8SC3GDX12yKAE4oEzR2BHDgrzjMbB7MZp/WKycdw6A/ji8nA9CO64mLyBwhVGY2FxmavXcjqoNzQUX3Ljc3B1LAIt3NiEzXcGku7Mt5KZnm5jqo6zoTiBwTzmHRQu2Cs4nN6EzSBjVqWCa4K2SRoFA4UrAXBY37tJD+fxYwMIAIDn1WF2F/yUGTZtwUHRKwBg8EGFXDMkPb2dn4HAWBFnibDjHWGxA0VnFJLEN/2lO/V6CmEYb/B+hseFpD8+A7ZeF6/+2IPitSKvU7rQW/evU2PEpS69oMQFCYWPXlCUxoiLsxeUuCCh8NELitIYcXH2ghIXJBQ+jIIyZ471/OTgwYM0d+5cunz5slJkMCdoHzqUfdyLML1cryUkEsnLex0dHXTqlPt+mVe6odMJgwZfqGVz/PhxMWLECHH+/HkOCmVv2LBBzJs3L4sGwjZt2pQV7iWA+a2vrxfV1dVesuQlTaYVDRTHlbxw4YIoLS0VJ06csFDdtWuXkJ8WJhKbN28W9+/fF1u3bs1qEDQQwlXT0tIi8z569CgdDDfotba2inXr1kn3sGHDxLJly0RVVZVMh3D82Kh+5hfl8Q/p6urqRGVlpQybP38+Z82bbRyUq1eviqKiInHw4EFLJY4cOSImTZokrl+/LsMvXbokUOH29nZRVlYmGhoaZPjdu3fFwIEDZbiFgBBi8eLFFqn45ptvxPLly8Wff/4pAQHtx48fi9raWrFy5UqZXQUBAaqfQTl58qQAmDDNzc2ioqJCuhsbG8WiRYskSDIgT3+MjinQpR988AHNnz+f+vSxfgnx6NGj9P7771NzczOdPn2anj17RkeOHKHS0lJaunQp7du3T6ri3bt305IlS2S4rptra2sJ8Wz27t1Ln376KU2YMAGdi4YOHUqNjY20YMECunLF3/9i6d+/vyQ7bNgw6urqom3btkmaBw4coE8+Uf4xNRceoW1tOQMFPXz4kF68eEEzZ86UjfTOO+9Iqu3t7TRmzBi6ceMGtbW1UWdnJ23YsEHGodKLFy+mL7/8kvbs2UOYINiZadOm0aBBg+j48ePU3d1NaMApU6ZI/2effSZp8OBtl98pjEFBmh9//JHu3r1Ln3/+ORUXF0ue0HnyZYyDAsbLyspox44dtHDhQvr9999p1KhRNH78eDp27BidO3cuq27Tp0+n8vJyqq+vpzfffJPeeuutrDQcAGmpq6ujV69e0apVyX9igHxvv/02rV+fvD67du1aTi5tzK7YXLx4kWbMmMHetK2CMmTIEHrvvfekFH777be0YsUKWZ904ogdRneJ0UuhRtj88MMPUhpu3rxJTU1NUn1BhQGEEydOUL9+/ei7776TyXfu3Em3bt2iiRMnuqqLAQMGyDzPnz+X9uHDh6XK27VrF127dk1K6vbt2+mXX36RanDjxo0y/uzZs4QGhwGAzC+m7JBoqNOSkhLZmb7++mvZQSC5s2fPppoas2/lJRM5/hSv5+6VI4Hf4OrqzH2uyZMn05MnT+Qa4MMPP6RZs2bRb7/9RmfOnKF58+bR6tWr0+SnTp0qe+dPP/0kGysdYeOAzq+qqiIu64033pAA79+/n959910pQVCP9+7dkypt+PDhtGXLFjnWPH36VFLkvLCRn9NjPBs5cqSU8J9//pnQAb76yvq0zoYlo0FGJSUMZ1ARaJw1a9aEIfNa5I1kTPHbMlAjUB+QoF5DFAtQ1HGoF5SAr4N7Gy7aFvg/sGkdgbyUDRYAAAAASUVORK5CYII=;" parent="1" vertex="1">
          <mxGeometry x="-6333.5" y="-2117" width="39" height="39" as="geometry"/>
        </mxCell>
        <mxCell id="oC6a1WEsOzrQhsxOkKVa-33" value="" style="shape=image;verticalLabelPosition=bottom;labelBackgroundColor=#ffffff;verticalAlign=top;aspect=fixed;imageAspect=0;image=data:image/png,iVBORw0KGgoAAAANSUhEUgAAAHwAAABlCAYAAACPx4ftAAAQS0lEQVR4Ae2deYwVRRrAPxDCsTAMxyC3YARciHIMiQxGGNFkRSGgROJKFBDjYtCACX+YsBswWYl/aBRc4mIkqCEuQQGVS0U5TBzYDQOOEQ2HHGFcLmFgRgXC0Ztfud+zabrf6/emrzfzKnmvu6vr+Or71VdVXd1d3cSyLEsKrtFooGmjKWmhoEYDBeCNrCI0i6u8l0+dlmYlHePKXg4fPizvvPOOyX/evHmxyRF1xpECB/KF7/fJL9sqzBbgfxhZJm1GjogMPqBfeOEF2bp1q5SXlxt99+nTR6ZOnSqNAXykwM+tWis/f7k9VampAOdWrTO/7gsXRAJ92rRpBvShQ4dSclAJ8L/pppsM+NSJBrgTWR8OXDtspy6pDGE7wPJzWnLv3r1lypQpqSY+bDniTD8y4DTl6Vy6ypAuXjbn6LO1GXfGo0nHUSEasousSb/43d6Megx7IEeT7QVUrZ8tFh+m++KLL2T37t1SU1Mj7du3lyFDhsg999wTZpaptCOz8BYD+qcyddupa9Y09D78TxP/LG+//bZb9mYQ16JjV88WwDVSDp6MHTZv3mxgEx3oHL/88stCRQjbRQKcQv370q8CVC9X2b51SgleYXL1P1Z3UZZWHpWJ/9olJWX3mwGaWjpbKgEj92blk02YXf+tzTWrjPEOHjzoGiYq8E3CnFqlELt27TI1mFJ2vXBJyk/VSdvLV1OFphIca9lcqvr1kjlz5qT8g9gB9IZ9J2VpZXUquYunj8nJig1SvW5pqukmXM9x001l0IBd27aQuaNukaHditQrkC0W/tZbb2VMi6Z+9OjRMnTo0IxhswkQCnAnaKdAbS9fkdIaLP4G2de2hTQr6STTp083/ZkzbC7HbqDd0qndt8t4F/XzVirg/zF2oLANymEEq1at8pVc0OADBa6gdUCSqURBD1j8gs4kl9v5IV2L5K/ltwQGXnVF/+3HoauJEycKk0T1cYEAV+HjBr1h3ykBepguDPBAx+r9uPqCrzdw+yVGJoHDsugoQDvLNr20h9zfr3OgFp8t+Fy6wZyBq1X7aZIUNAMQ9uvrsOLdx2rNyDtsi84kaxjg6d/tU7/pZKCZz2ZglzNwLDsT7KBBU3CsmUusuEE7IQB+emlPp3fOxxiUX/BPPvmk7749J+CZRplhgV6/96Sx7Jy1GEHEuMC/+OKLvkqXE3CuI92aHEAziuT6MYimmxJg0fkA2qntoMGjbywey3dzfpv2rIGTIdOATgfgICcKaLL/vvVA4i3aqQf7Mdfu9/crCbSp9zI2+nGgZ3Lec50eMc+ePet6pri4OKvBg2siIqZvnrl2j5niZGCWz45KyywfU7qMO4Jw9Nduzu9lXdZ3y7yalPo24Q3Bot1A4Kfg6Z6CtnivPL38s7Zwr4Tq4683NvLdojPpQMFj8WHeoEknRyKAx1X4dIoJ8xzguakTh8u6SQ9DyMXjBpo+Lo4ZszDKky7NsO7CpcvTfi4RwBGISQt+NO8NETygKR99eJwuMcBVCXbw9vvYej7ftkkBrXpLHHAVLN/Bh3ENrrqpzzaxwLVQ+QY+qaBVn5ED/+70r/L3HdXyx46tZMagLlLSqrnKknb7W//X+bpHltJGivBkrqB/vXRV0AnbkT2DfZzKrfiRA//p/GUjx/enz8uszYeyAv97f5gc8PUBfbj2gqCHKF3kwJ2FU/AT+3Y0NdyPxScBfL6BVr3HDlwFWbX/tPBLOvh8Ba16TgxwFcgOfmI/f68TR2Hx+Q5a9Zs44CpYUsA3FNCq18QCVwHjAq+gs31QkdF2HIMx1VembeKBawEA/2V1rYzsUSS5NPU6ZavpeW0bKmgtb94AR+BT5y+ZgV0u4HmJgGt5L/CA5plzwrDv16lFH6m9aK6l/caLK1xeAVclBQFeH59qLKBVd76B85Yl66K89tprUlRUJLfffru0a9dO04llWx/w3JLlvjQuW4smX50di6XgtkzPnTsnR44ckW+++UYqKirMSha6uIEtWGrX1wMQvE579913y7Zt2wxwXl5fvHix+aVSinFHwTNzt2rfad+SANovbJpumu1t1edk5/GfE9F8A3r58uXy7bffmtedWd2C1555chjjdHMZn1rFsoG9bNmy616Wx79NmzbG2v0+NUn/+8+q426yBObHbF02g7tMGQM6Cov2OxidO3euERnYTzzxxHVr1mCgGCfMnC6jhVNTWALDbW0UFsKhKUmas1s8FSxXB+gvj9YmxqLt5aApb9q06XWwCUOT7rXSRUbgLITjXPVIMyZhMk2qAzytCU19NuDtoEkjiQ5DczNCldULekZaJKorFmpiuqW593psWcMkYWsHT9Ps5ein1aKTClpl79Wrl2c/rcuYuC1OlBE41u3VPDBAYLSeLw6I6W5HMhhLOmjVNStSXb161RW6rjLp1gJkBE4GNA+M/ACMowaxcuGaNWvkrrvuUhnyfvvL5St5VQZ0Dwc7F/b5eXXDvoAz2tuyZYsBDfjBgwfLDz/8IDNnzswrBTU0YbHyBx54wCz31aRJE3M1RRlh5WbdnPM98UJ/oOA///zzhqa7vC0Pk19YOj8/rwz7snC7NuKeXbPLUtjPXgNZA88+i0KMJGmgADxJNCKQpQA8AiUnKYsC8CTRiECWAvAIlJykLArAk0QjAlkKwCNQcpKyKABPEo0IZCkAj0DJScqiADxJNCKQpQA8AiX7yaJ182hQRJOLrcTmWbO+/t4Zs0Vr0LvAvqnI/7Pw9VGG77tl9cnEGZeH9Xj5nadLeKOksToFPaBj68hUEAtwSseTpY0VfBygtUbFBlwFaEzg4wSt+o4duApiB8/LBNk8ZappJHWbBNCqm8QAV4EAz2I/NPc8YpzuoUONk9Stgu5d1FLYD8J5PSXsd3HjrKXwSpjlm72EyaWggP/b8J6ycHQfs/BPLmnEFQe4rFI1qkc7YUAWFGzK4/ZhgmzKmbWF8xAj0N3gLl26NPAPpyp4fbY8yRYPWOQNGjJA0TdG5fWdGbj4cVkDJ1G+huuWMULhz/fLgvw6AnkqeF4kWFJ1IlHPj8cJGt1ggH6/bJTxZUKvWuP1KQZ7eAQJGrymnyt4Vonyemlv46GarN8KZcIkDotWPbBFx34/R50zcKzZ7dsndkF0H/BBfEZR07NvdUTv942RoIADml9Ja38rSdplTrefqel2xs0GNnFzBk7kbIVLAvj6Aqf5HnZjm9BAh/05z3oB19qmfbffD62EDT7ddG2uwPMdtLIKBLgmBni/X9MjDiNLmnoqQNCOpt4NfLbAwwTNJRaDXPSWyaEjBst++2qv9AIFrpnkAt7r80yaZq5bJ3g7cF6KtL9Sax+0AZrBWBh3sdAPl7DZgGYUHoRhhAJc4WQDHmsPCzoDOu7MMV37l0E3Suu6k+YNS16DBjhvx/K2pb4uHBZo9IJO/Ax21aKDAq1Msp5p04h+tggNRH6ZaifNm58a7ydfZxiu4bkUY9buP2tXmrcsAW1ZlnnTkvC8fdnpwk8ypk/7UKxaZco0zkFPQOZT0TTfmfSm6frdhmrhTiHSfT+Tgs2ZM8cZJdBjmnBaErfXaXmnmvNuC+EEKQTAGec4HeVHNi6zgoZszytS4JqxThGqRVPAIAYkmr7Xliac5UsA7uawcqw+bAdwu6Vj0fwAHrqzYnRnzpyxKisrI5Ng6tSp1rJlyzzzKy8vt7Zs2eJ5PsgTUZddZadGNxoHbKC6uUOHDlm9e/d2O9Wg/EIdtIXePGWZAaNx+mm3VQrpwznf0F1Od8vyWSkMylhBklE6l2IsX6mrVHn17flcXqfssQzanELEcYxF6yqTrCjptQhOHLKFmWejBR6mUpOcdqPqw5MMIirZAuvD6RftjrXcxo8f32Cayk2bNpmFhJkcmjx5spSWlpoZxLZt29qLnfz9oK45RMRcw3Idy49LoHbt2llr1qwJKovY0nnllVesgQMHWl999ZWRYcmSJdbDDz9slZaWxiZTrhkHdh0OcKebN2+eNX78eONdU1NjzZ492xo8eLC5FrZPgMyfP9/4cY3M5AhhcVQc/IgzYcIEa/fu3cafuPb49mPCU8mIgyMt0nSmTVqk6UzbRLL9HThwgKk3a+3atTbf33YXLVpk7d+/3xyQ/rp166ynn37aHH/22WcmHnHLysqsTZs2GX90wk+d/Zg0KPOkSZOskpKSa8KhI+YJCGOPr+n43V5PyW9MRzg34Cj01VdfNSERcsqUKWYfCIMGDTKFQ/HsK2TCAYzj4uLiayDrxIhdSSRoP0YO8tH0AIoSNZxWQNLSSsN5TdsEtP2tXr3a6t69u83HfZd8R4wYYS1fvtyqq6uzOnXqlMp3z549VocOHaza2tprZCUlu+zAfPzxx00GFRUVplXZu3evCTNt2jTjX1VVZY0bN85asWKFuyAZfAPrw+m87P34119/LaNGjUpNZnz00Udmn5X6ccydc1k0e/ZsMxnCHDd9/vz58815zg0aNMis64oHkyIsJMvESSZH2OLiYpM+8/V6yWVPmzSYu0Ye5tA1vIbVPKqqqqRv3756aLZc0qmjjBqHtWcfffRRk2+nTp1S/gMGDJDOnTtLZWWlRvPckh6urKxMhg8fbuKMGTPG7I8dO1buvPNO+fjjjz3jZzoR6CidiQt+eseJD+KgSBwVgOe1NAwLw6Iozn/44YfmAfsJEyYYCIQ9e/asq+yZgDuXBrU/4GBPUG+NqjxUNrewyLhnzx57VFORUbxzxq5bt26pcM47Xq1atUqdS7dz8803p05TaX788Ue54447ZPXq1bJz507p0qWLPPbYY3LgwIFUuGx2ArVwzRjFzZo1S5577jmzxDb+1FyA8nM6RvRqJVghFQUr5TMPTkc4p6KpIKSB063ua4vCsU6rEoa01eJNRI8/8hs2bJi8+eab8tRTT5lQKmu6xWyPHj2aSvH48eOmsqvH+fO/f0L64MGDYofMLWRNn33uiV+8eFH69+8vDz74oCxYsEDGjRsnGzdulGeffVaT9L0NBTi5o0zAY71ApummKaTmY70cs946+1QMIONoQrWZxAoXLlxoIDL9yYwYDmDEoQsBoh24CfD/P1oP4tAVUIFIgxaAfboL9Sc+rRJbN7do0SJjZSdOnJDbbrtNTp48KZ988ok0b95cunfvfl0UgGGJ77//vpSUlMj69etNXvhj6VSUd999V86cOXMNbBL69NNPzcrI1dXVsnLlSiFvugIqG5eE6JSvGL3++uvX5evH44b5fqq5n5REUjVTg1NAlEhfdOuttxoloCgFjj8F4BwVY8eOHXLffffJjBkzTBKPPPKIsWbSIMxLL71k/NnHER7FApB0+OGoENqVUNmoFIQlv+eff96EIY76E5YK17JlS3PO+dehQwd55plnTHgqKc3syJEjjdI7dvx9NQu7DA899JB88MEH8t5770ldXZ2sWLHCJNujRw/p2rWryY8lr4GOQ1eMY4C6fft2eeONN0x8xg89e/aUK1eumHXRN2zYIPfee69MmjTJKaav48LUqi81RROIFosbOsAPywU6aAtLyEK6wWmgYOHB6TIvUipYeF5gCk7I/wGyZPQ19GsiIwAAAABJRU5ErkJggg==;" parent="1" vertex="1">
          <mxGeometry x="-7010.5" y="-1942" width="50" height="40" as="geometry"/>
        </mxCell>
        <mxCell id="oC6a1WEsOzrQhsxOkKVa-36" value="" style="edgeStyle=orthogonalEdgeStyle;rounded=0;orthogonalLoop=1;jettySize=auto;html=1;startSize=9;endSize=13;" parent="1" edge="1">
          <mxGeometry relative="1" as="geometry">
            <mxPoint x="-6169.833333333334" y="-1861.3333333333333" as="sourcePoint"/>
            <mxPoint x="-6089.833333333334" y="-1861.3333333333333" as="targetPoint"/>
          </mxGeometry>
        </mxCell>
        <mxCell id="oC6a1WEsOzrQhsxOkKVa-42" value="" style="edgeStyle=orthogonalEdgeStyle;rounded=0;orthogonalLoop=1;jettySize=auto;html=1;startSize=9;endSize=13;" parent="1" edge="1">
          <mxGeometry relative="1" as="geometry">
            <mxPoint x="-5988" y="-1865.1666666666667" as="sourcePoint"/>
            <mxPoint x="-5856.5" y="-1865.5" as="targetPoint"/>
            <Array as="points">
              <mxPoint x="-5941" y="-1865.5"/>
              <mxPoint x="-5941" y="-1865.5"/>
            </Array>
          </mxGeometry>
        </mxCell>
        <mxCell id="oC6a1WEsOzrQhsxOkKVa-98" value="" style="edgeStyle=orthogonalEdgeStyle;rounded=0;orthogonalLoop=1;jettySize=auto;html=1;startSize=9;endSize=13;" parent="1" source="oC6a1WEsOzrQhsxOkKVa-37" edge="1">
          <mxGeometry relative="1" as="geometry">
            <mxPoint x="-6610" y="-1856" as="targetPoint"/>
          </mxGeometry>
        </mxCell>
        <mxCell id="oC6a1WEsOzrQhsxOkKVa-37" value="" style="shape=image;verticalLabelPosition=bottom;labelBackgroundColor=#ffffff;verticalAlign=top;aspect=fixed;imageAspect=0;image=data:image/png,iVBORw0KGgoAAAANSUhEUgAAAIkAAACFCAYAAABv5tuyAAAS4klEQVR4Ae1dCXAUVRr+URBIlisYYBMh3CqHch+iAqKULFCAhFgLKgoKrGvcQourChbQrYKiCigrWCtHKSoQNioK6IIuS4BFOQKyyGEV7JIAIUBCwAWSsMA6W9/Df+jp6Z4+Z7pneK+q5/W7/vfe/775//8d3V0tEAgESDrJgQgcuCtCmkySHBAckCCRQDDkgASJIYtkBgkSiQFDDkiQGLJIZpAgkRgw5IAEiSGLZAYJEokBQw5IkBiySGaQIJEYMOSABIkhi2QGCRKJAUMOSJAYskhmkCCRGDDkgASJIYtkBgkSiQFDDkiQGLJIZpAgkRgw5IAEiSGLZAZfgqTqRgldrNgvR8cnHPAnSK6fpYKiCRIoEiT6HLhYsU8kQqJI5z0HfClJLlXeUjWXpMrxHiFE5DuQKO2RMz9t9AWT7vRG+A4kaoNVHb7TB8yL/lfz0xN8kCI7jg0N4UPtGmn0eFspUUKYEuOAbyQJAHL4zJyw7iMeMx3pvOOALySJAELhRIKv51KSu1L35sv0kmV8FDngKUgAijOXNtK/y8wNPlRPWv0h1LrRxCiyRJJWcyCmIAEoYIhiasv36gaZDUOyNEjqKrJL0Jjlmr181e0Vs1fKitQwqgFgwwXpUvueNEqvH2rwGpWX6eY5EFNJws1i28MOaFjlpCR3I0iTeHJFRUXE1/bt24P3yj40b95cBPv160d9+/Yl+F47T0Ci7LRZu4TB4ZZqKau6QWWVN+hC1U3RnKPllcJHPFy7lCThpybVoHtrV6d2DW+FRaSJH4Bh27ZtxGDAvR0H0Lz44os0e/ZsO8VdKeM5SLgXWF3VmgIj3S2AAAA7Tl+moxcr6cfyKq7atJ9auwY9fl9derxpXcK92gEYH374oQCHXVCoaXIYEiU/P5+DMfV9AxL0+l+lSzVnOh3S59i2OZwCQ280GDBd77kSNWCo6/YKKDE1XNWdVoehSrC5p1yKh0FqxyhlcHx2vFxdjaNwUo27KLn63QQfKqosqRYdvVAppIdVwmx/cDlIokgO0mnlypVC/UTK53aaryQJOgeA8Aor1AykiFUDFQB57+A5WyolEoMfTKmta5uUnjlFX723kL7KW61JAoBgY5TvtTIyUKC25swJX4GGffLBBx9oFY1anO9Agp5i/wYGrdVV1mhJD7Qpo25N6tb4V4YDUXpoL72a+RtiIGCGgoG14yA1XnrppbCisX5hpi9BAgMWhmyr1AmmV1cBkD/tKib4bjuolr7p9YSKMUMbUiWzZwfCzMipq1atWggJgK+wsDAkLtoB32zwKTtaq8avRRBrIWZcNAGC+tkGMdMW5GmU3ox2FF8WU2yzZbTyserRSotlnC9Bwgtlte+5BZZIDIk2QFA3JIkdt+/8VUdA0QIJJEmsna9mN9x52CIpycabftEACACB6W1S9dvAsKs2Km/8TADKoBYNuGuWfBivajd27Fh1VNTDvrRJzPTabYAAGA82rK25SGamPZHyAHhWgQIp0qJFixCyXtgjaMDtv0tIc/wf+OxYuWtGKqa2WEnVWkV1gxOQKFjpteK0Vmy9UDVoc1yCBItYMAzdcJjaWt2XsVMvJB/2isw4SBH11BcA8Wr/Ju5AAmYvPXjeDK8N80ANmFn7MCRkMgPsEzNODRCUwVqLVzvCcQcSiG0AxQ0XLfWi1zaonZOX/6uXLOLnzp0btsTvpRRBo+IKJACHm3sxUDWxdvvO6UsTqBn1UjwA4tXuL/MmrkBi1fjjTur5WCTzwmkBBQDp379/WHNgh3hlsHJj4gokOAeSCE6tcthQha90sEPs7vso6Ti9jxuQYEZj56BQJAa5ZdtEqkMvjWc6DBD1lBfSI9a7vXptjRuQuA0QMMRLkECaxANAwKe4AUk0VA0GyiugbPr+R2GDqCUIBsXL6a6WNPHl3o26oRjIC5U3xZkOdZoyjHyYZlpxWLuwcgzACm29vEf2fktLpr9GZWdOh2XB7MarRbOwxvwSER8gqbxhel+FN9XMSgjk337mP2JRLdrrJjhncuXkcdqwZAFdu/xT2JhAgvgNIGhkXGzwYQkehquVQYSEUM8iwkZFFQH699p4fEJFRjNYdfkSrX57CjVr0iiYfuXKFTp27Ji43nzzTV8CBI2NC5BgMw//eKvnOsTBH5dWZ4Mja+Em6ds8urv8NAEMX375pfCVxdu2bUt16tShCRMmiEuZ5qf7uDBci04WWQYImIydXa9dSUkJ5ebmhgEE7YIUGTp0qK8Bgnb6HiTYy/jr37baHmsvlt7R2IrzZ2jHpg1Cgmg1PrlROmVlT/WtilG22dcgwWlx9V6GsvF+vT+0Joc2jH+Cjv+zQLOJAMiAeR9T1mtTNdP9Funb2Q0vNIFhFaVnbPNNeQzRNhGTBSE9Tvx9HR1es0S3RIfRr1HH0dki3e6xSF3iUUrwJUgAEOXRvdLiU7a7X3nT2rqJmYpgQGfUqSkemeAZF6a3s/84VnPtAzRT05tS/xG/FSqG68CJuHhwvgMJAKLeDYUksTO7wQDgUBEulK+4+T9xOuzHi9YfFufBBCjUBnFezgLKW7KAs4T57Xv0od/PzxGPWoQlxkGEr0DCAIGvdElXSsXyeUYN++c/8O/HhUFuXreWOMVudsGN24LySoBAemxbt1YXIFrSg2kBtBT63BUn+c73DUgADBzbUwOED92su+Ae73iwra6jKI86CvXy/LCI6mXux+t1pQcD1r1eRY+SL2Y3DBD1ZhcDBD6Y6rbDIxRmnXJQoV5efaKLLkAwa/nz1gO6AEGd8WK0oq2eSxIAhF/8ohwwPk8BHw4n2vkMhjKfk3uoHlxm1A5OsTlRL+p2xovRinZ7DpJIr1hQng6HLbBoX4nhTrB6MIzCWGwzAxIAJHfG87rSw6pxKiWJ0cj8kq63WKa3GxoNlWPU1MItn4u1D7xSQstFMk618iMungCC9nq2wQc1o1wLYYZCvei9WgE7wZsLf3JVmkCKqB/0wqIYQIGFMT1wiMFOb0qRjFPuk9JHfZCKsXggTFmvk3vP1I3aSEUn2A7R6xAY6+YjFahHTEV/qdDMiim3DcYp9l6sOthA8QQQ9M8TSaInRXDw1+h0OP6JHx8pc02aQIqgPUbL6QwGO+qFy0JdWn1wnMt66XsiSbCzq3YAhxFAUAb/RIhrqweK1PUhXPDtP2jt4nkRVQqXcwIO0IDE8mpHmvtg14+5JNGSIpHsEL2O4cV5AIxVh1kKzphipRS+kXMKDtDnLYFJDzcxqs6X6TGXJFovZlFOdc1yCdIEJ9bM6nde48j/PFd3GqusG9v5g7PG2LI7lHRwjz2jkW0bqqPjJhxzkGgZrHbe3iPA0ZbEzCSSRGFwRNqAU44WwNHiyRFiO39Qc3tvKFLS49lMpDYq8/vxPuYggbpROqgaO5IENFiKLNof/jElTF1xrqPw+13K6nTvAQ6c8wBA3HJQM/E23dXqe0xBAoCoQaLVKCtxAMobXdPoT7uLxZFBM+sbSvqRwAEpYGfnmW2QRAAIeBVzw1X9XlI0ws7LaxlsUF/4EkTB0eOmDFEGCMDRa/J8atSxB0dp+iPbWLMlABA8bfh8u9SgpNMkHEeRvgAJ1A3WSKB6tJwaEAhr2TZaZdVxLQaMoJZPPmMIDi7HU24O6/kAR9Hla+LTKDN732dr5qVH2+v4mIMEZ0awZ6PlABK+ON0JIJgGfKvgUJbFIhi+f6O3ziEAcuWayGN1FoOtBratlHX66T7mIIEEUB9PjBZDALhqrTpbkhxGbVFvMkLS4DCSVXCgHtg8f9haSGsGtzWq1tN090/yGHQHqiU/yh/3YfWFjcI9G/9Cv3tmkEGrzCdDauDC+RKA441uabYAghr5fAykiZ9dzCUJMwNqBKrHrm3BdCAteArN36xDnJbDYOA9J3Y3CSE1cJoN6gEzFycOUoQ/twKas3o1dUIuqmU9Awn3CmDBXo6enYJ8POhKMCjBwbSs+AwYlMGA4YIDiACGe5OqC5/tBTcfJFcChNsM0Pl12d5zkDCTABa+Tp48SRkZGSLJKRiYvh98gENIMp23WfNMyo59E83++QYk0eykH2i/vfu0eBEPS6xIbWK15hfJIkESabSikKalargagGPiw419NyWWIOERirGPw04wXNlhZddvaobbFvMpMFd8p/swVPm5H/h+BQjGSYLEQ7TyvhD7HjYlYtUSJBHZE91ETK9hh/A0O7q12acuQWKfd66U9LOa4Q5Kw5U5IX1dDkhJossamcAckCBhTkhflwMSJLqskQnMAQkS5oT0dTkgQaLLGpnAHIjqaXmcQGvVqhWtWLGC64u5/80339D+/fsJPs6bdOrUiYYPHx7zdlitUHl6r1mzZtS7d29x/qZmzVvvjcP7bfft20f169enlJQUatiwIY0ePZratGljtSrD/FGTJAcOHKDTp0/T5s2b6eef3X9NpmHPiOiTTz6hF154gTp27ChOwzVu3FicW5k4caKZ4p7mwWEsfLEC10MPPUTr16+np59+mk6cOBFsV0VFBb3yyis0cuRI8cTBI488QhcvXgymu3YTiJIbN25cYPr06eJatGhRsJY5c+YE+vXrF3Ll5+cHNm3aJOI4I+KQDw4+wpMnTw7s3bs3UFxcHBg+fHgAT2PgysnJ4WJBv6SkRKRt3LgxGIcbxK9atSpQXl4u4rOysoJ00DZ2K1euDHTq1EnUPXToUI4WYeRDvVOmTBHx2dnZYe3Iy8sTcXXr1hX+qVOnRN6dO3cGMjMzRRz3K0hccXPrSRNFRCAQGDVqVGD8+PEicvbs2UH+cC7Qe/fddznomg8Euu6uX78umLB///4AroyMDM06MLj9+/cPVFVVBdauXRvSaTVIMFDLly8PFBUViXzTpk0TNAsKCgKpqamBgwcPhtQBcKSnp4fEqQNgtBIYAwcODKBcaWlpoHHjxiI7QIXBAWjgMHg8EM8995xIAyB2794daNKkSaCyslIAEeA4cuSIKLNixYpg30ArNzdXxKMc/xFEhOJHCyTgSfv27UUuBgnicKEfffr0EW1XkHHlNirq5qOPPhLnTrt06UK48EajDRs2hEi/Xbt20cyZM2nJkiVUq1Ytunw58mflmzRpQi+//LI4sQZR/Oijjwp1cv78eRo1ahTt2LEjhD70tZF+/vTTT+n+++8PlkM7v/jiC0pNTaUbN27Q0qVLhRjPy8sj5fPKEO9wsLfKy8tF/T179qQHHniA9uzZQ19//bWwf9q1ayfyDRw4MHiWF3WA7g8//CDKWTkUDrWjfgsUjn7iAk3YXEeOHAn2x62bqIDk/fffF+2D8cUGGMDArrKyksaMGUOrVq0iZiS+CRPJ4dswSldQUEA7d+4kDGBZWVkYSHAeVo9h165dE6RwTLJBg9sPheP+7NmzIg2fH4HLzs6mrKwsqqq6/RZp2DbsHnvsMb4N+qWlpdS6detgGKBj9/rrr9Ozzz5LU6ZMoR49elj6wMKmTZtCQA2aABkufDLl0KFDwnbhutzyXZ/d4J/03XffhT02AbBg0Nq3by9eVoMX1gwZMiTYD0gS5UCAjtLVq1dPGaQOHTqIf2JIpCIAkGCgli1bFvI9GfzL8ZWqLVu2CIPw1Knb762HoY32wWHGAAkAI3fhwoWEwV2+fLmiBv1bSDBIJHZKYxNG/KRJk8QFaTds2DBTQDl69CjNmzePMjMzmWyYDwmnlthhmWxEuA4SvH8EX4Lik+3cpsGDBwsm41959epVGjBgQFAEI8+gQYMoJydHXOfOnRPTOy4LXwkSAOydd94RyZAG+FdCDPOpei43efJk0ZZLly4JUEHybN26Vag4qC+oEIhpDCpAunr1atq799ZbFtHet956S/xzDx8+LEQ50zXyR4wYQfPnzxfqEFIEX80aP368KDZt2jRBE/xBm9USUkmbP+Ny8OBBwSuoRvXMjPNAmmImOWvWLCUJV+7vnsO1uEAOUzJ0CPP1tLS0EIqY60Mk4l+FT4qBQcXFxYRBxgX189RTTxHsBOh21vtgJk7Rg0EtW7YUNLHOAQkAaYB//IwZM6hbt24h9SEAqYBpI/6Fa9asEQM9depU6ty5s8jbtWtXoV4AbIBk8eLF1KtXL5GWnp5Ou3fvpnXr1on2Kl/hxX8AfmaIw2gngIqrT58+wlbAUgDCixYtEnRho4FHULVIgz3VvXt3kab3A1tk3LhxtGDBAtEW5EPdyj9FcnKyaD+3RY+WnXh5VMAO1+6wMlExXO8wHiZ8dyVIEn6InXdQgsQ5DxOeggRJwg+x8w5KkDjnYcJTkCBJ+CF23kEJEuc8THgKEiQJP8TOOyhB4pyHCU9BgiThh9h5ByVInPMw4SlIkCT8EDvvoASJcx4mPAUJkoQfYucdlCBxzsOEpyBBkvBD7LyDEiTOeZjwFCRIEn6InXdQgsQ5DxOeggRJwg+x8w5KkDjnYcJTkCBJ+CF23kEJEuc8THgK/wcb6AbQjq218wAAAABJRU5ErkJggg==;" parent="1" vertex="1">
          <mxGeometry x="-6781" y="-1900" width="91" height="88" as="geometry"/>
        </mxCell>
        <mxCell id="oC6a1WEsOzrQhsxOkKVa-94" value="" style="edgeStyle=orthogonalEdgeStyle;rounded=0;orthogonalLoop=1;jettySize=auto;html=1;startSize=9;endSize=13;" parent="1" source="oC6a1WEsOzrQhsxOkKVa-38" target="oC6a1WEsOzrQhsxOkKVa-37" edge="1">
          <mxGeometry relative="1" as="geometry"/>
        </mxCell>
        <mxCell id="oC6a1WEsOzrQhsxOkKVa-38" value="" style="shape=image;verticalLabelPosition=bottom;labelBackgroundColor=#ffffff;verticalAlign=top;aspect=fixed;imageAspect=0;image=data:image/png,iVBORw0KGgoAAAANSUhEUgAAAG4AAABtCAYAAABAz1RVAAAKfklEQVR4Ae1dXWgUSxY+cXddue7eia6Kgb0k3uAfYU3Eh7DZh8QHxfigeVFEH6Lkgr5F33RfEvFFYTEKCovLJXFBEB+MbrjgBSHxD4QIUR80/lyi5mq8a8zESTKZn+7p5Sut2e6enpmemeq5/VMHOtVVderUqfPVOV09Xemu0DRNI0mes8ACz2ksFWYWkMB5dCJI4CRwHrWAR9WWHieB86gFPKq29DgJnEct4FG1pcd5FLjfFqr37du3LZt89bs/0J++WmlZZy6cT87SZPS9oXj16tW0dOlSQ1mhmampKXrx4oWhWS69xj+9NPD+PrSU/vjnbw1l+oyqESXxJw/9d+SOJUdDQwOtXGnPRpYCdIUFA3fnzh16+vSpTsTn029CtdRQ9beMcquC8U8/0cOJe4aqffv2UWNjo6Gs0Mzc3BxduHDB0CyXXgOj/zbwArQ1uw4ZynhG1TSaTaQomcoP3PA//0Xx8CRvmk73799PBw4cSOdLOZGh0qb14opmCzSb4kpmK9jjsvWoKilKxpLZqg3lqqIa8jxT6u/dVu0L0UvRiOJqiquTThOqRp/i1jqnmcp8Igw4gDb9y4wt9aPqfAZfKpUiVS3NOFbtC9FLTWn0IaoYdEOI/DivEFK7pNgIp3ZlZeOToTKbZb6UzyTUgkDLI05YtQQuhykTaormlczQmaNJ2aokcFlMjdA47bLrml5VCZzeGrpzt4ZIrqIEjltClyI8ujVEcjUlcNwSX9LPIdK4sjSxuCIrgTPBMB13P2hQWdh9nGn8nsxGE0laYOO3SDcMTnrcFxQURaGpj1NuwMSWDhI4ImKgTXkHNCArgSOieDzODltT3SVMgQfOi94WeI/zKmiBBw4PXhEmvUjCbgfi2jz9nHxuywaR1McMvpcvXxK2HoimbHopqkKRSMTQnRKZpMi9/xjKismonzLHV4ycXG2EAQcwrADJ1bm+bnh4WJ8Vdm6lV7YQCYPP3BsQ1reTggK5OPFyiOSTIXDA4ZpmDpHcGF5KAwVcthDpJcC4rsKucdjaVvXXLVyuI2kiEqZXP14xyMZ+zG3bthnKsmWSyST7lSRbvajyc+fO0YcPH0SJs5QjDLiFX2Mzaa1lJ6IKAZyZsIkW4OUj7ADDhiS/UGBCpZ9Aw+QT5nHYjzgVc/ZZVspiDwg8yWpbnt6zAJrVnks9j9fOhQGHPYnRpLOhSE1m7rsEILlAAWh+8zZMMl+HSgDqR9B8D5xfQfM1cAAtVwj12jXNrK8vQ6WfQyQH0HfABQE0X4ZKAOfnEOlLjwuKt/nK44IEmu+AC0KI9FWoDJq3+cbj/HyjzT3MnHr+diAWiwViFekr4LANAftHgkie9Tg/bUMoZuIJe6yTmBij8A/fF6NDUW2w4QfgPXnyhE6cOFGUDKcaOb1tAXoLA06dnSYc5SB9iISRymGocoyrkD48FyqDHiI5uJ4DjodIPoCgpp4CDivIoK4izRNU2DUu1+sFzZ0Wk0+pKZr5GCX6xn7rS4/OGphDq9bTX777u6HMiczwP45YvvZQZF+e8bj5iDf/HUokWHpZngAuEUuSYrHDSz+QoJ0LC5XJmEJTb8XfDuB9k9O/zArBJaakaHzGec8tx2sPhQGHl4eqC8Tuq8R1bTY8T9leTFoMmuUwajF6FdrG1aEyGVcIh6RMC7gWOO5tmSrLEljAlcBJ0PJPTlcCF5tLyBCZBzvXAQdvmy/Dyi+PXVxf7SrgZIi0P19cBZwMkR4EDst+GSI9BpwMkfYB45yuCJXRSJwAniT7FvjVgUOIjEcT9jWWnMwCBQO3bNkyYaYLWoisqqoSZruCgRPWMxEFLUSK+ugfMCj46cD69esJH/8zE14vGNei5uKs+dhcnGbnMr9qlbWBgAq81rAcryS0UhWg4YuNoqhCK+JfXA4fPkyTk5lfJLSrFHZqTUxM2GX3BR9AO3vWuJWilIEVFSqbmppK6dORF4qWpJDDjeFtoj6xyVUtCrjdu3cTQmYx5Id3RRY6brwkTmSYRP9FAYeGHR0dBYMXxM2sIj9oq58wRV3j9AKuXr1KOPIRB82rL6/ONz5zPcIjPE10iOT9lAwcBGHvPlaauQBEiHTiZdl8IG5JOWCtra3CvvltNTYhwOkF83/AMK86g+Bpoq9jeruaz4UDZ+5A5p2xQNGLE2fUkVLtWkACZ9dSLuOTwLkMELvqSODsWsplfBI4lwFiV52Cnw5kE7xlyxaqrKykiooKxoKbzx07dhCe3w0NDdHx48dpcHAwW3NWjrZ2fvOenp5m8h4+fMjaYRne2dlJNTU1LI/yci7Ncw7KoUphwN28edMADIB69uwZnTp1Srjqmzdvpp07d1J/fz+T3dfXRxs3bqRw+PN3CXBuZwIIV6ycAvFYRwQRwVb/p6GhIW379u2sYHBwUGtpaUlX7tq1SwM/ju7u7nQ58leuXNGamppYHc6tCHxjY2OGKvQBQj+o5/2NjIxobW1tWkNDAytDHoS0t7eX1fX09LAy6AI+HHq9uAzIRJvOzk7WHo36+/uZXLRBP+FwmMly+o/R2iX0BmPBePzAII8dO8Yk6oHr6urScHDaunWrNjAwwLKQcfr06XQb5K2ovb2dGbevr88SQH27mpoaZmzIAQCVlZUG+TA8CDo2Nzezcxi/vr6egYICgMLBRQoZ4MfkCYVCaRAxLuhWDrK2TBE9w1gAC0drayvzNsxOkB64uro67f79++keDh48qHV0dLA8ZIyOjqbramtrtXfv3qXz+hPIhpFgYBiSGxZ9ceBwXl1drW/G+FGOgwPFGQAYIgUOjINPMC6P8yGP9ugTfLwNUjMvbyM6FXaNQ3g3Lz5WrFhBbW1thsj/+vVrWrt2bbpsyZIl9OjRo3ReX4eFzdu3b8lqkw0el+AAYTHS0tLCjrSgLyd8wcLLsYCyomvXrhGe7ENf8IyNjVFzczNhIZSNUIdrqX7cXV1d2diFlgsFzqzZ4sWL6c2bN4biDRs20K1bt9jiAhXj4+NUV1eX5nn+/DmtWbOG5V+9ekXg1xNAwioVRuaEFeSqVasyjAzQ9JMC/Jg4AMYMCBY4kMnlXr9+nYnnQIPf3I7XdXd3c1XKlgoFTj+Ax48f0/Lly5nhYWhO7e3t7N1boVCIfYDv0qVL9ODBA15Nly9fpr1799Ldu3fZrcTChQvTdTgBGGfOnGGAcI+Dt2DmA0AOCAwPj6mvr2fPxMAL0KurqxmfXifIBQiYUFiRog7yADLkYQV75MgR5uG9vb1MJtpAJsaMvSToG+CjHVKn6TfdemsL7K2xsZHOnz/PJMJzQAhnmzZtYhuFLl68yIDr6ekh8HLCwEdGRmhgYIAZAODradGiRcxgeE8lDDw6OpoGE8bnB/pct24d433//j3jQ9uTJ08SUhB4+f0edANIN27cYOHy6NGjrA1k7Nmzh7gMeCRucVCPZ2+HDh1iemBSgBfyy0HysY4NK2Nuw9O51+I6yCejjeaOsEjgbJgV3gRPQ+hEiEco5J5qo7kjLBI4R8zqvFD5I7PzNnakBwmcI2Z1XqgEznkbO9KDBM4RszovVALnvI0d6UEC54hZnRcqgXPexo708D8akn4zteYHXAAAAABJRU5ErkJggg==;" parent="1" vertex="1">
          <mxGeometry x="-6936" y="-1900" width="88" height="88" as="geometry"/>
        </mxCell>
        <mxCell id="oC6a1WEsOzrQhsxOkKVa-40" value="" style="edgeStyle=orthogonalEdgeStyle;rounded=0;orthogonalLoop=1;jettySize=auto;html=1;startSize=9;endSize=13;" parent="1" edge="1">
          <mxGeometry relative="1" as="geometry">
            <mxPoint x="-6324" y="-1863.8333333333333" as="sourcePoint"/>
            <mxPoint x="-6255" y="-1863.8333333333333" as="targetPoint"/>
          </mxGeometry>
        </mxCell>
        <mxCell id="oC6a1WEsOzrQhsxOkKVa-87" value="" style="edgeStyle=orthogonalEdgeStyle;rounded=0;orthogonalLoop=1;jettySize=auto;html=1;startSize=9;endSize=13;" parent="1" source="oC6a1WEsOzrQhsxOkKVa-39" target="oC6a1WEsOzrQhsxOkKVa-38" edge="1">
          <mxGeometry relative="1" as="geometry"/>
        </mxCell>
        <mxCell id="oC6a1WEsOzrQhsxOkKVa-39" value="" style="shape=image;verticalLabelPosition=bottom;labelBackgroundColor=#ffffff;verticalAlign=top;aspect=fixed;imageAspect=0;image=data:image/png,iVBORw0KGgoAAAANSUhEUgAAAIIAAACBCAYAAAAMl2JTAAAMv0lEQVR4Ae2db0hWWR7Hf2qlO9joxDgvckvJpaJhV2e23XoxoBJB0UQ2US/qhRZbG8GgvYiMnSVld9leZWEMbEoa9CIkNqWW3gRaREhW5lLQiyWtsYgxRmcyK0vv8j3N73nuvfM8+mj33HvuPefA5dxz7vnz+/N5juf+nnsf0yzLssgk7S2Qrr0FjAGEBQwIBgQDgmEgbgGzIsRtofWZAUFr98eVNyDEbaH1mQFBa/fHlTcgxG2h9ZkBQWv3x5U3IMRtofWZAUFr98eVNyDEbaH1mQFBa/fHldcWhMlnT+jNtQv0uv1fcWtofJam49fQAGC8/SQBBqT0jxfSvIo9NPeLjdqioBUIcPyr5jqauH8rocMBRNaf6ihj+e8TXo9ypRYgTAeA28E6AhFpEAAA/gTgT8FsElYGrBAAI+opkiAAAN4HeOFA3j9EGYhIgeA1AG6IAERmxZ/d1ZEoRwIE2QC4PR1FIEINgt8A2IHAn4k5X3wZmRUilCAwAG+vXYzFAuxO8vM8KkCEDgTeBAIGlVLYgQgNCAAAR7JgkCpQAAi+y1BFplTkUB4EfPKnigamomQQbQBEmKKUyoIQVgDc0IUlKKUcCLwRREQwSkl1IJQBIaoAuGFWNQYROAi6AKA6EIGBoCsAdiBUuuX0HQQDgB2Fd+cqAOEbCAAAMQD7k0G/NIneNUEC4RsIP/7zr0T//Q+lZ6bp7e1ptJ98bRH9bgPlHPrbNC29vTzH2+GSj/bmx0kavT1Ocz9Mp+zfzDFAuEwFAF59P0EvBycou2DSdVV+0TcQWJU3P03S8O1x+tWvM+iDRb5Pz2Iok9sBCFKowDwB8nHoCoQqADB8gYHAAgCG10OTlJmXrsUKoRoA7IfAQYAgME7UgWAAAD3OVUtKgMBGiSIQ0An7orHvJpQEgG2vFAgslB2IDxZlUGZeBl8KVf56aEJ5ANigSoLAwgGI0f+9FcbELSduPcOQWG6sBGFJSoPARoRhf7r3RsQeVAYijACwjUMBAgvLQKgWlIJc2APgT0FYU6hAYCPbg1JZn2QEFqUEABwNZNnCmocSBDZ2UEGpKAHAtvTtS6e3jx/T6L87aOTEtzy357nsKKVsAObkL6TszRWU+/U+z20z3YC+gcCCyAYC3256HaX0C4DsrzbRnPx8NpWvue8gsHZhAIIBkBkNzN68SawAQQHA/ggMBBYAQIw0fkuj5zu4ytN8NisEAJAdDQQA2V9VUNYf/+CpvrMdLHAQWHAA8az2G3p1o4erPM0BRCpRStnRQOwDPj7yD2UAYCMrAwILBBCe1f6F3j6W824jgEgUlMIqgCimrGggAMAmEJtBFZNyILCR/AIiIzNNOgBB3QmwLVPJlY0jZIw/pY8+z6TRtAzxFXUqysykDVYAhK1lJd6bZH+WSfM+WyRrGs/GVW5FwNPOiV56HfvurRQgPLPkzwMxAO7H8FR/KVYZEJIBYHcU384hoqhaSgaAW05VgQgcBAAw05/AUwkIBmCm33mo9lJsYCAAAP71E/enJtVykEAAAHwLiltSnM828Y9qYKUIMvkOghcAuA0GIPz8GhhPTL0vAG4dgn5L2jcQZADgNiaAkBkLAACZn6RLfVIqKCB8A+GHw9/Q5M2Lvjx/6DUQWPoTBaHcIHpRRmQzfeWXtKD+714Ml/IYvsUR2DlYwmUbFY778NO5IkqIFQJzzyZhnFTC0rMZ292H7YPIZvZvZyeve8yZlH0DgYWCwvz8Yc6nc99ro8VjJsuxmfvo83kzBgIAeP1VdjIZ7QAka+NHve8gsFIwAN6B9OP5QwZiuqCU3wD4ucFluyfLAwOBBfLz+UNE+3C4gfAbABWfcwwcBAbCz+cPAQMCQHAIkjsczDJ5mWMFVBEA1lEZEFggv4B4txGUr77qALDd5VuCZ5phDiDC/JZ0WABgtygLAgSEMcMGBAMg8zlHdp6XudIgsKJhAUL2Y25sDxl5KEBgxe1A+BXo4bmnygHA6+8npT3mNtXcXl0LFQisNIBQ4S1plkPWc46srx95KEFgw8ARiFL6EZTiOZFjXpWCQXbZZnvu25dOEPDd+wvt0p5Qlg0EAJAZC9DqlTcGIkzvQEYZAF5BfF0ReFLOsUKoDIQOALAvAgUBQqj4DqROACgDAguiAhAMgKxgEO8Bgnzrme3tzgNfEdwCBfFSLADALSDuBHAuI6ny1nMy3ZQDgQX166VYzCcbAJXeemb7unNlQWBBZQPB83idq/rWczI9lQeBBZf9UizP87656m89J9MvNCCwAqPn20VgStZr8zzPTHPeCAbx+0czlTVR+9CBwErIjkHwPNPlYQeA9QstCKxAUEBEBQC2Y+hBgCKyYxBsLORRA4B1iwQIrIxMIBgAFYNBrP/75JECgQ3hJRAAAL98hk1g0D+Bx/rJyCMJAhsKQLz76nt2P92nejSQ9fQijzQIbCAAMZOf7sMqoOJP4LE+MnItQGDDTQeEjgCwbbQCgZV2RykBgMq/gchyy8y1BIENiv0DUlijgayHF7nWIHhhwKiMEY7/lhUVayushwFBYef4KZoBwU9rKzyXAUFh5/gpmgHBT2srPJcBQWHn+CmatHcfy8vLqaioiJqbm/3UxzEXZOBUUlJCOCorK7lqynxgYIAKCwunbNPV1UWYw7Kmf/K5rq5OjMV5ooHT0tJSGitR3/eusySk27dvW0VFRVZ+fr41MTEhYYbUhiQiq7OzUxznz5+3SktLrZKSEqu/v3/aAdB2uoSxMYdXycuxZiqTd1rYZt61a5dVW1srjqNHj8au1NXVWWVlZY4Dxrx06ZKo44aoQzsk5Cjv37/funHjhjU4OGhVVFQIB8BwjY2N3O0XeSLDVlZWWps2bRJth4eHraqqKquwsFDM09LSIuqrq6ut3NxcUdfb22uhHebkdoAKiUGAXnwN7ZEwVkNDg+iHHGUen8eDbjU1NWJ89LHLy31Qb7cbztHf6+Q5COPj40KhW7duWTgKCgoSygwHlpeXWy9fvrTOnj0bczwau0HYuHGj1dTUZA0MDIh2Bw8eFGP29PRYeXl5Vl9fX8I57IblBuw8lOEYOB0Jxs3JyYmtFva+hw8ftnAgwdGABInHgtOQAAiAQEJ76I42XOYx0IaBwfyAE4nnhFzFxcVCJvTHOSe0ZxC5zovccxCam5sdTgX1HR0dDlmvX78ujH7v3j1Rf/LkSUcfKG9fEXbv3h3rD2NduHDBamtrsy5evGjt27cv6arAho11/tmR9noA0NXVJQ782WDH2dugP/6ccDtcgyPR1t0OZYwJp7OD0R9lHG7H2mVDXzsEPC/qW1tbY5Da+3h17vldw6lTp8S+BZso3qydOHEitpcZGxujHTt20JkzZ2jFihWi/vnz57HriU6WLl3qqO7p6aFr165RW1sbDQ0N0dWrVx3XpyqMjIxQcXGxaHLs2DGxgezs7CQcw8PDCbtig1dRUSHaoB0SxkmWsNFESrbZzM3NTdaVIBM2jZwwBubs7e2lsrIyYVMen9t4kntFFMbp7u4WnxBQbz9A9N27d8VUW7duterr6x3T4pOyatWqWN2RI0ccKwJWDE4YC6tBKglt3QmfesyHhCUaciLhU4z2XLb3xTlvMO3t0BbXUMeJ+/EKwPVcRlv+04JrGJf3DjwWVhLsXRIl7G9Y/kTXZ1vn6e3j6dOnac+ePYJcO6UbNmygpqYm2rZtG42OjtKaNWsIt16c1q9fT42NjeJ4+vQp3bx5ky+JPCcnJ1auqqqi48ePi/LDhw/pwIED1N/fn/TT19HRIT69+BS1traK1YBv4QoKCujKlSviE9jS0kJcxm0m5qyvr6fq6mpRj3FQ39DQIMp9fX2xlQXjbd68mdrb26m0tDQma6ITrAZos3PnToIuWAF4hUJ7XEcdPv2QF2XIgTokrBZTrSiJ5kylLqOOrZJK6ynavHjxgmCc7du308KFzn9Ls3jxYnry5Ak9ePCA5s+fLxw3ODhIcCQO/KlYu3YtnTt3jpYvX05btmwRM8EYcOCyZctoyZIlog5L9KNHj+jy5cu0YMECOnToEK1cuTKpZAALyziMV1tbSzU1NbG2GP/OnTviwDWMff/+fSHD6tWrCX0hD+oBLspoh35ohxxwoC0gYCdmZWWJObCs2/88cHndunVirO7ubjGGWyb0x5iYA7BABoyP9ui7d+/emA5enZjnEbyyZMjH8XyzGHJ7aCu+AUFb1zsVNyA47aFtyYCgreudihsQnPbQtmRA0Nb1TsUNCE57aFsyIGjreqfiBgSnPbQtGRC0db1TcQOC0x7algwI2rreqbgBwWkPbUsGBG1d71TcgOC0h7YlA4K2rncqbkBw2kPbkgFBW9c7Ff8/Ph3r2kxitboAAAAASUVORK5CYII=;" parent="1" vertex="1">
          <mxGeometry x="-7119" y="-1897.5" width="84" height="83" as="geometry"/>
        </mxCell>
        <mxCell id="oC6a1WEsOzrQhsxOkKVa-43" value="" style="shape=image;verticalLabelPosition=bottom;labelBackgroundColor=#ffffff;verticalAlign=top;aspect=fixed;imageAspect=0;image=data:image/png,iVBORw0KGgoAAAANSUhEUgAAAGYAAACBCAYAAAAyns9YAAAPPElEQVR4Ae2de6hXxRbHx+iBFt3wWN7siFlcQY2kiNT+yEdUZFmQqXCj/rCHQuD9K/KPLhpX+kcoLkFphD0MDSOKzAILH2VejTRU9JJCp9TsHjwn0eoIdmlfPuNdm3322bP3zN4zv98+sgd+zex5rLVmfWetWTN7HxsSRVGkmlQ7DVxQO4kagbQGGmBquhAaYBpgaqqBmorVWEwDTE01UFOxGotpgKmpBmoqVmMxDTA11UBNxWospgGmphqoqViNxTTA1FQDNRWrsZgGmJpqoKZiNRbTAFNTDdRUrAtrKtcAsU6c+V3X/bv3jM5P9J17pv7KoRfpuiuHXaRGDL1QTegYNmD8YKuoNTAoHSAO9vapz4+ddtYtgI0YdqEGjvKccR3ONNo1YEgdP8Z471CvOvhznwbFt2IA6PbOy2sPUi2BwVL+trnLNyb96AlAt4++PHaF/Tq0+aGtwCT3h7QecF/Ldx5LVwd5FpDq5OraAgyA4K7YN56d0mncrFsJDogD0MJJI43yBFkVBqItBQZAPj96Wr13uDcWB2X8c+bY+DldAMBk/3R7iOfxHUPV36eMDkHammZLgBFAsBDK6cRmvGjSn9PV8fPKvf8pFZXFBEoU2m09wYEBCBQr5w+TjvJcGmP+sfNoIQ0T7Sr1RYumCu28sUGBcd0jcGmsVFPyBQ48cFccRDmQ9pz57wCWcoClgYMrALUyBQOmzN5g49vLgJMGYjDcDAQBpgwoshqLwLFxjYMRCJm/5N6BYYNnT6mSCATyXAfgLP/XsQGBBIBwFskbW0WuVo71fleW9M1lJwKweZeRAPDs1E59OyDWARiDwUXZ6sS7xVRxY2mhiyI1Cb0B53xL3i3Gp4JW7e3WlmFSvKnepwzQkgWANyCCI6eO35y/dASx1FpbDEpB+Xk3AyFA4HZCFF90/goln3eLIeb3mVAQIXLIKxJ4AMC2Y6ecD7GMxX37vgCtBAwHSFLITZcVOWF4mDeSKDV9d1dmUXGXJwfWMuOzxpQGRq+Uw725d1xZDF3qAIXoi9xXqmIdeTKwH/p0uaWBwfT5+VRacuK+QRGXU+YVdVIuU1no+3JppYARIbJA4TxR9YBJpONjgsiJqzLdapuUXLYel+ZDbviX+q4MS2HSppQFmKlvsp5xvkCBLmEtysqTNcnfR5lAwEdyBoZJikXwBUpWKrNqAAVrKzM2SwbqCEo4pLYy+Xqp5wwM1iIpWZY6cq5TXBKg8ErXJyjCvx3g+NjHnIEh1i9KKMPWnQkoVULuIvfRanDEoxTpKa/dCRjcWNpKTP6buL4oVQUF3nI3x+dOcq7K4ttqcEx6yZItq84JGCKcdEoDJe1FFuADFK7+xaejCD53qgs4RVYsejLlTsDwdWQ6ma752cjFnZFjQfLjuco1PZPGQrJWJeDkKYUF4/MgmNaHPFfdZ6x3aZSQZR1ZyhHhfH+jBS+bKxQJkU1f3rAwACfrZZvI7iNHXlmcrvSsLcZkGXkro8iduQjLJJOuq2gscnH5aUoojOsem73QRKOoPsv1F42Rdmtg8gDI8+vCqEouoJC7JCw8LygAHKwqFDiu8ibnZg1MHpM80JLMypTha9pPbOgxngtG0+IBHF4phAAny/XbyEwfqz2GyeUxyWuzFSSrH4D7OBMgP0FB3kcegCOfRgEWQOGK5bszXDnyQMs2ufRN07QD5v9/vZUeLM9s8r6TL1CScgEyCjbdMAAOfIkYsxLjUDZ0bBcj/QHaNVm7MhPhKmGviSb1NjcMeeNNbURseUGBCRSh5+r6bAEU+pJbAZP1CakQKJqI9HPNp3X+yXWIdX+Uxb5VJYXal0QmK2BMoTKrx2dILEKRhwJceOBi8iI26ZeXm85JyTEm3SX7ZJWtgMkaSJ3p2t/U37W+jG924QE4cqXjMk76Il+oBWQFDBPISqE+khBeIUJYoS151TkUeQyT7oS/KbcCxjTY96dKJj4h66uC31aLCe1SQiq+iHboxVVWd5UsxnSaLlKGbXtZN2BL30e/UDJaARN6VZkUVPYMYKKXVR+aR1ndWQGTNSHqXK8oTHSy6kNbo/CsyqcIWNfvH0QuK2DyiFe52hYhsnJAb0WqyofNP0QAYAVMXkhY5RxgUjx+u6rCTLSz6vPeeGb1T9dx0DQdNvN0l6aTfLYChgF50UXe3VOSmUu5ahjrwovFVdWlYTXpb9jydFYknzUweYrCz/pc4Uwo9F1UWjFF3wok+zPXrHdEWAevrEVXVW5GrP9wCXPPc1sIgzJ9pyK+vvmxKLjez9o3sCpASS5C0ye9yE1ElkXHRmZrYBCKVWVKRX8vaRpnU1/E24aGax9xQ7Lq86KvEIvS2pVhpiKs6yRN/W0PZ2kXYaLnsx7Z+AFIHijwpL3qTXVadmuLYSBv7pJmLMQArOhbLVa9vNehLJNmrMtnTvD38bpZZPed47pMEZoLLydgTC7FxpTlfXqWcK7gAKrL690sniHrmE/Vv4SzdmVMxOTOiq7OxTpMyqDdJSpi4gQa7GuUk4lnfiwWfu1Kablc5bD6GCNJlIgl7UqKFGD7Fk+fJ37us47uZO8hAsLF4UayPrRotYVlyZDUoU3ZyZUJwXQMz/6St0JcQ15ouew7IldR3or9CdmL9tsiOWl3cmVCMBmbI0geKIzJ+hhdaGXlrq4ti0ZWHXKnT+dZ/arUFXkPW9qlgHEx1aL9JU9QXJvvMBT3l1xYefxd21igPiIy+JYChoGceElyANMPGf8pOgNkDOlXFcJ6XBZWP2EKHnzSLQ/MuA4d9RS5MduNv2DO+joI62G/qpps3K8rD2j6tETnqCwpMFZT1SKS9IrKWA/ujU2c1VlFEWzQ0GPhyByq/LP1vj8TLhWVJRXI5PKsxnRbkKRRpgxPH9FPFu8swOgn8ySXV8byEpG9y2eqZDFJYU1CMcnBlrTiE1+ZzlGt/79olN5j2q3swQi4i84GLTBMkr3mfE3BgenpG/iPTftSZtk/1RgM1lZ5jylSckglEE0RPrucH5I35LKZcxaTi1g2dTZ0cmkvmmOI9qDAhARFlCGvu23ASd+ViXzkEjILXckFHMCjDB+pkz4h8qDAhBA4i6acbUwXnyje5t8HyKIt4NGGVbUCFHhVPsdkTSZZ99eNh5KPwcsoLnmRmGcNtsJAk8OsjVXa0izqFxyYKqu1SPhWtANK1beRZeQMDowIldx0pa7OeTusJKmPlgEDU6ynzu/qkbHdgAg4LQVGmNbVetrltkQvybwtwCCA7D2EsJTbmepiJUkdtA2YpBACkpxJkm0hy3UEROZbC2BEGHIsCFcX4h4MIOSUT0jt+6o+OY+q5doBIxMSK+KZF1jcuZVxeYABCJxD6gyEzFvy2gIjAqZzAYcrFHltLXWAkHyBNZiASM9z0AGTnsD5+hz82v98VVzoeTXAhNZwSfoNMCUVF3pYA0xoDZek3wBTUnGhhzXAhNZwSfpegJkxY4Z6/PHHS4qQP+zjjz9WK1asUDNnzlQ33HCDeu655/IHOLYi+9atWx1Hhe9e+dXyN998o44ePaoOHz6s/vjjD3XBBV6wjme+cuVKNWbMGPXqq6+qSy+9VAHUkCFDVBRFcZ8qhS1btlQZHm5sVDEtWLAgWrJkif698MILMbUtW7ZE06dPj5YtWxaNHj06uu2226IDBw7odurXrFkTzZs3L7riiiuiuXPnxuPShUsuuST64IMP+lUfP348fl69ejUI6d+KFSuiI0eO6DZ4vPPOO9Fjjz0Wvfzyy9ETTzwRj6FA+549ezRvZCUh3+TJk6NRo0ZFr7zyStwfOlk8tm/fHj300EO6DXpCJx5YocDKK53Onj2rhdq9e3fEb8yYMTEtAWbz5s26bunSpdGsWbN0mUk8+OCDurxjx45o4sSJ0WuvvRaPTRYAFrpvvPFG1NXVlWyKNmzYoMcK4Mgwe/Zs3QceixcvjjZt2hT19PRoOWVwd3d3NGPGDP3IokDWkydP6j6U4QNAJPoiXxYPxq5bt073W79+vQZbP3j4TyW/89Zbb6np06erm2++Wf/Gjh2rPvzwQ23euJvvvvtO4cNJjzzyiDp48GBs+pdddpkuT506VfH76quv4rZkYenSpeqll15Sn376qbr77rvVHXfcoZYtW6a7fPTRR7ruxIkTatu2ber06dNqw4YN8fBTp06pO++8U3V0dKhHH31UffLJJ7ptzZo1at68eXE/Cuwzd911l57Ptddeq3bu3KnbcaHwnTBhQtxfeDDfVatWqX379qm5c+cqn26x0h6zevVqdfHFF8fKR3KUeP/99+tJXHfddfFkrr76atXd3R0/MylJI0aMUPv375fHAfns2bMVPxIATp48WT311FOqr69P7z8A/uuvv6qzZ8+q5cuXx+NRsCSAePvtt9U999yjkPuLL76QJp0fOXJEjR8/vl8dD+yfo0aN0sr/+uuv1U8//RTzWLx4sV4ITz/9tDp58qSaNWtWvGgGEHKsKA3Mrl271I4dOwasEizkwIEDWozvv/8+Fufbb79V48aNi59/+OGHuEy/SZMmxc9SwDIYt27dOqlSt956q7rmmmvUpk2b1PXXX682btyotm/fHrebCvfee6+677771IsvvqjHDR8+XHf9/fdzb0+xrPnz58fD4c1cAAVrwnJvvPHGuJ0Cwc6iRYv0D9AeeOCB9gPz5ptvqieffFKbflJaFIB5z5kzR7FieWZFvf/++/2A+e233/SwX375RSv39ddfT5LR5YULF2pXRIjc2dmphg4dqqO/H3/8UT388MPaAqH7zDPPqFtuuUV99tlnatiwYVr5A4gppeVdv369zqX9zJlz/5dCrAVFAwhy4xpvuukmrXThgcvdu3ev6unp0Z6BeTEOd97V1aVdodCtmpfaY1DqVVdd1W+CIsiSJUuUrEbqWNUotre3V6EUSXLu2b17t64HyHTC/X355ZfaSvbs2aMOHTqkqJNQeeTIkWrt2rXapbFvYE1YBGnatGlpclpe5MByJE2ZMkWKWg7a3333XW09WECSB4uHxYG7Jj3//PM6x32yULEqb8lDAJFJYuvWrcYohYhp7dq1meOaynMaKGUxNqtCVrWp7/Hjx01NTX0rvl1utFxOA8Esppw4zSjRQAOMaKJmeQNMzQARcRpgRBM1yxtgagaIiNMAI5qoWd4AUzNARJwGGNFEzfIGmJoBIuI0wIgmapY3wNQMEBHnfwCp2km90M+8AAAAAElFTkSuQmCC;" parent="1" vertex="1">
          <mxGeometry x="-6556.5" y="-1900" width="69" height="87" as="geometry"/>
        </mxCell>
        <mxCell id="oC6a1WEsOzrQhsxOkKVa-48" value="DevRG" style="rounded=1;whiteSpace=wrap;html=1;" parent="1" vertex="1">
          <mxGeometry x="-6411" y="-1899.5" width="674" height="99" as="geometry"/>
        </mxCell>
        <mxCell id="oC6a1WEsOzrQhsxOkKVa-49" value="" style="edgeStyle=orthogonalEdgeStyle;rounded=0;orthogonalLoop=1;jettySize=auto;html=1;startSize=9;endSize=13;" parent="1" edge="1">
          <mxGeometry relative="1" as="geometry">
            <mxPoint x="-6159.833333333334" y="-1851.3333333333333" as="sourcePoint"/>
            <mxPoint x="-6079.833333333334" y="-1851.3333333333333" as="targetPoint"/>
          </mxGeometry>
        </mxCell>
        <mxCell id="oC6a1WEsOzrQhsxOkKVa-50" value="" style="edgeStyle=orthogonalEdgeStyle;rounded=0;orthogonalLoop=1;jettySize=auto;html=1;startSize=9;endSize=13;" parent="1" source="oC6a1WEsOzrQhsxOkKVa-51" edge="1">
          <mxGeometry relative="1" as="geometry">
            <mxPoint x="-5846.666666666666" y="-1855.1666666666667" as="targetPoint"/>
            <Array as="points">
              <mxPoint x="-5931" y="-1855.5"/>
              <mxPoint x="-5931" y="-1855.5"/>
            </Array>
          </mxGeometry>
        </mxCell>
        <mxCell id="oC6a1WEsOzrQhsxOkKVa-51" value="" style="shape=image;verticalLabelPosition=bottom;labelBackgroundColor=#ffffff;verticalAlign=top;aspect=fixed;imageAspect=0;image=data:image/png,iVBORw0KGgoAAAANSUhEUgAAAIkAAACFCAYAAABv5tuyAAAS4klEQVR4Ae1dCXAUVRr+URBIlisYYBMh3CqHch+iAqKULFCAhFgLKgoKrGvcQourChbQrYKiCigrWCtHKSoQNioK6IIuS4BFOQKyyGEV7JIAIUBCwAWSsMA6W9/Df+jp6Z4+Z7pneK+q5/W7/vfe/775//8d3V0tEAgESDrJgQgcuCtCmkySHBAckCCRQDDkgASJIYtkBgkSiQFDDkiQGLJIZpAgkRgw5IAEiSGLZAYJEokBQw5IkBiySGaQIJEYMOSABIkhi2QGCRKJAUMOSJAYskhmkCCRGDDkgASJIYtkBgkSiQFDDkiQGLJIZpAgkRgw5IAEiSGLZAZfgqTqRgldrNgvR8cnHPAnSK6fpYKiCRIoEiT6HLhYsU8kQqJI5z0HfClJLlXeUjWXpMrxHiFE5DuQKO2RMz9t9AWT7vRG+A4kaoNVHb7TB8yL/lfz0xN8kCI7jg0N4UPtGmn0eFspUUKYEuOAbyQJAHL4zJyw7iMeMx3pvOOALySJAELhRIKv51KSu1L35sv0kmV8FDngKUgAijOXNtK/y8wNPlRPWv0h1LrRxCiyRJJWcyCmIAEoYIhiasv36gaZDUOyNEjqKrJL0Jjlmr181e0Vs1fKitQwqgFgwwXpUvueNEqvH2rwGpWX6eY5EFNJws1i28MOaFjlpCR3I0iTeHJFRUXE1/bt24P3yj40b95cBPv160d9+/Yl+F47T0Ci7LRZu4TB4ZZqKau6QWWVN+hC1U3RnKPllcJHPFy7lCThpybVoHtrV6d2DW+FRaSJH4Bh27ZtxGDAvR0H0Lz44os0e/ZsO8VdKeM5SLgXWF3VmgIj3S2AAAA7Tl+moxcr6cfyKq7atJ9auwY9fl9derxpXcK92gEYH374oQCHXVCoaXIYEiU/P5+DMfV9AxL0+l+lSzVnOh3S59i2OZwCQ280GDBd77kSNWCo6/YKKDE1XNWdVoehSrC5p1yKh0FqxyhlcHx2vFxdjaNwUo27KLn63QQfKqosqRYdvVAppIdVwmx/cDlIokgO0mnlypVC/UTK53aaryQJOgeA8Aor1AykiFUDFQB57+A5WyolEoMfTKmta5uUnjlFX723kL7KW61JAoBgY5TvtTIyUKC25swJX4GGffLBBx9oFY1anO9Agp5i/wYGrdVV1mhJD7Qpo25N6tb4V4YDUXpoL72a+RtiIGCGgoG14yA1XnrppbCisX5hpi9BAgMWhmyr1AmmV1cBkD/tKib4bjuolr7p9YSKMUMbUiWzZwfCzMipq1atWggJgK+wsDAkLtoB32zwKTtaq8avRRBrIWZcNAGC+tkGMdMW5GmU3ox2FF8WU2yzZbTyserRSotlnC9Bwgtlte+5BZZIDIk2QFA3JIkdt+/8VUdA0QIJJEmsna9mN9x52CIpycabftEACACB6W1S9dvAsKs2Km/8TADKoBYNuGuWfBivajd27Fh1VNTDvrRJzPTabYAAGA82rK25SGamPZHyAHhWgQIp0qJFixCyXtgjaMDtv0tIc/wf+OxYuWtGKqa2WEnVWkV1gxOQKFjpteK0Vmy9UDVoc1yCBItYMAzdcJjaWt2XsVMvJB/2isw4SBH11BcA8Wr/Ju5AAmYvPXjeDK8N80ANmFn7MCRkMgPsEzNODRCUwVqLVzvCcQcSiG0AxQ0XLfWi1zaonZOX/6uXLOLnzp0btsTvpRRBo+IKJACHm3sxUDWxdvvO6UsTqBn1UjwA4tXuL/MmrkBi1fjjTur5WCTzwmkBBQDp379/WHNgh3hlsHJj4gokOAeSCE6tcthQha90sEPs7vso6Ti9jxuQYEZj56BQJAa5ZdtEqkMvjWc6DBD1lBfSI9a7vXptjRuQuA0QMMRLkECaxANAwKe4AUk0VA0GyiugbPr+R2GDqCUIBsXL6a6WNPHl3o26oRjIC5U3xZkOdZoyjHyYZlpxWLuwcgzACm29vEf2fktLpr9GZWdOh2XB7MarRbOwxvwSER8gqbxhel+FN9XMSgjk337mP2JRLdrrJjhncuXkcdqwZAFdu/xT2JhAgvgNIGhkXGzwYQkehquVQYSEUM8iwkZFFQH699p4fEJFRjNYdfkSrX57CjVr0iiYfuXKFTp27Ji43nzzTV8CBI2NC5BgMw//eKvnOsTBH5dWZ4Mja+Em6ds8urv8NAEMX375pfCVxdu2bUt16tShCRMmiEuZ5qf7uDBci04WWQYImIydXa9dSUkJ5ebmhgEE7YIUGTp0qK8Bgnb6HiTYy/jr37baHmsvlt7R2IrzZ2jHpg1Cgmg1PrlROmVlT/WtilG22dcgwWlx9V6GsvF+vT+0Joc2jH+Cjv+zQLOJAMiAeR9T1mtTNdP9Funb2Q0vNIFhFaVnbPNNeQzRNhGTBSE9Tvx9HR1es0S3RIfRr1HH0dki3e6xSF3iUUrwJUgAEOXRvdLiU7a7X3nT2rqJmYpgQGfUqSkemeAZF6a3s/84VnPtAzRT05tS/xG/FSqG68CJuHhwvgMJAKLeDYUksTO7wQDgUBEulK+4+T9xOuzHi9YfFufBBCjUBnFezgLKW7KAs4T57Xv0od/PzxGPWoQlxkGEr0DCAIGvdElXSsXyeUYN++c/8O/HhUFuXreWOMVudsGN24LySoBAemxbt1YXIFrSg2kBtBT63BUn+c73DUgADBzbUwOED92su+Ae73iwra6jKI86CvXy/LCI6mXux+t1pQcD1r1eRY+SL2Y3DBD1ZhcDBD6Y6rbDIxRmnXJQoV5efaKLLkAwa/nz1gO6AEGd8WK0oq2eSxIAhF/8ohwwPk8BHw4n2vkMhjKfk3uoHlxm1A5OsTlRL+p2xovRinZ7DpJIr1hQng6HLbBoX4nhTrB6MIzCWGwzAxIAJHfG87rSw6pxKiWJ0cj8kq63WKa3GxoNlWPU1MItn4u1D7xSQstFMk618iMungCC9nq2wQc1o1wLYYZCvei9WgE7wZsLf3JVmkCKqB/0wqIYQIGFMT1wiMFOb0qRjFPuk9JHfZCKsXggTFmvk3vP1I3aSEUn2A7R6xAY6+YjFahHTEV/qdDMiim3DcYp9l6sOthA8QQQ9M8TSaInRXDw1+h0OP6JHx8pc02aQIqgPUbL6QwGO+qFy0JdWn1wnMt66XsiSbCzq3YAhxFAUAb/RIhrqweK1PUhXPDtP2jt4nkRVQqXcwIO0IDE8mpHmvtg14+5JNGSIpHsEL2O4cV5AIxVh1kKzphipRS+kXMKDtDnLYFJDzcxqs6X6TGXJFovZlFOdc1yCdIEJ9bM6nde48j/PFd3GqusG9v5g7PG2LI7lHRwjz2jkW0bqqPjJhxzkGgZrHbe3iPA0ZbEzCSSRGFwRNqAU44WwNHiyRFiO39Qc3tvKFLS49lMpDYq8/vxPuYggbpROqgaO5IENFiKLNof/jElTF1xrqPw+13K6nTvAQ6c8wBA3HJQM/E23dXqe0xBAoCoQaLVKCtxAMobXdPoT7uLxZFBM+sbSvqRwAEpYGfnmW2QRAAIeBVzw1X9XlI0ws7LaxlsUF/4EkTB0eOmDFEGCMDRa/J8atSxB0dp+iPbWLMlABA8bfh8u9SgpNMkHEeRvgAJ1A3WSKB6tJwaEAhr2TZaZdVxLQaMoJZPPmMIDi7HU24O6/kAR9Hla+LTKDN732dr5qVH2+v4mIMEZ0awZ6PlABK+ON0JIJgGfKvgUJbFIhi+f6O3ziEAcuWayGN1FoOtBratlHX66T7mIIEEUB9PjBZDALhqrTpbkhxGbVFvMkLS4DCSVXCgHtg8f9haSGsGtzWq1tN090/yGHQHqiU/yh/3YfWFjcI9G/9Cv3tmkEGrzCdDauDC+RKA441uabYAghr5fAykiZ9dzCUJMwNqBKrHrm3BdCAteArN36xDnJbDYOA9J3Y3CSE1cJoN6gEzFycOUoQ/twKas3o1dUIuqmU9Awn3CmDBXo6enYJ8POhKMCjBwbSs+AwYlMGA4YIDiACGe5OqC5/tBTcfJFcChNsM0Pl12d5zkDCTABa+Tp48SRkZGSLJKRiYvh98gENIMp23WfNMyo59E83++QYk0eykH2i/vfu0eBEPS6xIbWK15hfJIkESabSikKalargagGPiw419NyWWIOERirGPw04wXNlhZddvaobbFvMpMFd8p/swVPm5H/h+BQjGSYLEQ7TyvhD7HjYlYtUSJBHZE91ETK9hh/A0O7q12acuQWKfd66U9LOa4Q5Kw5U5IX1dDkhJossamcAckCBhTkhflwMSJLqskQnMAQkS5oT0dTkgQaLLGpnAHIjqaXmcQGvVqhWtWLGC64u5/80339D+/fsJPs6bdOrUiYYPHx7zdlitUHl6r1mzZtS7d29x/qZmzVvvjcP7bfft20f169enlJQUatiwIY0ePZratGljtSrD/FGTJAcOHKDTp0/T5s2b6eef3X9NpmHPiOiTTz6hF154gTp27ChOwzVu3FicW5k4caKZ4p7mwWEsfLEC10MPPUTr16+np59+mk6cOBFsV0VFBb3yyis0cuRI8cTBI488QhcvXgymu3YTiJIbN25cYPr06eJatGhRsJY5c+YE+vXrF3Ll5+cHNm3aJOI4I+KQDw4+wpMnTw7s3bs3UFxcHBg+fHgAT2PgysnJ4WJBv6SkRKRt3LgxGIcbxK9atSpQXl4u4rOysoJ00DZ2K1euDHTq1EnUPXToUI4WYeRDvVOmTBHx2dnZYe3Iy8sTcXXr1hX+qVOnRN6dO3cGMjMzRRz3K0hccXPrSRNFRCAQGDVqVGD8+PEicvbs2UH+cC7Qe/fddznomg8Euu6uX78umLB///4AroyMDM06MLj9+/cPVFVVBdauXRvSaTVIMFDLly8PFBUViXzTpk0TNAsKCgKpqamBgwcPhtQBcKSnp4fEqQNgtBIYAwcODKBcaWlpoHHjxiI7QIXBAWjgMHg8EM8995xIAyB2794daNKkSaCyslIAEeA4cuSIKLNixYpg30ArNzdXxKMc/xFEhOJHCyTgSfv27UUuBgnicKEfffr0EW1XkHHlNirq5qOPPhLnTrt06UK48EajDRs2hEi/Xbt20cyZM2nJkiVUq1Ytunw58mflmzRpQi+//LI4sQZR/Oijjwp1cv78eRo1ahTt2LEjhD70tZF+/vTTT+n+++8PlkM7v/jiC0pNTaUbN27Q0qVLhRjPy8sj5fPKEO9wsLfKy8tF/T179qQHHniA9uzZQ19//bWwf9q1ayfyDRw4MHiWF3WA7g8//CDKWTkUDrWjfgsUjn7iAk3YXEeOHAn2x62bqIDk/fffF+2D8cUGGMDArrKyksaMGUOrVq0iZiS+CRPJ4dswSldQUEA7d+4kDGBZWVkYSHAeVo9h165dE6RwTLJBg9sPheP+7NmzIg2fH4HLzs6mrKwsqqq6/RZp2DbsHnvsMb4N+qWlpdS6detgGKBj9/rrr9Ozzz5LU6ZMoR49elj6wMKmTZtCQA2aABkufDLl0KFDwnbhutzyXZ/d4J/03XffhT02AbBg0Nq3by9eVoMX1gwZMiTYD0gS5UCAjtLVq1dPGaQOHTqIf2JIpCIAkGCgli1bFvI9GfzL8ZWqLVu2CIPw1Knb762HoY32wWHGAAkAI3fhwoWEwV2+fLmiBv1bSDBIJHZKYxNG/KRJk8QFaTds2DBTQDl69CjNmzePMjMzmWyYDwmnlthhmWxEuA4SvH8EX4Lik+3cpsGDBwsm41959epVGjBgQFAEI8+gQYMoJydHXOfOnRPTOy4LXwkSAOydd94RyZAG+FdCDPOpei43efJk0ZZLly4JUEHybN26Vag4qC+oEIhpDCpAunr1atq799ZbFtHet956S/xzDx8+LEQ50zXyR4wYQfPnzxfqEFIEX80aP368KDZt2jRBE/xBm9USUkmbP+Ny8OBBwSuoRvXMjPNAmmImOWvWLCUJV+7vnsO1uEAOUzJ0CPP1tLS0EIqY60Mk4l+FT4qBQcXFxYRBxgX189RTTxHsBOh21vtgJk7Rg0EtW7YUNLHOAQkAaYB//IwZM6hbt24h9SEAqYBpI/6Fa9asEQM9depU6ty5s8jbtWtXoV4AbIBk8eLF1KtXL5GWnp5Ou3fvpnXr1on2Kl/hxX8AfmaIw2gngIqrT58+wlbAUgDCixYtEnRho4FHULVIgz3VvXt3kab3A1tk3LhxtGDBAtEW5EPdyj9FcnKyaD+3RY+WnXh5VMAO1+6wMlExXO8wHiZ8dyVIEn6InXdQgsQ5DxOeggRJwg+x8w5KkDjnYcJTkCBJ+CF23kEJEuc8THgKEiQJP8TOOyhB4pyHCU9BgiThh9h5ByVInPMw4SlIkCT8EDvvoASJcx4mPAUJkoQfYucdlCBxzsOEpyBBkvBD7LyDEiTOeZjwFCRIEn6InXdQgsQ5DxOeggRJwg+x8w5KkDjnYcJTkCBJ+CF23kEJEuc8THgK/wcb6AbQjq218wAAAABJRU5ErkJggg==;" parent="1" vertex="1">
          <mxGeometry x="-6079" y="-1895.5" width="101" height="97" as="geometry"/>
        </mxCell>
        <mxCell id="oC6a1WEsOzrQhsxOkKVa-52" value="" style="shape=image;verticalLabelPosition=bottom;labelBackgroundColor=#ffffff;verticalAlign=top;aspect=fixed;imageAspect=0;image=data:image/png,iVBORw0KGgoAAAANSUhEUgAAAG4AAABtCAYAAABAz1RVAAAKfklEQVR4Ae1dXWgUSxY+cXddue7eia6Kgb0k3uAfYU3Eh7DZh8QHxfigeVFEH6Lkgr5F33RfEvFFYTEKCovLJXFBEB+MbrjgBSHxD4QIUR80/lyi5mq8a8zESTKZn+7p5Sut2e6enpmemeq5/VMHOtVVderUqfPVOV09Xemu0DRNI0mes8ACz2ksFWYWkMB5dCJI4CRwHrWAR9WWHieB86gFPKq29DgJnEct4FG1pcd5FLjfFqr37du3LZt89bs/0J++WmlZZy6cT87SZPS9oXj16tW0dOlSQ1mhmampKXrx4oWhWS69xj+9NPD+PrSU/vjnbw1l+oyqESXxJw/9d+SOJUdDQwOtXGnPRpYCdIUFA3fnzh16+vSpTsTn029CtdRQ9beMcquC8U8/0cOJe4aqffv2UWNjo6Gs0Mzc3BxduHDB0CyXXgOj/zbwArQ1uw4ZynhG1TSaTaQomcoP3PA//0Xx8CRvmk73799PBw4cSOdLOZGh0qb14opmCzSb4kpmK9jjsvWoKilKxpLZqg3lqqIa8jxT6u/dVu0L0UvRiOJqiquTThOqRp/i1jqnmcp8Igw4gDb9y4wt9aPqfAZfKpUiVS3NOFbtC9FLTWn0IaoYdEOI/DivEFK7pNgIp3ZlZeOToTKbZb6UzyTUgkDLI05YtQQuhykTaormlczQmaNJ2aokcFlMjdA47bLrml5VCZzeGrpzt4ZIrqIEjltClyI8ujVEcjUlcNwSX9LPIdK4sjSxuCIrgTPBMB13P2hQWdh9nGn8nsxGE0laYOO3SDcMTnrcFxQURaGpj1NuwMSWDhI4ImKgTXkHNCArgSOieDzODltT3SVMgQfOi94WeI/zKmiBBw4PXhEmvUjCbgfi2jz9nHxuywaR1McMvpcvXxK2HoimbHopqkKRSMTQnRKZpMi9/xjKismonzLHV4ycXG2EAQcwrADJ1bm+bnh4WJ8Vdm6lV7YQCYPP3BsQ1reTggK5OPFyiOSTIXDA4ZpmDpHcGF5KAwVcthDpJcC4rsKucdjaVvXXLVyuI2kiEqZXP14xyMZ+zG3bthnKsmWSyST7lSRbvajyc+fO0YcPH0SJs5QjDLiFX2Mzaa1lJ6IKAZyZsIkW4OUj7ADDhiS/UGBCpZ9Aw+QT5nHYjzgVc/ZZVspiDwg8yWpbnt6zAJrVnks9j9fOhQGHPYnRpLOhSE1m7rsEILlAAWh+8zZMMl+HSgDqR9B8D5xfQfM1cAAtVwj12jXNrK8vQ6WfQyQH0HfABQE0X4ZKAOfnEOlLjwuKt/nK44IEmu+AC0KI9FWoDJq3+cbj/HyjzT3MnHr+diAWiwViFekr4LANAftHgkie9Tg/bUMoZuIJe6yTmBij8A/fF6NDUW2w4QfgPXnyhE6cOFGUDKcaOb1tAXoLA06dnSYc5SB9iISRymGocoyrkD48FyqDHiI5uJ4DjodIPoCgpp4CDivIoK4izRNU2DUu1+sFzZ0Wk0+pKZr5GCX6xn7rS4/OGphDq9bTX777u6HMiczwP45YvvZQZF+e8bj5iDf/HUokWHpZngAuEUuSYrHDSz+QoJ0LC5XJmEJTb8XfDuB9k9O/zArBJaakaHzGec8tx2sPhQGHl4eqC8Tuq8R1bTY8T9leTFoMmuUwajF6FdrG1aEyGVcIh6RMC7gWOO5tmSrLEljAlcBJ0PJPTlcCF5tLyBCZBzvXAQdvmy/Dyi+PXVxf7SrgZIi0P19cBZwMkR4EDst+GSI9BpwMkfYB45yuCJXRSJwAniT7FvjVgUOIjEcT9jWWnMwCBQO3bNkyYaYLWoisqqoSZruCgRPWMxEFLUSK+ugfMCj46cD69esJH/8zE14vGNei5uKs+dhcnGbnMr9qlbWBgAq81rAcryS0UhWg4YuNoqhCK+JfXA4fPkyTk5lfJLSrFHZqTUxM2GX3BR9AO3vWuJWilIEVFSqbmppK6dORF4qWpJDDjeFtoj6xyVUtCrjdu3cTQmYx5Id3RRY6brwkTmSYRP9FAYeGHR0dBYMXxM2sIj9oq58wRV3j9AKuXr1KOPIRB82rL6/ONz5zPcIjPE10iOT9lAwcBGHvPlaauQBEiHTiZdl8IG5JOWCtra3CvvltNTYhwOkF83/AMK86g+Bpoq9jeruaz4UDZ+5A5p2xQNGLE2fUkVLtWkACZ9dSLuOTwLkMELvqSODsWsplfBI4lwFiV52Cnw5kE7xlyxaqrKykiooKxoKbzx07dhCe3w0NDdHx48dpcHAwW3NWjrZ2fvOenp5m8h4+fMjaYRne2dlJNTU1LI/yci7Ncw7KoUphwN28edMADIB69uwZnTp1Srjqmzdvpp07d1J/fz+T3dfXRxs3bqRw+PN3CXBuZwIIV6ycAvFYRwQRwVb/p6GhIW379u2sYHBwUGtpaUlX7tq1SwM/ju7u7nQ58leuXNGamppYHc6tCHxjY2OGKvQBQj+o5/2NjIxobW1tWkNDAytDHoS0t7eX1fX09LAy6AI+HHq9uAzIRJvOzk7WHo36+/uZXLRBP+FwmMly+o/R2iX0BmPBePzAII8dO8Yk6oHr6urScHDaunWrNjAwwLKQcfr06XQb5K2ovb2dGbevr88SQH27mpoaZmzIAQCVlZUG+TA8CDo2Nzezcxi/vr6egYICgMLBRQoZ4MfkCYVCaRAxLuhWDrK2TBE9w1gAC0drayvzNsxOkB64uro67f79++keDh48qHV0dLA8ZIyOjqbramtrtXfv3qXz+hPIhpFgYBiSGxZ9ceBwXl1drW/G+FGOgwPFGQAYIgUOjINPMC6P8yGP9ugTfLwNUjMvbyM6FXaNQ3g3Lz5WrFhBbW1thsj/+vVrWrt2bbpsyZIl9OjRo3ReX4eFzdu3b8lqkw0el+AAYTHS0tLCjrSgLyd8wcLLsYCyomvXrhGe7ENf8IyNjVFzczNhIZSNUIdrqX7cXV1d2diFlgsFzqzZ4sWL6c2bN4biDRs20K1bt9jiAhXj4+NUV1eX5nn+/DmtWbOG5V+9ekXg1xNAwioVRuaEFeSqVasyjAzQ9JMC/Jg4AMYMCBY4kMnlXr9+nYnnQIPf3I7XdXd3c1XKlgoFTj+Ax48f0/Lly5nhYWhO7e3t7N1boVCIfYDv0qVL9ODBA15Nly9fpr1799Ldu3fZrcTChQvTdTgBGGfOnGGAcI+Dt2DmA0AOCAwPj6mvr2fPxMAL0KurqxmfXifIBQiYUFiRog7yADLkYQV75MgR5uG9vb1MJtpAJsaMvSToG+CjHVKn6TfdemsL7K2xsZHOnz/PJMJzQAhnmzZtYhuFLl68yIDr6ekh8HLCwEdGRmhgYIAZAODradGiRcxgeE8lDDw6OpoGE8bnB/pct24d433//j3jQ9uTJ08SUhB4+f0edANIN27cYOHy6NGjrA1k7Nmzh7gMeCRucVCPZ2+HDh1iemBSgBfyy0HysY4NK2Nuw9O51+I6yCejjeaOsEjgbJgV3gRPQ+hEiEco5J5qo7kjLBI4R8zqvFD5I7PzNnakBwmcI2Z1XqgEznkbO9KDBM4RszovVALnvI0d6UEC54hZnRcqgXPexo708D8akn4zteYHXAAAAABJRU5ErkJggg==;" parent="1" vertex="1">
          <mxGeometry x="-6245" y="-1897.5" width="88" height="88" as="geometry"/>
        </mxCell>
        <mxCell id="oC6a1WEsOzrQhsxOkKVa-53" value="" style="edgeStyle=orthogonalEdgeStyle;rounded=0;orthogonalLoop=1;jettySize=auto;html=1;startSize=9;endSize=13;" parent="1" source="oC6a1WEsOzrQhsxOkKVa-54" target="oC6a1WEsOzrQhsxOkKVa-52" edge="1">
          <mxGeometry relative="1" as="geometry"/>
        </mxCell>
        <mxCell id="oC6a1WEsOzrQhsxOkKVa-54" value="" style="shape=image;verticalLabelPosition=bottom;labelBackgroundColor=#ffffff;verticalAlign=top;aspect=fixed;imageAspect=0;image=data:image/png,iVBORw0KGgoAAAANSUhEUgAAAIIAAACBCAYAAAAMl2JTAAAMv0lEQVR4Ae2db0hWWR7Hf2qlO9joxDgvckvJpaJhV2e23XoxoBJB0UQ2US/qhRZbG8GgvYiMnSVld9leZWEMbEoa9CIkNqWW3gRaREhW5lLQiyWtsYgxRmcyK0vv8j3N73nuvfM8+mj33HvuPefA5dxz7vnz+/N5juf+nnsf0yzLssgk7S2Qrr0FjAGEBQwIBgQDgmEgbgGzIsRtofWZAUFr98eVNyDEbaH1mQFBa/fHlTcgxG2h9ZkBQWv3x5U3IMRtofWZAUFr98eVNyDEbaH1mQFBa/fHldcWhMlnT+jNtQv0uv1fcWtofJam49fQAGC8/SQBBqT0jxfSvIo9NPeLjdqioBUIcPyr5jqauH8rocMBRNaf6ihj+e8TXo9ypRYgTAeA28E6AhFpEAAA/gTgT8FsElYGrBAAI+opkiAAAN4HeOFA3j9EGYhIgeA1AG6IAERmxZ/d1ZEoRwIE2QC4PR1FIEINgt8A2IHAn4k5X3wZmRUilCAwAG+vXYzFAuxO8vM8KkCEDgTeBAIGlVLYgQgNCAAAR7JgkCpQAAi+y1BFplTkUB4EfPKnigamomQQbQBEmKKUyoIQVgDc0IUlKKUcCLwRREQwSkl1IJQBIaoAuGFWNQYROAi6AKA6EIGBoCsAdiBUuuX0HQQDgB2Fd+cqAOEbCAAAMQD7k0G/NIneNUEC4RsIP/7zr0T//Q+lZ6bp7e1ptJ98bRH9bgPlHPrbNC29vTzH2+GSj/bmx0kavT1Ocz9Mp+zfzDFAuEwFAF59P0EvBycou2DSdVV+0TcQWJU3P03S8O1x+tWvM+iDRb5Pz2Iok9sBCFKowDwB8nHoCoQqADB8gYHAAgCG10OTlJmXrsUKoRoA7IfAQYAgME7UgWAAAD3OVUtKgMBGiSIQ0An7orHvJpQEgG2vFAgslB2IDxZlUGZeBl8KVf56aEJ5ANigSoLAwgGI0f+9FcbELSduPcOQWG6sBGFJSoPARoRhf7r3RsQeVAYijACwjUMBAgvLQKgWlIJc2APgT0FYU6hAYCPbg1JZn2QEFqUEABwNZNnCmocSBDZ2UEGpKAHAtvTtS6e3jx/T6L87aOTEtzy357nsKKVsAObkL6TszRWU+/U+z20z3YC+gcCCyAYC3256HaX0C4DsrzbRnPx8NpWvue8gsHZhAIIBkBkNzN68SawAQQHA/ggMBBYAQIw0fkuj5zu4ytN8NisEAJAdDQQA2V9VUNYf/+CpvrMdLHAQWHAA8az2G3p1o4erPM0BRCpRStnRQOwDPj7yD2UAYCMrAwILBBCe1f6F3j6W824jgEgUlMIqgCimrGggAMAmEJtBFZNyILCR/AIiIzNNOgBB3QmwLVPJlY0jZIw/pY8+z6TRtAzxFXUqysykDVYAhK1lJd6bZH+WSfM+WyRrGs/GVW5FwNPOiV56HfvurRQgPLPkzwMxAO7H8FR/KVYZEJIBYHcU384hoqhaSgaAW05VgQgcBAAw05/AUwkIBmCm33mo9lJsYCAAAP71E/enJtVykEAAAHwLiltSnM828Y9qYKUIMvkOghcAuA0GIPz8GhhPTL0vAG4dgn5L2jcQZADgNiaAkBkLAACZn6RLfVIqKCB8A+GHw9/Q5M2Lvjx/6DUQWPoTBaHcIHpRRmQzfeWXtKD+714Ml/IYvsUR2DlYwmUbFY778NO5IkqIFQJzzyZhnFTC0rMZ292H7YPIZvZvZyeve8yZlH0DgYWCwvz8Yc6nc99ro8VjJsuxmfvo83kzBgIAeP1VdjIZ7QAka+NHve8gsFIwAN6B9OP5QwZiuqCU3wD4ucFluyfLAwOBBfLz+UNE+3C4gfAbABWfcwwcBAbCz+cPAQMCQHAIkjsczDJ5mWMFVBEA1lEZEFggv4B4txGUr77qALDd5VuCZ5phDiDC/JZ0WABgtygLAgSEMcMGBAMg8zlHdp6XudIgsKJhAUL2Y25sDxl5KEBgxe1A+BXo4bmnygHA6+8npT3mNtXcXl0LFQisNIBQ4S1plkPWc46srx95KEFgw8ARiFL6EZTiOZFjXpWCQXbZZnvu25dOEPDd+wvt0p5Qlg0EAJAZC9DqlTcGIkzvQEYZAF5BfF0ReFLOsUKoDIQOALAvAgUBQqj4DqROACgDAguiAhAMgKxgEO8Bgnzrme3tzgNfEdwCBfFSLADALSDuBHAuI6ny1nMy3ZQDgQX166VYzCcbAJXeemb7unNlQWBBZQPB83idq/rWczI9lQeBBZf9UizP87656m89J9MvNCCwAqPn20VgStZr8zzPTHPeCAbx+0czlTVR+9CBwErIjkHwPNPlYQeA9QstCKxAUEBEBQC2Y+hBgCKyYxBsLORRA4B1iwQIrIxMIBgAFYNBrP/75JECgQ3hJRAAAL98hk1g0D+Bx/rJyCMJAhsKQLz76nt2P92nejSQ9fQijzQIbCAAMZOf7sMqoOJP4LE+MnItQGDDTQeEjgCwbbQCgZV2RykBgMq/gchyy8y1BIENiv0DUlijgayHF7nWIHhhwKiMEY7/lhUVayushwFBYef4KZoBwU9rKzyXAUFh5/gpmgHBT2srPJcBQWHn+CmatHcfy8vLqaioiJqbm/3UxzEXZOBUUlJCOCorK7lqynxgYIAKCwunbNPV1UWYw7Kmf/K5rq5OjMV5ooHT0tJSGitR3/eusySk27dvW0VFRVZ+fr41MTEhYYbUhiQiq7OzUxznz5+3SktLrZKSEqu/v3/aAdB2uoSxMYdXycuxZiqTd1rYZt61a5dVW1srjqNHj8au1NXVWWVlZY4Dxrx06ZKo44aoQzsk5Cjv37/funHjhjU4OGhVVFQIB8BwjY2N3O0XeSLDVlZWWps2bRJth4eHraqqKquwsFDM09LSIuqrq6ut3NxcUdfb22uhHebkdoAKiUGAXnwN7ZEwVkNDg+iHHGUen8eDbjU1NWJ89LHLy31Qb7cbztHf6+Q5COPj40KhW7duWTgKCgoSygwHlpeXWy9fvrTOnj0bczwau0HYuHGj1dTUZA0MDIh2Bw8eFGP29PRYeXl5Vl9fX8I57IblBuw8lOEYOB0Jxs3JyYmtFva+hw8ftnAgwdGABInHgtOQAAiAQEJ76I42XOYx0IaBwfyAE4nnhFzFxcVCJvTHOSe0ZxC5zovccxCam5sdTgX1HR0dDlmvX78ujH7v3j1Rf/LkSUcfKG9fEXbv3h3rD2NduHDBamtrsy5evGjt27cv6arAho11/tmR9noA0NXVJQ782WDH2dugP/6ccDtcgyPR1t0OZYwJp7OD0R9lHG7H2mVDXzsEPC/qW1tbY5Da+3h17vldw6lTp8S+BZso3qydOHEitpcZGxujHTt20JkzZ2jFihWi/vnz57HriU6WLl3qqO7p6aFr165RW1sbDQ0N0dWrVx3XpyqMjIxQcXGxaHLs2DGxgezs7CQcw8PDCbtig1dRUSHaoB0SxkmWsNFESrbZzM3NTdaVIBM2jZwwBubs7e2lsrIyYVMen9t4kntFFMbp7u4WnxBQbz9A9N27d8VUW7duterr6x3T4pOyatWqWN2RI0ccKwJWDE4YC6tBKglt3QmfesyHhCUaciLhU4z2XLb3xTlvMO3t0BbXUMeJ+/EKwPVcRlv+04JrGJf3DjwWVhLsXRIl7G9Y/kTXZ1vn6e3j6dOnac+ePYJcO6UbNmygpqYm2rZtG42OjtKaNWsIt16c1q9fT42NjeJ4+vQp3bx5ky+JPCcnJ1auqqqi48ePi/LDhw/pwIED1N/fn/TT19HRIT69+BS1traK1YBv4QoKCujKlSviE9jS0kJcxm0m5qyvr6fq6mpRj3FQ39DQIMp9fX2xlQXjbd68mdrb26m0tDQma6ITrAZos3PnToIuWAF4hUJ7XEcdPv2QF2XIgTokrBZTrSiJ5kylLqOOrZJK6ynavHjxgmCc7du308KFzn9Ls3jxYnry5Ak9ePCA5s+fLxw3ODhIcCQO/KlYu3YtnTt3jpYvX05btmwRM8EYcOCyZctoyZIlog5L9KNHj+jy5cu0YMECOnToEK1cuTKpZAALyziMV1tbSzU1NbG2GP/OnTviwDWMff/+fSHD6tWrCX0hD+oBLspoh35ohxxwoC0gYCdmZWWJObCs2/88cHndunVirO7ubjGGWyb0x5iYA7BABoyP9ui7d+/emA5enZjnEbyyZMjH8XyzGHJ7aCu+AUFb1zsVNyA47aFtyYCgreudihsQnPbQtmRA0Nb1TsUNCE57aFsyIGjreqfiBgSnPbQtGRC0db1TcQOC0x7algwI2rreqbgBwWkPbUsGBG1d71TcgOC0h7YlA4K2rncqbkBw2kPbkgFBW9c7Ff8/Ph3r2kxitboAAAAASUVORK5CYII=;" parent="1" vertex="1">
          <mxGeometry x="-6398" y="-1895" width="84" height="83" as="geometry"/>
        </mxCell>
        <mxCell id="oC6a1WEsOzrQhsxOkKVa-55" value="" style="shape=image;verticalLabelPosition=bottom;labelBackgroundColor=#ffffff;verticalAlign=top;aspect=fixed;imageAspect=0;image=data:image/png,iVBORw0KGgoAAAANSUhEUgAAAGYAAACBCAYAAAAyns9YAAAPPElEQVR4Ae2de6hXxRbHx+iBFt3wWN7siFlcQY2kiNT+yEdUZFmQqXCj/rCHQuD9K/KPLhpX+kcoLkFphD0MDSOKzAILH2VejTRU9JJCp9TsHjwn0eoIdmlfPuNdm3322bP3zN4zv98+sgd+zex5rLVmfWetWTN7HxsSRVGkmlQ7DVxQO4kagbQGGmBquhAaYBpgaqqBmorVWEwDTE01UFOxGotpgKmpBmoqVmMxDTA11UBNxWospgGmphqoqViNxTTA1FQDNRWrsZgGmJpqoKZiNRbTAFNTDdRUrAtrKtcAsU6c+V3X/bv3jM5P9J17pv7KoRfpuiuHXaRGDL1QTegYNmD8YKuoNTAoHSAO9vapz4+ddtYtgI0YdqEGjvKccR3ONNo1YEgdP8Z471CvOvhznwbFt2IA6PbOy2sPUi2BwVL+trnLNyb96AlAt4++PHaF/Tq0+aGtwCT3h7QecF/Ldx5LVwd5FpDq5OraAgyA4K7YN56d0mncrFsJDogD0MJJI43yBFkVBqItBQZAPj96Wr13uDcWB2X8c+bY+DldAMBk/3R7iOfxHUPV36eMDkHammZLgBFAsBDK6cRmvGjSn9PV8fPKvf8pFZXFBEoU2m09wYEBCBQr5w+TjvJcGmP+sfNoIQ0T7Sr1RYumCu28sUGBcd0jcGmsVFPyBQ48cFccRDmQ9pz57wCWcoClgYMrALUyBQOmzN5g49vLgJMGYjDcDAQBpgwoshqLwLFxjYMRCJm/5N6BYYNnT6mSCATyXAfgLP/XsQGBBIBwFskbW0WuVo71fleW9M1lJwKweZeRAPDs1E59OyDWARiDwUXZ6sS7xVRxY2mhiyI1Cb0B53xL3i3Gp4JW7e3WlmFSvKnepwzQkgWANyCCI6eO35y/dASx1FpbDEpB+Xk3AyFA4HZCFF90/goln3eLIeb3mVAQIXLIKxJ4AMC2Y6ecD7GMxX37vgCtBAwHSFLITZcVOWF4mDeSKDV9d1dmUXGXJwfWMuOzxpQGRq+Uw725d1xZDF3qAIXoi9xXqmIdeTKwH/p0uaWBwfT5+VRacuK+QRGXU+YVdVIuU1no+3JppYARIbJA4TxR9YBJpONjgsiJqzLdapuUXLYel+ZDbviX+q4MS2HSppQFmKlvsp5xvkCBLmEtysqTNcnfR5lAwEdyBoZJikXwBUpWKrNqAAVrKzM2SwbqCEo4pLYy+Xqp5wwM1iIpWZY6cq5TXBKg8ErXJyjCvx3g+NjHnIEh1i9KKMPWnQkoVULuIvfRanDEoxTpKa/dCRjcWNpKTP6buL4oVQUF3nI3x+dOcq7K4ttqcEx6yZItq84JGCKcdEoDJe1FFuADFK7+xaejCD53qgs4RVYsejLlTsDwdWQ6ma752cjFnZFjQfLjuco1PZPGQrJWJeDkKYUF4/MgmNaHPFfdZ6x3aZSQZR1ZyhHhfH+jBS+bKxQJkU1f3rAwACfrZZvI7iNHXlmcrvSsLcZkGXkro8iduQjLJJOuq2gscnH5aUoojOsem73QRKOoPsv1F42Rdmtg8gDI8+vCqEouoJC7JCw8LygAHKwqFDiu8ibnZg1MHpM80JLMypTha9pPbOgxngtG0+IBHF4phAAny/XbyEwfqz2GyeUxyWuzFSSrH4D7OBMgP0FB3kcegCOfRgEWQOGK5bszXDnyQMs2ufRN07QD5v9/vZUeLM9s8r6TL1CScgEyCjbdMAAOfIkYsxLjUDZ0bBcj/QHaNVm7MhPhKmGviSb1NjcMeeNNbURseUGBCRSh5+r6bAEU+pJbAZP1CakQKJqI9HPNp3X+yXWIdX+Uxb5VJYXal0QmK2BMoTKrx2dILEKRhwJceOBi8iI26ZeXm85JyTEm3SX7ZJWtgMkaSJ3p2t/U37W+jG924QE4cqXjMk76Il+oBWQFDBPISqE+khBeIUJYoS151TkUeQyT7oS/KbcCxjTY96dKJj4h66uC31aLCe1SQiq+iHboxVVWd5UsxnSaLlKGbXtZN2BL30e/UDJaARN6VZkUVPYMYKKXVR+aR1ndWQGTNSHqXK8oTHSy6kNbo/CsyqcIWNfvH0QuK2DyiFe52hYhsnJAb0WqyofNP0QAYAVMXkhY5RxgUjx+u6rCTLSz6vPeeGb1T9dx0DQdNvN0l6aTfLYChgF50UXe3VOSmUu5ahjrwovFVdWlYTXpb9jydFYknzUweYrCz/pc4Uwo9F1UWjFF3wok+zPXrHdEWAevrEVXVW5GrP9wCXPPc1sIgzJ9pyK+vvmxKLjez9o3sCpASS5C0ye9yE1ElkXHRmZrYBCKVWVKRX8vaRpnU1/E24aGax9xQ7Lq86KvEIvS2pVhpiKs6yRN/W0PZ2kXYaLnsx7Z+AFIHijwpL3qTXVadmuLYSBv7pJmLMQArOhbLVa9vNehLJNmrMtnTvD38bpZZPed47pMEZoLLydgTC7FxpTlfXqWcK7gAKrL690sniHrmE/Vv4SzdmVMxOTOiq7OxTpMyqDdJSpi4gQa7GuUk4lnfiwWfu1Kablc5bD6GCNJlIgl7UqKFGD7Fk+fJ37us47uZO8hAsLF4UayPrRotYVlyZDUoU3ZyZUJwXQMz/6St0JcQ15ouew7IldR3or9CdmL9tsiOWl3cmVCMBmbI0geKIzJ+hhdaGXlrq4ti0ZWHXKnT+dZ/arUFXkPW9qlgHEx1aL9JU9QXJvvMBT3l1xYefxd21igPiIy+JYChoGceElyANMPGf8pOgNkDOlXFcJ6XBZWP2EKHnzSLQ/MuA4d9RS5MduNv2DO+joI62G/qpps3K8rD2j6tETnqCwpMFZT1SKS9IrKWA/ujU2c1VlFEWzQ0GPhyByq/LP1vj8TLhWVJRXI5PKsxnRbkKRRpgxPH9FPFu8swOgn8ySXV8byEpG9y2eqZDFJYU1CMcnBlrTiE1+ZzlGt/79olN5j2q3swQi4i84GLTBMkr3mfE3BgenpG/iPTftSZtk/1RgM1lZ5jylSckglEE0RPrucH5I35LKZcxaTi1g2dTZ0cmkvmmOI9qDAhARFlCGvu23ASd+ViXzkEjILXckFHMCjDB+pkz4h8qDAhBA4i6acbUwXnyje5t8HyKIt4NGGVbUCFHhVPsdkTSZZ99eNh5KPwcsoLnmRmGcNtsJAk8OsjVXa0izqFxyYKqu1SPhWtANK1beRZeQMDowIldx0pa7OeTusJKmPlgEDU6ynzu/qkbHdgAg4LQVGmNbVetrltkQvybwtwCCA7D2EsJTbmepiJUkdtA2YpBACkpxJkm0hy3UEROZbC2BEGHIsCFcX4h4MIOSUT0jt+6o+OY+q5doBIxMSK+KZF1jcuZVxeYABCJxD6gyEzFvy2gIjAqZzAYcrFHltLXWAkHyBNZiASM9z0AGTnsD5+hz82v98VVzoeTXAhNZwSfoNMCUVF3pYA0xoDZek3wBTUnGhhzXAhNZwSfpegJkxY4Z6/PHHS4qQP+zjjz9WK1asUDNnzlQ33HCDeu655/IHOLYi+9atWx1Hhe9e+dXyN998o44ePaoOHz6s/vjjD3XBBV6wjme+cuVKNWbMGPXqq6+qSy+9VAHUkCFDVBRFcZ8qhS1btlQZHm5sVDEtWLAgWrJkif698MILMbUtW7ZE06dPj5YtWxaNHj06uu2226IDBw7odurXrFkTzZs3L7riiiuiuXPnxuPShUsuuST64IMP+lUfP348fl69ejUI6d+KFSuiI0eO6DZ4vPPOO9Fjjz0Wvfzyy9ETTzwRj6FA+549ezRvZCUh3+TJk6NRo0ZFr7zyStwfOlk8tm/fHj300EO6DXpCJx5YocDKK53Onj2rhdq9e3fEb8yYMTEtAWbz5s26bunSpdGsWbN0mUk8+OCDurxjx45o4sSJ0WuvvRaPTRYAFrpvvPFG1NXVlWyKNmzYoMcK4Mgwe/Zs3QceixcvjjZt2hT19PRoOWVwd3d3NGPGDP3IokDWkydP6j6U4QNAJPoiXxYPxq5bt073W79+vQZbP3j4TyW/89Zbb6np06erm2++Wf/Gjh2rPvzwQ23euJvvvvtO4cNJjzzyiDp48GBs+pdddpkuT506VfH76quv4rZkYenSpeqll15Sn376qbr77rvVHXfcoZYtW6a7fPTRR7ruxIkTatu2ber06dNqw4YN8fBTp06pO++8U3V0dKhHH31UffLJJ7ptzZo1at68eXE/Cuwzd911l57Ptddeq3bu3KnbcaHwnTBhQtxfeDDfVatWqX379qm5c+cqn26x0h6zevVqdfHFF8fKR3KUeP/99+tJXHfddfFkrr76atXd3R0/MylJI0aMUPv375fHAfns2bMVPxIATp48WT311FOqr69P7z8A/uuvv6qzZ8+q5cuXx+NRsCSAePvtt9U999yjkPuLL76QJp0fOXJEjR8/vl8dD+yfo0aN0sr/+uuv1U8//RTzWLx4sV4ITz/9tDp58qSaNWtWvGgGEHKsKA3Mrl271I4dOwasEizkwIEDWozvv/8+Fufbb79V48aNi59/+OGHuEy/SZMmxc9SwDIYt27dOqlSt956q7rmmmvUpk2b1PXXX682btyotm/fHrebCvfee6+677771IsvvqjHDR8+XHf9/fdzb0+xrPnz58fD4c1cAAVrwnJvvPHGuJ0Cwc6iRYv0D9AeeOCB9gPz5ptvqieffFKbflJaFIB5z5kzR7FieWZFvf/++/2A+e233/SwX375RSv39ddfT5LR5YULF2pXRIjc2dmphg4dqqO/H3/8UT388MPaAqH7zDPPqFtuuUV99tlnatiwYVr5A4gppeVdv369zqX9zJlz/5dCrAVFAwhy4xpvuukmrXThgcvdu3ev6unp0Z6BeTEOd97V1aVdodCtmpfaY1DqVVdd1W+CIsiSJUuUrEbqWNUotre3V6EUSXLu2b17t64HyHTC/X355ZfaSvbs2aMOHTqkqJNQeeTIkWrt2rXapbFvYE1YBGnatGlpclpe5MByJE2ZMkWKWg7a3333XW09WECSB4uHxYG7Jj3//PM6x32yULEqb8lDAJFJYuvWrcYohYhp7dq1meOaynMaKGUxNqtCVrWp7/Hjx01NTX0rvl1utFxOA8Esppw4zSjRQAOMaKJmeQNMzQARcRpgRBM1yxtgagaIiNMAI5qoWd4AUzNARJwGGNFEzfIGmJoBIuI0wIgmapY3wNQMEBHnfwCp2km90M+8AAAAAElFTkSuQmCC;" parent="1" vertex="1">
          <mxGeometry x="-5835.5" y="-1894.5" width="69" height="87" as="geometry"/>
        </mxCell>
        <mxCell id="oC6a1WEsOzrQhsxOkKVa-56" value="DevRG" style="rounded=1;whiteSpace=wrap;html=1;" parent="1" vertex="1">
          <mxGeometry x="-5701.5" y="-1901.5" width="674" height="99" as="geometry"/>
        </mxCell>
        <mxCell id="oC6a1WEsOzrQhsxOkKVa-57" value="" style="edgeStyle=orthogonalEdgeStyle;rounded=0;orthogonalLoop=1;jettySize=auto;html=1;startSize=9;endSize=13;" parent="1" edge="1">
          <mxGeometry relative="1" as="geometry">
            <mxPoint x="-5450.333333333334" y="-1853.3333333333333" as="sourcePoint"/>
            <mxPoint x="-5370.333333333334" y="-1853.3333333333333" as="targetPoint"/>
          </mxGeometry>
        </mxCell>
        <mxCell id="oC6a1WEsOzrQhsxOkKVa-58" value="" style="edgeStyle=orthogonalEdgeStyle;rounded=0;orthogonalLoop=1;jettySize=auto;html=1;startSize=9;endSize=13;" parent="1" source="oC6a1WEsOzrQhsxOkKVa-59" edge="1">
          <mxGeometry relative="1" as="geometry">
            <mxPoint x="-5137.166666666666" y="-1857.1666666666667" as="targetPoint"/>
            <Array as="points">
              <mxPoint x="-5221.5" y="-1857.5"/>
              <mxPoint x="-5221.5" y="-1857.5"/>
            </Array>
          </mxGeometry>
        </mxCell>
        <mxCell id="oC6a1WEsOzrQhsxOkKVa-59" value="" style="shape=image;verticalLabelPosition=bottom;labelBackgroundColor=#ffffff;verticalAlign=top;aspect=fixed;imageAspect=0;image=data:image/png,iVBORw0KGgoAAAANSUhEUgAAAIkAAACFCAYAAABv5tuyAAAS4klEQVR4Ae1dCXAUVRr+URBIlisYYBMh3CqHch+iAqKULFCAhFgLKgoKrGvcQourChbQrYKiCigrWCtHKSoQNioK6IIuS4BFOQKyyGEV7JIAIUBCwAWSsMA6W9/Df+jp6Z4+Z7pneK+q5/W7/vfe/775//8d3V0tEAgESDrJgQgcuCtCmkySHBAckCCRQDDkgASJIYtkBgkSiQFDDkiQGLJIZpAgkRgw5IAEiSGLZAYJEokBQw5IkBiySGaQIJEYMOSABIkhi2QGCRKJAUMOSJAYskhmkCCRGDDkgASJIYtkBgkSiQFDDkiQGLJIZpAgkRgw5IAEiSGLZAZfgqTqRgldrNgvR8cnHPAnSK6fpYKiCRIoEiT6HLhYsU8kQqJI5z0HfClJLlXeUjWXpMrxHiFE5DuQKO2RMz9t9AWT7vRG+A4kaoNVHb7TB8yL/lfz0xN8kCI7jg0N4UPtGmn0eFspUUKYEuOAbyQJAHL4zJyw7iMeMx3pvOOALySJAELhRIKv51KSu1L35sv0kmV8FDngKUgAijOXNtK/y8wNPlRPWv0h1LrRxCiyRJJWcyCmIAEoYIhiasv36gaZDUOyNEjqKrJL0Jjlmr181e0Vs1fKitQwqgFgwwXpUvueNEqvH2rwGpWX6eY5EFNJws1i28MOaFjlpCR3I0iTeHJFRUXE1/bt24P3yj40b95cBPv160d9+/Yl+F47T0Ci7LRZu4TB4ZZqKau6QWWVN+hC1U3RnKPllcJHPFy7lCThpybVoHtrV6d2DW+FRaSJH4Bh27ZtxGDAvR0H0Lz44os0e/ZsO8VdKeM5SLgXWF3VmgIj3S2AAAA7Tl+moxcr6cfyKq7atJ9auwY9fl9derxpXcK92gEYH374oQCHXVCoaXIYEiU/P5+DMfV9AxL0+l+lSzVnOh3S59i2OZwCQ280GDBd77kSNWCo6/YKKDE1XNWdVoehSrC5p1yKh0FqxyhlcHx2vFxdjaNwUo27KLn63QQfKqosqRYdvVAppIdVwmx/cDlIokgO0mnlypVC/UTK53aaryQJOgeA8Aor1AykiFUDFQB57+A5WyolEoMfTKmta5uUnjlFX723kL7KW61JAoBgY5TvtTIyUKC25swJX4GGffLBBx9oFY1anO9Agp5i/wYGrdVV1mhJD7Qpo25N6tb4V4YDUXpoL72a+RtiIGCGgoG14yA1XnrppbCisX5hpi9BAgMWhmyr1AmmV1cBkD/tKib4bjuolr7p9YSKMUMbUiWzZwfCzMipq1atWggJgK+wsDAkLtoB32zwKTtaq8avRRBrIWZcNAGC+tkGMdMW5GmU3ox2FF8WU2yzZbTyserRSotlnC9Bwgtlte+5BZZIDIk2QFA3JIkdt+/8VUdA0QIJJEmsna9mN9x52CIpycabftEACACB6W1S9dvAsKs2Km/8TADKoBYNuGuWfBivajd27Fh1VNTDvrRJzPTabYAAGA82rK25SGamPZHyAHhWgQIp0qJFixCyXtgjaMDtv0tIc/wf+OxYuWtGKqa2WEnVWkV1gxOQKFjpteK0Vmy9UDVoc1yCBItYMAzdcJjaWt2XsVMvJB/2isw4SBH11BcA8Wr/Ju5AAmYvPXjeDK8N80ANmFn7MCRkMgPsEzNODRCUwVqLVzvCcQcSiG0AxQ0XLfWi1zaonZOX/6uXLOLnzp0btsTvpRRBo+IKJACHm3sxUDWxdvvO6UsTqBn1UjwA4tXuL/MmrkBi1fjjTur5WCTzwmkBBQDp379/WHNgh3hlsHJj4gokOAeSCE6tcthQha90sEPs7vso6Ti9jxuQYEZj56BQJAa5ZdtEqkMvjWc6DBD1lBfSI9a7vXptjRuQuA0QMMRLkECaxANAwKe4AUk0VA0GyiugbPr+R2GDqCUIBsXL6a6WNPHl3o26oRjIC5U3xZkOdZoyjHyYZlpxWLuwcgzACm29vEf2fktLpr9GZWdOh2XB7MarRbOwxvwSER8gqbxhel+FN9XMSgjk337mP2JRLdrrJjhncuXkcdqwZAFdu/xT2JhAgvgNIGhkXGzwYQkehquVQYSEUM8iwkZFFQH699p4fEJFRjNYdfkSrX57CjVr0iiYfuXKFTp27Ji43nzzTV8CBI2NC5BgMw//eKvnOsTBH5dWZ4Mja+Em6ds8urv8NAEMX375pfCVxdu2bUt16tShCRMmiEuZ5qf7uDBci04WWQYImIydXa9dSUkJ5ebmhgEE7YIUGTp0qK8Bgnb6HiTYy/jr37baHmsvlt7R2IrzZ2jHpg1Cgmg1PrlROmVlT/WtilG22dcgwWlx9V6GsvF+vT+0Joc2jH+Cjv+zQLOJAMiAeR9T1mtTNdP9Funb2Q0vNIFhFaVnbPNNeQzRNhGTBSE9Tvx9HR1es0S3RIfRr1HH0dki3e6xSF3iUUrwJUgAEOXRvdLiU7a7X3nT2rqJmYpgQGfUqSkemeAZF6a3s/84VnPtAzRT05tS/xG/FSqG68CJuHhwvgMJAKLeDYUksTO7wQDgUBEulK+4+T9xOuzHi9YfFufBBCjUBnFezgLKW7KAs4T57Xv0od/PzxGPWoQlxkGEr0DCAIGvdElXSsXyeUYN++c/8O/HhUFuXreWOMVudsGN24LySoBAemxbt1YXIFrSg2kBtBT63BUn+c73DUgADBzbUwOED92su+Ae73iwra6jKI86CvXy/LCI6mXux+t1pQcD1r1eRY+SL2Y3DBD1ZhcDBD6Y6rbDIxRmnXJQoV5efaKLLkAwa/nz1gO6AEGd8WK0oq2eSxIAhF/8ohwwPk8BHw4n2vkMhjKfk3uoHlxm1A5OsTlRL+p2xovRinZ7DpJIr1hQng6HLbBoX4nhTrB6MIzCWGwzAxIAJHfG87rSw6pxKiWJ0cj8kq63WKa3GxoNlWPU1MItn4u1D7xSQstFMk618iMungCC9nq2wQc1o1wLYYZCvei9WgE7wZsLf3JVmkCKqB/0wqIYQIGFMT1wiMFOb0qRjFPuk9JHfZCKsXggTFmvk3vP1I3aSEUn2A7R6xAY6+YjFahHTEV/qdDMiim3DcYp9l6sOthA8QQQ9M8TSaInRXDw1+h0OP6JHx8pc02aQIqgPUbL6QwGO+qFy0JdWn1wnMt66XsiSbCzq3YAhxFAUAb/RIhrqweK1PUhXPDtP2jt4nkRVQqXcwIO0IDE8mpHmvtg14+5JNGSIpHsEL2O4cV5AIxVh1kKzphipRS+kXMKDtDnLYFJDzcxqs6X6TGXJFovZlFOdc1yCdIEJ9bM6nde48j/PFd3GqusG9v5g7PG2LI7lHRwjz2jkW0bqqPjJhxzkGgZrHbe3iPA0ZbEzCSSRGFwRNqAU44WwNHiyRFiO39Qc3tvKFLS49lMpDYq8/vxPuYggbpROqgaO5IENFiKLNof/jElTF1xrqPw+13K6nTvAQ6c8wBA3HJQM/E23dXqe0xBAoCoQaLVKCtxAMobXdPoT7uLxZFBM+sbSvqRwAEpYGfnmW2QRAAIeBVzw1X9XlI0ws7LaxlsUF/4EkTB0eOmDFEGCMDRa/J8atSxB0dp+iPbWLMlABA8bfh8u9SgpNMkHEeRvgAJ1A3WSKB6tJwaEAhr2TZaZdVxLQaMoJZPPmMIDi7HU24O6/kAR9Hla+LTKDN732dr5qVH2+v4mIMEZ0awZ6PlABK+ON0JIJgGfKvgUJbFIhi+f6O3ziEAcuWayGN1FoOtBratlHX66T7mIIEEUB9PjBZDALhqrTpbkhxGbVFvMkLS4DCSVXCgHtg8f9haSGsGtzWq1tN090/yGHQHqiU/yh/3YfWFjcI9G/9Cv3tmkEGrzCdDauDC+RKA441uabYAghr5fAykiZ9dzCUJMwNqBKrHrm3BdCAteArN36xDnJbDYOA9J3Y3CSE1cJoN6gEzFycOUoQ/twKas3o1dUIuqmU9Awn3CmDBXo6enYJ8POhKMCjBwbSs+AwYlMGA4YIDiACGe5OqC5/tBTcfJFcChNsM0Pl12d5zkDCTABa+Tp48SRkZGSLJKRiYvh98gENIMp23WfNMyo59E83++QYk0eykH2i/vfu0eBEPS6xIbWK15hfJIkESabSikKalargagGPiw419NyWWIOERirGPw04wXNlhZddvaobbFvMpMFd8p/swVPm5H/h+BQjGSYLEQ7TyvhD7HjYlYtUSJBHZE91ETK9hh/A0O7q12acuQWKfd66U9LOa4Q5Kw5U5IX1dDkhJossamcAckCBhTkhflwMSJLqskQnMAQkS5oT0dTkgQaLLGpnAHIjqaXmcQGvVqhWtWLGC64u5/80339D+/fsJPs6bdOrUiYYPHx7zdlitUHl6r1mzZtS7d29x/qZmzVvvjcP7bfft20f169enlJQUatiwIY0ePZratGljtSrD/FGTJAcOHKDTp0/T5s2b6eef3X9NpmHPiOiTTz6hF154gTp27ChOwzVu3FicW5k4caKZ4p7mwWEsfLEC10MPPUTr16+np59+mk6cOBFsV0VFBb3yyis0cuRI8cTBI488QhcvXgymu3YTiJIbN25cYPr06eJatGhRsJY5c+YE+vXrF3Ll5+cHNm3aJOI4I+KQDw4+wpMnTw7s3bs3UFxcHBg+fHgAT2PgysnJ4WJBv6SkRKRt3LgxGIcbxK9atSpQXl4u4rOysoJ00DZ2K1euDHTq1EnUPXToUI4WYeRDvVOmTBHx2dnZYe3Iy8sTcXXr1hX+qVOnRN6dO3cGMjMzRRz3K0hccXPrSRNFRCAQGDVqVGD8+PEicvbs2UH+cC7Qe/fddznomg8Euu6uX78umLB///4AroyMDM06MLj9+/cPVFVVBdauXRvSaTVIMFDLly8PFBUViXzTpk0TNAsKCgKpqamBgwcPhtQBcKSnp4fEqQNgtBIYAwcODKBcaWlpoHHjxiI7QIXBAWjgMHg8EM8995xIAyB2794daNKkSaCyslIAEeA4cuSIKLNixYpg30ArNzdXxKMc/xFEhOJHCyTgSfv27UUuBgnicKEfffr0EW1XkHHlNirq5qOPPhLnTrt06UK48EajDRs2hEi/Xbt20cyZM2nJkiVUq1Ytunw58mflmzRpQi+//LI4sQZR/Oijjwp1cv78eRo1ahTt2LEjhD70tZF+/vTTT+n+++8PlkM7v/jiC0pNTaUbN27Q0qVLhRjPy8sj5fPKEO9wsLfKy8tF/T179qQHHniA9uzZQ19//bWwf9q1ayfyDRw4MHiWF3WA7g8//CDKWTkUDrWjfgsUjn7iAk3YXEeOHAn2x62bqIDk/fffF+2D8cUGGMDArrKyksaMGUOrVq0iZiS+CRPJ4dswSldQUEA7d+4kDGBZWVkYSHAeVo9h165dE6RwTLJBg9sPheP+7NmzIg2fH4HLzs6mrKwsqqq6/RZp2DbsHnvsMb4N+qWlpdS6detgGKBj9/rrr9Ozzz5LU6ZMoR49elj6wMKmTZtCQA2aABkufDLl0KFDwnbhutzyXZ/d4J/03XffhT02AbBg0Nq3by9eVoMX1gwZMiTYD0gS5UCAjtLVq1dPGaQOHTqIf2JIpCIAkGCgli1bFvI9GfzL8ZWqLVu2CIPw1Knb762HoY32wWHGAAkAI3fhwoWEwV2+fLmiBv1bSDBIJHZKYxNG/KRJk8QFaTds2DBTQDl69CjNmzePMjMzmWyYDwmnlthhmWxEuA4SvH8EX4Lik+3cpsGDBwsm41959epVGjBgQFAEI8+gQYMoJydHXOfOnRPTOy4LXwkSAOydd94RyZAG+FdCDPOpei43efJk0ZZLly4JUEHybN26Vag4qC+oEIhpDCpAunr1atq799ZbFtHet956S/xzDx8+LEQ50zXyR4wYQfPnzxfqEFIEX80aP368KDZt2jRBE/xBm9USUkmbP+Ny8OBBwSuoRvXMjPNAmmImOWvWLCUJV+7vnsO1uEAOUzJ0CPP1tLS0EIqY60Mk4l+FT4qBQcXFxYRBxgX189RTTxHsBOh21vtgJk7Rg0EtW7YUNLHOAQkAaYB//IwZM6hbt24h9SEAqYBpI/6Fa9asEQM9depU6ty5s8jbtWtXoV4AbIBk8eLF1KtXL5GWnp5Ou3fvpnXr1on2Kl/hxX8AfmaIw2gngIqrT58+wlbAUgDCixYtEnRho4FHULVIgz3VvXt3kab3A1tk3LhxtGDBAtEW5EPdyj9FcnKyaD+3RY+WnXh5VMAO1+6wMlExXO8wHiZ8dyVIEn6InXdQgsQ5DxOeggRJwg+x8w5KkDjnYcJTkCBJ+CF23kEJEuc8THgKEiQJP8TOOyhB4pyHCU9BgiThh9h5ByVInPMw4SlIkCT8EDvvoASJcx4mPAUJkoQfYucdlCBxzsOEpyBBkvBD7LyDEiTOeZjwFCRIEn6InXdQgsQ5DxOeggRJwg+x8w5KkDjnYcJTkCBJ+CF23kEJEuc8THgK/wcb6AbQjq218wAAAABJRU5ErkJggg==;" parent="1" vertex="1">
          <mxGeometry x="-5369" y="-1897" width="88" height="85" as="geometry"/>
        </mxCell>
        <mxCell id="oC6a1WEsOzrQhsxOkKVa-60" value="" style="shape=image;verticalLabelPosition=bottom;labelBackgroundColor=#ffffff;verticalAlign=top;aspect=fixed;imageAspect=0;image=data:image/png,iVBORw0KGgoAAAANSUhEUgAAAG4AAABtCAYAAABAz1RVAAAKfklEQVR4Ae1dXWgUSxY+cXddue7eia6Kgb0k3uAfYU3Eh7DZh8QHxfigeVFEH6Lkgr5F33RfEvFFYTEKCovLJXFBEB+MbrjgBSHxD4QIUR80/lyi5mq8a8zESTKZn+7p5Sut2e6enpmemeq5/VMHOtVVderUqfPVOV09Xemu0DRNI0mes8ACz2ksFWYWkMB5dCJI4CRwHrWAR9WWHieB86gFPKq29DgJnEct4FG1pcd5FLjfFqr37du3LZt89bs/0J++WmlZZy6cT87SZPS9oXj16tW0dOlSQ1mhmampKXrx4oWhWS69xj+9NPD+PrSU/vjnbw1l+oyqESXxJw/9d+SOJUdDQwOtXGnPRpYCdIUFA3fnzh16+vSpTsTn029CtdRQ9beMcquC8U8/0cOJe4aqffv2UWNjo6Gs0Mzc3BxduHDB0CyXXgOj/zbwArQ1uw4ZynhG1TSaTaQomcoP3PA//0Xx8CRvmk73799PBw4cSOdLOZGh0qb14opmCzSb4kpmK9jjsvWoKilKxpLZqg3lqqIa8jxT6u/dVu0L0UvRiOJqiquTThOqRp/i1jqnmcp8Igw4gDb9y4wt9aPqfAZfKpUiVS3NOFbtC9FLTWn0IaoYdEOI/DivEFK7pNgIp3ZlZeOToTKbZb6UzyTUgkDLI05YtQQuhykTaormlczQmaNJ2aokcFlMjdA47bLrml5VCZzeGrpzt4ZIrqIEjltClyI8ujVEcjUlcNwSX9LPIdK4sjSxuCIrgTPBMB13P2hQWdh9nGn8nsxGE0laYOO3SDcMTnrcFxQURaGpj1NuwMSWDhI4ImKgTXkHNCArgSOieDzODltT3SVMgQfOi94WeI/zKmiBBw4PXhEmvUjCbgfi2jz9nHxuywaR1McMvpcvXxK2HoimbHopqkKRSMTQnRKZpMi9/xjKismonzLHV4ycXG2EAQcwrADJ1bm+bnh4WJ8Vdm6lV7YQCYPP3BsQ1reTggK5OPFyiOSTIXDA4ZpmDpHcGF5KAwVcthDpJcC4rsKucdjaVvXXLVyuI2kiEqZXP14xyMZ+zG3bthnKsmWSyST7lSRbvajyc+fO0YcPH0SJs5QjDLiFX2Mzaa1lJ6IKAZyZsIkW4OUj7ADDhiS/UGBCpZ9Aw+QT5nHYjzgVc/ZZVspiDwg8yWpbnt6zAJrVnks9j9fOhQGHPYnRpLOhSE1m7rsEILlAAWh+8zZMMl+HSgDqR9B8D5xfQfM1cAAtVwj12jXNrK8vQ6WfQyQH0HfABQE0X4ZKAOfnEOlLjwuKt/nK44IEmu+AC0KI9FWoDJq3+cbj/HyjzT3MnHr+diAWiwViFekr4LANAftHgkie9Tg/bUMoZuIJe6yTmBij8A/fF6NDUW2w4QfgPXnyhE6cOFGUDKcaOb1tAXoLA06dnSYc5SB9iISRymGocoyrkD48FyqDHiI5uJ4DjodIPoCgpp4CDivIoK4izRNU2DUu1+sFzZ0Wk0+pKZr5GCX6xn7rS4/OGphDq9bTX777u6HMiczwP45YvvZQZF+e8bj5iDf/HUokWHpZngAuEUuSYrHDSz+QoJ0LC5XJmEJTb8XfDuB9k9O/zArBJaakaHzGec8tx2sPhQGHl4eqC8Tuq8R1bTY8T9leTFoMmuUwajF6FdrG1aEyGVcIh6RMC7gWOO5tmSrLEljAlcBJ0PJPTlcCF5tLyBCZBzvXAQdvmy/Dyi+PXVxf7SrgZIi0P19cBZwMkR4EDst+GSI9BpwMkfYB45yuCJXRSJwAniT7FvjVgUOIjEcT9jWWnMwCBQO3bNkyYaYLWoisqqoSZruCgRPWMxEFLUSK+ugfMCj46cD69esJH/8zE14vGNei5uKs+dhcnGbnMr9qlbWBgAq81rAcryS0UhWg4YuNoqhCK+JfXA4fPkyTk5lfJLSrFHZqTUxM2GX3BR9AO3vWuJWilIEVFSqbmppK6dORF4qWpJDDjeFtoj6xyVUtCrjdu3cTQmYx5Id3RRY6brwkTmSYRP9FAYeGHR0dBYMXxM2sIj9oq58wRV3j9AKuXr1KOPIRB82rL6/ONz5zPcIjPE10iOT9lAwcBGHvPlaauQBEiHTiZdl8IG5JOWCtra3CvvltNTYhwOkF83/AMK86g+Bpoq9jeruaz4UDZ+5A5p2xQNGLE2fUkVLtWkACZ9dSLuOTwLkMELvqSODsWsplfBI4lwFiV52Cnw5kE7xlyxaqrKykiooKxoKbzx07dhCe3w0NDdHx48dpcHAwW3NWjrZ2fvOenp5m8h4+fMjaYRne2dlJNTU1LI/yci7Ncw7KoUphwN28edMADIB69uwZnTp1Srjqmzdvpp07d1J/fz+T3dfXRxs3bqRw+PN3CXBuZwIIV6ycAvFYRwQRwVb/p6GhIW379u2sYHBwUGtpaUlX7tq1SwM/ju7u7nQ58leuXNGamppYHc6tCHxjY2OGKvQBQj+o5/2NjIxobW1tWkNDAytDHoS0t7eX1fX09LAy6AI+HHq9uAzIRJvOzk7WHo36+/uZXLRBP+FwmMly+o/R2iX0BmPBePzAII8dO8Yk6oHr6urScHDaunWrNjAwwLKQcfr06XQb5K2ovb2dGbevr88SQH27mpoaZmzIAQCVlZUG+TA8CDo2Nzezcxi/vr6egYICgMLBRQoZ4MfkCYVCaRAxLuhWDrK2TBE9w1gAC0drayvzNsxOkB64uro67f79++keDh48qHV0dLA8ZIyOjqbramtrtXfv3qXz+hPIhpFgYBiSGxZ9ceBwXl1drW/G+FGOgwPFGQAYIgUOjINPMC6P8yGP9ugTfLwNUjMvbyM6FXaNQ3g3Lz5WrFhBbW1thsj/+vVrWrt2bbpsyZIl9OjRo3ReX4eFzdu3b8lqkw0el+AAYTHS0tLCjrSgLyd8wcLLsYCyomvXrhGe7ENf8IyNjVFzczNhIZSNUIdrqX7cXV1d2diFlgsFzqzZ4sWL6c2bN4biDRs20K1bt9jiAhXj4+NUV1eX5nn+/DmtWbOG5V+9ekXg1xNAwioVRuaEFeSqVasyjAzQ9JMC/Jg4AMYMCBY4kMnlXr9+nYnnQIPf3I7XdXd3c1XKlgoFTj+Ax48f0/Lly5nhYWhO7e3t7N1boVCIfYDv0qVL9ODBA15Nly9fpr1799Ldu3fZrcTChQvTdTgBGGfOnGGAcI+Dt2DmA0AOCAwPj6mvr2fPxMAL0KurqxmfXifIBQiYUFiRog7yADLkYQV75MgR5uG9vb1MJtpAJsaMvSToG+CjHVKn6TfdemsL7K2xsZHOnz/PJMJzQAhnmzZtYhuFLl68yIDr6ekh8HLCwEdGRmhgYIAZAODradGiRcxgeE8lDDw6OpoGE8bnB/pct24d433//j3jQ9uTJ08SUhB4+f0edANIN27cYOHy6NGjrA1k7Nmzh7gMeCRucVCPZ2+HDh1iemBSgBfyy0HysY4NK2Nuw9O51+I6yCejjeaOsEjgbJgV3gRPQ+hEiEco5J5qo7kjLBI4R8zqvFD5I7PzNnakBwmcI2Z1XqgEznkbO9KDBM4RszovVALnvI0d6UEC54hZnRcqgXPexo708D8akn4zteYHXAAAAABJRU5ErkJggg==;" parent="1" vertex="1">
          <mxGeometry x="-5535.5" y="-1899.5" width="88" height="88" as="geometry"/>
        </mxCell>
        <mxCell id="oC6a1WEsOzrQhsxOkKVa-61" value="" style="edgeStyle=orthogonalEdgeStyle;rounded=0;orthogonalLoop=1;jettySize=auto;html=1;startSize=9;endSize=13;" parent="1" source="oC6a1WEsOzrQhsxOkKVa-62" target="oC6a1WEsOzrQhsxOkKVa-60" edge="1">
          <mxGeometry relative="1" as="geometry"/>
        </mxCell>
        <mxCell id="oC6a1WEsOzrQhsxOkKVa-62" value="" style="shape=image;verticalLabelPosition=bottom;labelBackgroundColor=#ffffff;verticalAlign=top;aspect=fixed;imageAspect=0;image=data:image/png,iVBORw0KGgoAAAANSUhEUgAAAIIAAACBCAYAAAAMl2JTAAAMv0lEQVR4Ae2db0hWWR7Hf2qlO9joxDgvckvJpaJhV2e23XoxoBJB0UQ2US/qhRZbG8GgvYiMnSVld9leZWEMbEoa9CIkNqWW3gRaREhW5lLQiyWtsYgxRmcyK0vv8j3N73nuvfM8+mj33HvuPefA5dxz7vnz+/N5juf+nnsf0yzLssgk7S2Qrr0FjAGEBQwIBgQDgmEgbgGzIsRtofWZAUFr98eVNyDEbaH1mQFBa/fHlTcgxG2h9ZkBQWv3x5U3IMRtofWZAUFr98eVNyDEbaH1mQFBa/fHldcWhMlnT+jNtQv0uv1fcWtofJam49fQAGC8/SQBBqT0jxfSvIo9NPeLjdqioBUIcPyr5jqauH8rocMBRNaf6ihj+e8TXo9ypRYgTAeA28E6AhFpEAAA/gTgT8FsElYGrBAAI+opkiAAAN4HeOFA3j9EGYhIgeA1AG6IAERmxZ/d1ZEoRwIE2QC4PR1FIEINgt8A2IHAn4k5X3wZmRUilCAwAG+vXYzFAuxO8vM8KkCEDgTeBAIGlVLYgQgNCAAAR7JgkCpQAAi+y1BFplTkUB4EfPKnigamomQQbQBEmKKUyoIQVgDc0IUlKKUcCLwRREQwSkl1IJQBIaoAuGFWNQYROAi6AKA6EIGBoCsAdiBUuuX0HQQDgB2Fd+cqAOEbCAAAMQD7k0G/NIneNUEC4RsIP/7zr0T//Q+lZ6bp7e1ptJ98bRH9bgPlHPrbNC29vTzH2+GSj/bmx0kavT1Ocz9Mp+zfzDFAuEwFAF59P0EvBycou2DSdVV+0TcQWJU3P03S8O1x+tWvM+iDRb5Pz2Iok9sBCFKowDwB8nHoCoQqADB8gYHAAgCG10OTlJmXrsUKoRoA7IfAQYAgME7UgWAAAD3OVUtKgMBGiSIQ0An7orHvJpQEgG2vFAgslB2IDxZlUGZeBl8KVf56aEJ5ANigSoLAwgGI0f+9FcbELSduPcOQWG6sBGFJSoPARoRhf7r3RsQeVAYijACwjUMBAgvLQKgWlIJc2APgT0FYU6hAYCPbg1JZn2QEFqUEABwNZNnCmocSBDZ2UEGpKAHAtvTtS6e3jx/T6L87aOTEtzy357nsKKVsAObkL6TszRWU+/U+z20z3YC+gcCCyAYC3256HaX0C4DsrzbRnPx8NpWvue8gsHZhAIIBkBkNzN68SawAQQHA/ggMBBYAQIw0fkuj5zu4ytN8NisEAJAdDQQA2V9VUNYf/+CpvrMdLHAQWHAA8az2G3p1o4erPM0BRCpRStnRQOwDPj7yD2UAYCMrAwILBBCe1f6F3j6W824jgEgUlMIqgCimrGggAMAmEJtBFZNyILCR/AIiIzNNOgBB3QmwLVPJlY0jZIw/pY8+z6TRtAzxFXUqysykDVYAhK1lJd6bZH+WSfM+WyRrGs/GVW5FwNPOiV56HfvurRQgPLPkzwMxAO7H8FR/KVYZEJIBYHcU384hoqhaSgaAW05VgQgcBAAw05/AUwkIBmCm33mo9lJsYCAAAP71E/enJtVykEAAAHwLiltSnM828Y9qYKUIMvkOghcAuA0GIPz8GhhPTL0vAG4dgn5L2jcQZADgNiaAkBkLAACZn6RLfVIqKCB8A+GHw9/Q5M2Lvjx/6DUQWPoTBaHcIHpRRmQzfeWXtKD+714Ml/IYvsUR2DlYwmUbFY778NO5IkqIFQJzzyZhnFTC0rMZ292H7YPIZvZvZyeve8yZlH0DgYWCwvz8Yc6nc99ro8VjJsuxmfvo83kzBgIAeP1VdjIZ7QAka+NHve8gsFIwAN6B9OP5QwZiuqCU3wD4ucFluyfLAwOBBfLz+UNE+3C4gfAbABWfcwwcBAbCz+cPAQMCQHAIkjsczDJ5mWMFVBEA1lEZEFggv4B4txGUr77qALDd5VuCZ5phDiDC/JZ0WABgtygLAgSEMcMGBAMg8zlHdp6XudIgsKJhAUL2Y25sDxl5KEBgxe1A+BXo4bmnygHA6+8npT3mNtXcXl0LFQisNIBQ4S1plkPWc46srx95KEFgw8ARiFL6EZTiOZFjXpWCQXbZZnvu25dOEPDd+wvt0p5Qlg0EAJAZC9DqlTcGIkzvQEYZAF5BfF0ReFLOsUKoDIQOALAvAgUBQqj4DqROACgDAguiAhAMgKxgEO8Bgnzrme3tzgNfEdwCBfFSLADALSDuBHAuI6ny1nMy3ZQDgQX166VYzCcbAJXeemb7unNlQWBBZQPB83idq/rWczI9lQeBBZf9UizP87656m89J9MvNCCwAqPn20VgStZr8zzPTHPeCAbx+0czlTVR+9CBwErIjkHwPNPlYQeA9QstCKxAUEBEBQC2Y+hBgCKyYxBsLORRA4B1iwQIrIxMIBgAFYNBrP/75JECgQ3hJRAAAL98hk1g0D+Bx/rJyCMJAhsKQLz76nt2P92nejSQ9fQijzQIbCAAMZOf7sMqoOJP4LE+MnItQGDDTQeEjgCwbbQCgZV2RykBgMq/gchyy8y1BIENiv0DUlijgayHF7nWIHhhwKiMEY7/lhUVayushwFBYef4KZoBwU9rKzyXAUFh5/gpmgHBT2srPJcBQWHn+CmatHcfy8vLqaioiJqbm/3UxzEXZOBUUlJCOCorK7lqynxgYIAKCwunbNPV1UWYw7Kmf/K5rq5OjMV5ooHT0tJSGitR3/eusySk27dvW0VFRVZ+fr41MTEhYYbUhiQiq7OzUxznz5+3SktLrZKSEqu/v3/aAdB2uoSxMYdXycuxZiqTd1rYZt61a5dVW1srjqNHj8au1NXVWWVlZY4Dxrx06ZKo44aoQzsk5Cjv37/funHjhjU4OGhVVFQIB8BwjY2N3O0XeSLDVlZWWps2bRJth4eHraqqKquwsFDM09LSIuqrq6ut3NxcUdfb22uhHebkdoAKiUGAXnwN7ZEwVkNDg+iHHGUen8eDbjU1NWJ89LHLy31Qb7cbztHf6+Q5COPj40KhW7duWTgKCgoSygwHlpeXWy9fvrTOnj0bczwau0HYuHGj1dTUZA0MDIh2Bw8eFGP29PRYeXl5Vl9fX8I57IblBuw8lOEYOB0Jxs3JyYmtFva+hw8ftnAgwdGABInHgtOQAAiAQEJ76I42XOYx0IaBwfyAE4nnhFzFxcVCJvTHOSe0ZxC5zovccxCam5sdTgX1HR0dDlmvX78ujH7v3j1Rf/LkSUcfKG9fEXbv3h3rD2NduHDBamtrsy5evGjt27cv6arAho11/tmR9noA0NXVJQ782WDH2dugP/6ccDtcgyPR1t0OZYwJp7OD0R9lHG7H2mVDXzsEPC/qW1tbY5Da+3h17vldw6lTp8S+BZso3qydOHEitpcZGxujHTt20JkzZ2jFihWi/vnz57HriU6WLl3qqO7p6aFr165RW1sbDQ0N0dWrVx3XpyqMjIxQcXGxaHLs2DGxgezs7CQcw8PDCbtig1dRUSHaoB0SxkmWsNFESrbZzM3NTdaVIBM2jZwwBubs7e2lsrIyYVMen9t4kntFFMbp7u4WnxBQbz9A9N27d8VUW7duterr6x3T4pOyatWqWN2RI0ccKwJWDE4YC6tBKglt3QmfesyHhCUaciLhU4z2XLb3xTlvMO3t0BbXUMeJ+/EKwPVcRlv+04JrGJf3DjwWVhLsXRIl7G9Y/kTXZ1vn6e3j6dOnac+ePYJcO6UbNmygpqYm2rZtG42OjtKaNWsIt16c1q9fT42NjeJ4+vQp3bx5ky+JPCcnJ1auqqqi48ePi/LDhw/pwIED1N/fn/TT19HRIT69+BS1traK1YBv4QoKCujKlSviE9jS0kJcxm0m5qyvr6fq6mpRj3FQ39DQIMp9fX2xlQXjbd68mdrb26m0tDQma6ITrAZos3PnToIuWAF4hUJ7XEcdPv2QF2XIgTokrBZTrSiJ5kylLqOOrZJK6ynavHjxgmCc7du308KFzn9Ls3jxYnry5Ak9ePCA5s+fLxw3ODhIcCQO/KlYu3YtnTt3jpYvX05btmwRM8EYcOCyZctoyZIlog5L9KNHj+jy5cu0YMECOnToEK1cuTKpZAALyziMV1tbSzU1NbG2GP/OnTviwDWMff/+fSHD6tWrCX0hD+oBLspoh35ohxxwoC0gYCdmZWWJObCs2/88cHndunVirO7ubjGGWyb0x5iYA7BABoyP9ui7d+/emA5enZjnEbyyZMjH8XyzGHJ7aCu+AUFb1zsVNyA47aFtyYCgreudihsQnPbQtmRA0Nb1TsUNCE57aFsyIGjreqfiBgSnPbQtGRC0db1TcQOC0x7algwI2rreqbgBwWkPbUsGBG1d71TcgOC0h7YlA4K2rncqbkBw2kPbkgFBW9c7Ff8/Ph3r2kxitboAAAAASUVORK5CYII=;" parent="1" vertex="1">
          <mxGeometry x="-5688.5" y="-1897" width="84" height="83" as="geometry"/>
        </mxCell>
        <mxCell id="oC6a1WEsOzrQhsxOkKVa-63" value="" style="shape=image;verticalLabelPosition=bottom;labelBackgroundColor=#ffffff;verticalAlign=top;aspect=fixed;imageAspect=0;image=data:image/png,iVBORw0KGgoAAAANSUhEUgAAAGYAAACBCAYAAAAyns9YAAAPPElEQVR4Ae2de6hXxRbHx+iBFt3wWN7siFlcQY2kiNT+yEdUZFmQqXCj/rCHQuD9K/KPLhpX+kcoLkFphD0MDSOKzAILH2VejTRU9JJCp9TsHjwn0eoIdmlfPuNdm3322bP3zN4zv98+sgd+zex5rLVmfWetWTN7HxsSRVGkmlQ7DVxQO4kagbQGGmBquhAaYBpgaqqBmorVWEwDTE01UFOxGotpgKmpBmoqVmMxDTA11UBNxWospgGmphqoqViNxTTA1FQDNRWrsZgGmJpqoKZiNRbTAFNTDdRUrAtrKtcAsU6c+V3X/bv3jM5P9J17pv7KoRfpuiuHXaRGDL1QTegYNmD8YKuoNTAoHSAO9vapz4+ddtYtgI0YdqEGjvKccR3ONNo1YEgdP8Z471CvOvhznwbFt2IA6PbOy2sPUi2BwVL+trnLNyb96AlAt4++PHaF/Tq0+aGtwCT3h7QecF/Ldx5LVwd5FpDq5OraAgyA4K7YN56d0mncrFsJDogD0MJJI43yBFkVBqItBQZAPj96Wr13uDcWB2X8c+bY+DldAMBk/3R7iOfxHUPV36eMDkHammZLgBFAsBDK6cRmvGjSn9PV8fPKvf8pFZXFBEoU2m09wYEBCBQr5w+TjvJcGmP+sfNoIQ0T7Sr1RYumCu28sUGBcd0jcGmsVFPyBQ48cFccRDmQ9pz57wCWcoClgYMrALUyBQOmzN5g49vLgJMGYjDcDAQBpgwoshqLwLFxjYMRCJm/5N6BYYNnT6mSCATyXAfgLP/XsQGBBIBwFskbW0WuVo71fleW9M1lJwKweZeRAPDs1E59OyDWARiDwUXZ6sS7xVRxY2mhiyI1Cb0B53xL3i3Gp4JW7e3WlmFSvKnepwzQkgWANyCCI6eO35y/dASx1FpbDEpB+Xk3AyFA4HZCFF90/goln3eLIeb3mVAQIXLIKxJ4AMC2Y6ecD7GMxX37vgCtBAwHSFLITZcVOWF4mDeSKDV9d1dmUXGXJwfWMuOzxpQGRq+Uw725d1xZDF3qAIXoi9xXqmIdeTKwH/p0uaWBwfT5+VRacuK+QRGXU+YVdVIuU1no+3JppYARIbJA4TxR9YBJpONjgsiJqzLdapuUXLYel+ZDbviX+q4MS2HSppQFmKlvsp5xvkCBLmEtysqTNcnfR5lAwEdyBoZJikXwBUpWKrNqAAVrKzM2SwbqCEo4pLYy+Xqp5wwM1iIpWZY6cq5TXBKg8ErXJyjCvx3g+NjHnIEh1i9KKMPWnQkoVULuIvfRanDEoxTpKa/dCRjcWNpKTP6buL4oVQUF3nI3x+dOcq7K4ttqcEx6yZItq84JGCKcdEoDJe1FFuADFK7+xaejCD53qgs4RVYsejLlTsDwdWQ6ma752cjFnZFjQfLjuco1PZPGQrJWJeDkKYUF4/MgmNaHPFfdZ6x3aZSQZR1ZyhHhfH+jBS+bKxQJkU1f3rAwACfrZZvI7iNHXlmcrvSsLcZkGXkro8iduQjLJJOuq2gscnH5aUoojOsem73QRKOoPsv1F42Rdmtg8gDI8+vCqEouoJC7JCw8LygAHKwqFDiu8ibnZg1MHpM80JLMypTha9pPbOgxngtG0+IBHF4phAAny/XbyEwfqz2GyeUxyWuzFSSrH4D7OBMgP0FB3kcegCOfRgEWQOGK5bszXDnyQMs2ufRN07QD5v9/vZUeLM9s8r6TL1CScgEyCjbdMAAOfIkYsxLjUDZ0bBcj/QHaNVm7MhPhKmGviSb1NjcMeeNNbURseUGBCRSh5+r6bAEU+pJbAZP1CakQKJqI9HPNp3X+yXWIdX+Uxb5VJYXal0QmK2BMoTKrx2dILEKRhwJceOBi8iI26ZeXm85JyTEm3SX7ZJWtgMkaSJ3p2t/U37W+jG924QE4cqXjMk76Il+oBWQFDBPISqE+khBeIUJYoS151TkUeQyT7oS/KbcCxjTY96dKJj4h66uC31aLCe1SQiq+iHboxVVWd5UsxnSaLlKGbXtZN2BL30e/UDJaARN6VZkUVPYMYKKXVR+aR1ndWQGTNSHqXK8oTHSy6kNbo/CsyqcIWNfvH0QuK2DyiFe52hYhsnJAb0WqyofNP0QAYAVMXkhY5RxgUjx+u6rCTLSz6vPeeGb1T9dx0DQdNvN0l6aTfLYChgF50UXe3VOSmUu5ahjrwovFVdWlYTXpb9jydFYknzUweYrCz/pc4Uwo9F1UWjFF3wok+zPXrHdEWAevrEVXVW5GrP9wCXPPc1sIgzJ9pyK+vvmxKLjez9o3sCpASS5C0ye9yE1ElkXHRmZrYBCKVWVKRX8vaRpnU1/E24aGax9xQ7Lq86KvEIvS2pVhpiKs6yRN/W0PZ2kXYaLnsx7Z+AFIHijwpL3qTXVadmuLYSBv7pJmLMQArOhbLVa9vNehLJNmrMtnTvD38bpZZPed47pMEZoLLydgTC7FxpTlfXqWcK7gAKrL690sniHrmE/Vv4SzdmVMxOTOiq7OxTpMyqDdJSpi4gQa7GuUk4lnfiwWfu1Kablc5bD6GCNJlIgl7UqKFGD7Fk+fJ37us47uZO8hAsLF4UayPrRotYVlyZDUoU3ZyZUJwXQMz/6St0JcQ15ouew7IldR3or9CdmL9tsiOWl3cmVCMBmbI0geKIzJ+hhdaGXlrq4ti0ZWHXKnT+dZ/arUFXkPW9qlgHEx1aL9JU9QXJvvMBT3l1xYefxd21igPiIy+JYChoGceElyANMPGf8pOgNkDOlXFcJ6XBZWP2EKHnzSLQ/MuA4d9RS5MduNv2DO+joI62G/qpps3K8rD2j6tETnqCwpMFZT1SKS9IrKWA/ujU2c1VlFEWzQ0GPhyByq/LP1vj8TLhWVJRXI5PKsxnRbkKRRpgxPH9FPFu8swOgn8ySXV8byEpG9y2eqZDFJYU1CMcnBlrTiE1+ZzlGt/79olN5j2q3swQi4i84GLTBMkr3mfE3BgenpG/iPTftSZtk/1RgM1lZ5jylSckglEE0RPrucH5I35LKZcxaTi1g2dTZ0cmkvmmOI9qDAhARFlCGvu23ASd+ViXzkEjILXckFHMCjDB+pkz4h8qDAhBA4i6acbUwXnyje5t8HyKIt4NGGVbUCFHhVPsdkTSZZ99eNh5KPwcsoLnmRmGcNtsJAk8OsjVXa0izqFxyYKqu1SPhWtANK1beRZeQMDowIldx0pa7OeTusJKmPlgEDU6ynzu/qkbHdgAg4LQVGmNbVetrltkQvybwtwCCA7D2EsJTbmepiJUkdtA2YpBACkpxJkm0hy3UEROZbC2BEGHIsCFcX4h4MIOSUT0jt+6o+OY+q5doBIxMSK+KZF1jcuZVxeYABCJxD6gyEzFvy2gIjAqZzAYcrFHltLXWAkHyBNZiASM9z0AGTnsD5+hz82v98VVzoeTXAhNZwSfoNMCUVF3pYA0xoDZek3wBTUnGhhzXAhNZwSfpegJkxY4Z6/PHHS4qQP+zjjz9WK1asUDNnzlQ33HCDeu655/IHOLYi+9atWx1Hhe9e+dXyN998o44ePaoOHz6s/vjjD3XBBV6wjme+cuVKNWbMGPXqq6+qSy+9VAHUkCFDVBRFcZ8qhS1btlQZHm5sVDEtWLAgWrJkif698MILMbUtW7ZE06dPj5YtWxaNHj06uu2226IDBw7odurXrFkTzZs3L7riiiuiuXPnxuPShUsuuST64IMP+lUfP348fl69ejUI6d+KFSuiI0eO6DZ4vPPOO9Fjjz0Wvfzyy9ETTzwRj6FA+549ezRvZCUh3+TJk6NRo0ZFr7zyStwfOlk8tm/fHj300EO6DXpCJx5YocDKK53Onj2rhdq9e3fEb8yYMTEtAWbz5s26bunSpdGsWbN0mUk8+OCDurxjx45o4sSJ0WuvvRaPTRYAFrpvvPFG1NXVlWyKNmzYoMcK4Mgwe/Zs3QceixcvjjZt2hT19PRoOWVwd3d3NGPGDP3IokDWkydP6j6U4QNAJPoiXxYPxq5bt073W79+vQZbP3j4TyW/89Zbb6np06erm2++Wf/Gjh2rPvzwQ23euJvvvvtO4cNJjzzyiDp48GBs+pdddpkuT506VfH76quv4rZkYenSpeqll15Sn376qbr77rvVHXfcoZYtW6a7fPTRR7ruxIkTatu2ber06dNqw4YN8fBTp06pO++8U3V0dKhHH31UffLJJ7ptzZo1at68eXE/Cuwzd911l57Ptddeq3bu3KnbcaHwnTBhQtxfeDDfVatWqX379qm5c+cqn26x0h6zevVqdfHFF8fKR3KUeP/99+tJXHfddfFkrr76atXd3R0/MylJI0aMUPv375fHAfns2bMVPxIATp48WT311FOqr69P7z8A/uuvv6qzZ8+q5cuXx+NRsCSAePvtt9U999yjkPuLL76QJp0fOXJEjR8/vl8dD+yfo0aN0sr/+uuv1U8//RTzWLx4sV4ITz/9tDp58qSaNWtWvGgGEHKsKA3Mrl271I4dOwasEizkwIEDWozvv/8+Fufbb79V48aNi59/+OGHuEy/SZMmxc9SwDIYt27dOqlSt956q7rmmmvUpk2b1PXXX682btyotm/fHrebCvfee6+677771IsvvqjHDR8+XHf9/fdzb0+xrPnz58fD4c1cAAVrwnJvvPHGuJ0Cwc6iRYv0D9AeeOCB9gPz5ptvqieffFKbflJaFIB5z5kzR7FieWZFvf/++/2A+e233/SwX375RSv39ddfT5LR5YULF2pXRIjc2dmphg4dqqO/H3/8UT388MPaAqH7zDPPqFtuuUV99tlnatiwYVr5A4gppeVdv369zqX9zJlz/5dCrAVFAwhy4xpvuukmrXThgcvdu3ev6unp0Z6BeTEOd97V1aVdodCtmpfaY1DqVVdd1W+CIsiSJUuUrEbqWNUotre3V6EUSXLu2b17t64HyHTC/X355ZfaSvbs2aMOHTqkqJNQeeTIkWrt2rXapbFvYE1YBGnatGlpclpe5MByJE2ZMkWKWg7a3333XW09WECSB4uHxYG7Jj3//PM6x32yULEqb8lDAJFJYuvWrcYohYhp7dq1meOaynMaKGUxNqtCVrWp7/Hjx01NTX0rvl1utFxOA8Esppw4zSjRQAOMaKJmeQNMzQARcRpgRBM1yxtgagaIiNMAI5qoWd4AUzNARJwGGNFEzfIGmJoBIuI0wIgmapY3wNQMEBHnfwCp2km90M+8AAAAAElFTkSuQmCC;" parent="1" vertex="1">
          <mxGeometry x="-5126" y="-1896.5" width="69" height="87" as="geometry"/>
        </mxCell>
        <mxCell id="oC6a1WEsOzrQhsxOkKVa-67" value="QARG" style="rounded=1;whiteSpace=wrap;html=1;fillColor=#1ba1e2;strokeColor=#006EAF;fontColor=#ffffff;gradientColor=none;" parent="1" vertex="1">
          <mxGeometry x="-6247" y="-1943" width="408" height="44" as="geometry"/>
        </mxCell>
        <mxCell id="oC6a1WEsOzrQhsxOkKVa-68" value="" style="verticalLabelPosition=bottom;html=1;verticalAlign=top;align=center;strokeColor=none;fillColor=#00BEF2;shape=mxgraph.azure.github_code;pointerEvents=1;" parent="1" vertex="1">
          <mxGeometry x="-6899.5" y="-2276.5" width="48" height="50" as="geometry"/>
        </mxCell>
        <mxCell id="oC6a1WEsOzrQhsxOkKVa-82" value="" style="edgeStyle=orthogonalEdgeStyle;rounded=0;orthogonalLoop=1;jettySize=auto;html=1;startSize=9;endSize=13;entryX=0;entryY=0.5;entryDx=0;entryDy=0;" parent="1" source="oC6a1WEsOzrQhsxOkKVa-69" target="oC6a1WEsOzrQhsxOkKVa-5" edge="1">
          <mxGeometry relative="1" as="geometry">
            <mxPoint x="-6699.5" y="-2196" as="targetPoint"/>
          </mxGeometry>
        </mxCell>
        <mxCell id="oC6a1WEsOzrQhsxOkKVa-69" value="&lt;b&gt;GitHUb Private Repo&lt;/b&gt;" style="rounded=1;whiteSpace=wrap;html=1;fillColor=#1ba1e2;strokeColor=#006EAF;fontColor=#ffffff;" parent="1" vertex="1">
          <mxGeometry x="-6899.5" y="-2226" width="120" height="60" as="geometry"/>
        </mxCell>
        <mxCell id="oC6a1WEsOzrQhsxOkKVa-70" value="" style="shape=image;verticalLabelPosition=bottom;labelBackgroundColor=#ffffff;verticalAlign=top;aspect=fixed;imageAspect=0;image=data:image/png,iVBORw0KGgoAAAANSUhEUgAAAHkAAACBCAYAAADkOxU9AAAgAElEQVR4Ae19aXMbSZLlQ2bivgGC9yGJpCipzq6qnunZttk/sTZf9ges7Zf5gWO2OzuztjPTU91dpRIlkaJ4HyBx31deWHueSJJSUSpdJAGKKYMAAonMQLxwD/fnHh6eTqfTx+1xo3tAudG/7vbHSQ/cgvwZDIRbkG9B/gx64DP4ibeS/BmArH0Gv/GdfmK/34dpmuCzqqryeKcvjsBJtyADsG0bjWYT5VIZpmkhGo0gHo/B7/dDUUZf2X32IFNy2+02nj59hse/rIo0z83O4uGDFSwszCEUCo2ArL69iZ89yFTR5XIFz5+v489/+UlAPj4+gWEY8Pp9uDM/B00b7W4a7dYDMofatgXLsmFZfLYG79mw+33gPJ/nARSPBwAfnIMtNBoNbG3vIHtyAtMwYZgmTnJ5PFtbQzgSwlg6hXgsBo987+0SM6yfjhzInD9dMPnc03V0Ox20Wy202m30ejp0Q0dPN0QaBWjC2geIk+b1wqMo6Ns2mo0mTk7y2D84xHEuB8u2oHiAXreLo8MsnofDuLOwgNhDgjysEP52u0YKZKrWer2O/f0DbO/u4uAgi2KpiG63B9uyYNt9kWLOsxwMfJaDCMlrB2mRyn5fpF83DGegGCZiioGoYqJnKWj3PDg4zOKvPz2W+RlQf7s3h/SMoQWZIBmGiVariXw+j4OjLI6OsigWS2g0mmg2m2i0Wuh2eiKBVL8e+ecA6xE97bzHvnfe5SBwlDVFk4OA/3weCzP+Lh6GiogpbRx0w9jojqFW92Frexv53AnGMuMyN4+i2h46kAlut9tFpVpD7iSPw6MjHGWPcHySQ7FUFrUM24IGEypMhPsWVMWE10OwAJ+nD69igz9M8fThOkDu1GzLPO6obtXTh99jIabpmPJ1MOMrom91ADuBohFEzQihVKrgxctNhCNRRKPRIZXVtzdrqECmRVut1nB8coK9vQPs7R/gKHuMarUMs9OCYnUQg46IaiGqmghrJgKKAb88bAQ8gF+BAK55+lBFul/tAEukmjLfB88Jqiaiqo6I0oXWr6Nl60gpGpJqB1nDQKfTwdr6Bh6sPEAkEhlJA2xoQCbAxWIRW1s72Hi5id29fRQLBfTaDfj7HYyrPaSDPaS9PSQ1AzHVRETVEVQN+BQDXo8Nr0eRmZPG00UAu2rbUeJ9MbI0jwUVBvp2Dz2jCw02QoqOqNqDXzFRMwxsb++i3W7BttMjSY4MBchU0aVyBWtrL7D69Bm2d3ZRq5Sh2R1MeLuYC7Qw4+9g3NtF0ksATPg9toBA1ax6LCgy61I5v58ZTIvasHToZk+e0ffA67Hg95jQYInfnC8UxJeemJgQunPU5uVrB5nGT6/Xw8uXm/jp8S/Y3NxGs15DWOnhbrCJL8NV3Ak0kfF1EVFNmXM5l756uDPvq+/+1l9234Jh6+iaXRimPjDgVHg8fXg8MnuLr93p9LC1tY3x8XH4fD54vd7fuvRQfX6tIBNgXddxcHiEx788wfbuHjqtOpJaF8uhOn6IFrESbCCsmjJ/Sud/ZPfZfVtMbQHYMk4lmBLNo9/3wOorMPsqbDHbPKLWHz95ivGJSZmXyWsziDEqx7WCTDKjVqvj58dPhHVq1WtIKW18Earg+1gJi8EmgoqFX0vu27v31D8WB+nsXL5v2ow0WdBNHaZlwLQdhsw9i4q/a/vQsQPQ+5oYaJwBcrkCNre2kMmk4ff7hNMeFbV9bSCzw0linJzk8MsvqyiXq4j021gJV/HdAGCq5/MHfVqH1HDefV1pu+eS5qTE9uXh+sh8tgVcSjElVwiTgQfN79Ig6/W9qFkhVKwgurYmbpgGtrUtFv/M9DTS6ZREqEaF0742kMk1O7zxNo6yWdhGDzOhBh6EKljwt2T+dUETyoIMlW3CFkl8M8gEXrhsOc8hO9zB4EiyccaEuTcYPFM9N6wAcmYUJTMECx6EFQMZbw+HvSByeYcCnZubET77FuTXOvD1PwlEqVTG6uozdHuOW3Qv2MCsv4XQQIIpiSJxlEhawTZV7Jl0n4InUji4A1ks0pp9Rw2757x+//N/O+EKoGkHcWiksacnUbUCMlXcCdSxEiihZs6j2moge5wFo1STkxMIBIODgMf5qw3f62uTZPLQpChXn68BHgWT/i6mfQYSmi1Glmnb0C0LbXLLpgWzD9h9UpFOk+kL021y6Ut4bHntgfvMzibpcfFB8J2HAnrKPUvDtj6Bp91Z7BtJ9PoKprxtPAyW8bVvC8+0JJpdFeVSSejVxcW7SCaTUEbAALsWkC3bRqvdQbVeE/fJHwgiqXWQ8PYQUCyR1lrPQE7341DP4EhPomQF0LZUATKo9hFRbURUA0F0EfP2EFW7CKIFP9oIkL0S25i0JgfCq+4zLWg6SDSsGnYUR+YYnnYmsNOLoW17YfYV+V7L8iKrh/G1z8aSvyLSXapVhUevVuuYnTGhKsrQs2DXAjIjRgwNNup1cVJ8HhthxYQPJpqGiUIvgBedabzsJpEzguhYXug23RpHLjWGDJX+gL50rG/VQ1KEBIZDYvgU0pwWAooNr+KATcAp53SRuraClq2ibfvQsgOom7SoNZHMgFcV+65hAmvtFGzrayS0DgIeE7aho96oo1Qqod3uiN98sa4YnnevB2S7L7FeXTegKB5RzyHFRMcGSnoUG+04Nrsp5M0wdHgR8PsQ8ftEajjfMhYstjKvY1toGXSJaC1zHrbhYTIewQWDFX2ootoZlOB87YHdpxR7oNseUdWK5kUw6Md0OIhULIJQwItmp4ejQgXVho11ZDBlN9Hu+wT8brsjFCwjYbEYfeY3TQrDAfS1gOwCRBeGvqbmsWV+zOohHHeD2OzEUbQiUP0hzCVjmEjFEA8H4aWE2U4cmN+Vedu00OmZ6OgGdMMUGtK0bAFc4suDuLIMjkGmiKZ44BtkZHo1DeGgH6loCGOJCMbiEQT8XlQbbYQCPqzt2qi2aQ/EoPepCxQhcCqVquSGOTP7cID5plZcE8hsjni9p+2qmH4UDT+yvSBKdhi+YAQLk2msLExiJpNANBSAV6MaHYAsiQF9GMwOMZgh4qTuEGhKNVN7DNOGaXGOd3xiy3JsbQ4Wn1eTR9DvRTjgRzwSRDwckNeqqogkB3xeSSx4snmAhk2AAQ5Hy7REVTPhgO0Z9uPaQKYEM99KQOt7sN8No2uraFheaP4AZieS+HZ5TkAmAATFOd/J63IHCaWVKT70u0W65XnwnqQK8X3+7TwTEFKSmqpA01R4VQWUZp+Xr1WJMjGRJOj3yaBiO3OlOnKVhgwoYkp1z3vxMQrHtYDs8ShC8pMeJABUgyd6UAwrRVExHovi0Z0pfHFvRlSok3z37t3JGdKlHE/l7PTF4DrnptGLpJFaIx2PwKtqyJVq+NfHL1FtdWDDBiWdOdmaNhqBig8L37x7f194JjspFAoiHA6h76Hxo0DvqwJyNBzEvekM7s9PIpOIfBDZIGpVCJGznC+X+zp9HpAmFwHsNpqDKxry4+++XMRkOg6fpgqt6vV5kUwlpP3uYHK/M4zPVw4yO5Vpr8yypIFEwClUfJ8+J+ffBwuTmEjGhiJAz/ZlklEszmSQiAThUTjNKPJotVqgAcbsEQZbhvW4UnXNOYwdUiiUsMNsy8MjqMpZE8IBHyZTcZEaGkNvk7Kr7FDO3QuTKWwcnKBYbaDT7UrmCkmd6alJzM5MgwkFsVh0KGPNZz18yb1GwEgeMMd5ff2FpPgQZHetET+nOuRDVRyy8pKb9E6XZ7sM05K8a6pvtpdJDkwLLhSL2N6OY2FhHg9WlrG0eA9jY2NDF2u+EpClowwDJ7kcnqyuSmgxmz0Rle3A6RFDqWeYOCxUsHGQl44aT0bFCnbRENvpdQPK/VCMrXN/vOXlm7ye1xPoaRS2uzq2s3k83cmi3GiLZc2gSb3RQK3eQKFQRLFUQrPZkN8QDAaFIHnL7a/8oysBmWqaqwaZw/zkyTMh+MlaRQI+mcs6hilg0sdd2z1GpdEWP/V39+fEuvZrjOgCVI+mycjUq64LJYxzp1dT3solEzTaA4bFqJbrhDlhDALMa9C1IgsnodB2DzvHRfzTn1axk6vIey5ClOigj5waUGF+2voGQqGwSDJZsGE6rgRkN+K0s7Mn0sy8aRIdU+k4ao02VrezCPkdQoLEBUH+57+u46hYwR++uIu58ZTEk6rNtnzW6emv9CH93Fg4gLF4GIloCD7N+6tlLQStxSSFch3legu64STnOhfyCLjRcACpaBh+nyaM19PtLP7f6hYK1RrGE3HxpUl31podBH0afni4IC7g851jCbjs7uyBKyIX792TAfNKI6/xj0sHmaraXTmYy+VBERpPx/Hl4iwy8TD+5ad1WahEV+W7+3OIRQI4LtWxnS1h+6iIVqeHqVQcVOXZUg3FWlPcmHNurli8sXAQi9Nj+GpxFksz44iEAqdcd0fXcVyq4acXB3iydYga/V1SqoPglMwAHg8iQT8mSaFGgmi0ezjMV4Td+mZpDr9/cEfAJfCtdg/09elHjyciMmDW9o5RqlTAzE4al5FI+BphffXWlw4yb0cp4pxVZdTJA+GHyUeHSBuSPgJESpKxEO5OZzA3kcZEKo7Ng5wwTcVaVkChelyYSInUnp8/Oz0DtWYXeydlccs4sGYzKQR8mvzNgbG+d4KfN/bkOvPjSeGraeDxOpyjSYWWai0c5Co4yJWF7SLYnDLos89mEjLoAr7CKdFCly8RCSEdD8u9OoYhfDbXO392IHP24zzKECMdc4dKdOY+AsKgAyc3+p+UpkwiKhwyQbU3D7F7XJRBsDibwYOFKTlHmG9+R/GAIO/nytg8yAtA5LG3kyWx1HnfWquLbKGKRquH3z+al4FELpzf5cHUAvrsu8clPN0+Em1BTbAyP4GvF2clQOL3akKD0k92D77ShCJl5iajW9Zg4d2rNoN7/nU9X4kkc6lo0B9AKBhEq1FHs91Fo9WFEglKx1GWddOUQAI7goEBsl3UAJxDi7UGYqGAEBJLs+PodHVR3fx8IhUVzUAastZs4/lOAy/2T7Cfr4i6Jq9Ng47qPuT34ct7M5jJJNHuGTLvElxeezIVBoFk9ImDhup/YSKN2UxSBhivQxVP483RPY7h1u7paHW6EhBRFRU+v2/oYsyXD7JYvioSiQQyY2MoFoooVJsicYYVF0kgsASBDwLHyZKgMdTHB4MFZJuoGmlJU53+2+qWnP/10owAR/KE0sm50rT64s/yGpRk3ZBLCkU5nozBp2nipj3bOUa3p4th993KvACbiAbF8GJAJBT0SdiR2sa2bAlQMIWX8BL0VkdHtliVgUiLPRqPIplICGV7XVJ70X0vHWSqNFq/TGOdnZ0RMqRSLuPFQU78TgJLSXfDhZQsyc05R7iqjDmrTP3xoN7qYPMwj182DyVNiIkCBJ8qntElSiMt7C/uTcvA4GJ0qvK945JME7xOo93F1lEeq1uHoCRWmh1MjcUxO54QI45DgsCePyjFzsJ2U6YWegF7JyWxMQi05vUJ+zU9NSXBi/Pfve7Xlw4yfyA7P5GI486deVmKSuszW6yjWG2K1PAcBv1bXVYIMCUsqJ4uOj3rIipKGkgExrWOaX1TfTu+sweqpmEynZAw5WQyima7B01RUag0BhHsPnpcrdjTYVimfI/gdQ2m+7p53a8CzBZw8PFe3Z4hksy/t7MFpx2qF/OzGSwvL2NufvbUMDtr+fW+uhKQGakJBAKYn5vFt998LaBz1WK9VkOz0xWp0XUT9IMb7Q4Miyk1TJBzOsedDynJsVBQfOzF2Tosy8TK/CSmM4nBvOlkarq2EYVRok6Ss+2oWOJItT43nkat1ZP5mhLMAUEixFHszv+uicXrcGBxvqavLUYkM1RsIByOYHp6Go8ergi1mU6lrhfRC+5+ZSBTmpnCytJJrJM1NTWJ/b19HB2fCGNE0r9ca6LUaGHBsGQeJqtES5yqs9nRpaOZf/Xo7jRCAb/MiyRUSILQTaJEM8eLc7HqUQQpDjBFwINIdbXZwXQ6hod3psT1oUQy9YcuHePFlFbez+HQnTmDg40ESLnelnmY2iIViyGVSmFmZgqL9+7izp0FTIxPDJ2qJuZXAjJvxM7misCxsTRC4bBEbZaXFoXi/PHPfxHCv1hvIVduiLQwp4t0JqWOA6RUb4krlYqF5D1avpRSpu/QGs4Wa8iV6yKJZL+Y6UE/mNIZ8nvlPCbmre0cycChQTc9lhBAOU93dUPmbZImlGD6yDT43OO4WEOl0RIPYCyTwXe/+xbMvaatkUqmZODy97kBF/d7w/B8ZSDzxxJoLvuMe72IUZonJzAzPSUprqylVa5UcVKqyfyZjjkJdUyuoztFVf589xj1dhfpGNkkV5lCgggn5ZpIGoMak6mogMoOp5WcioUxM5YQq/zxywPUW12QwnQBoTrmvMzgCKV1IhkVypWuFedpfrZ5VJCB5vX5MTMzjW++/gorK8vye9zrDAOgF7XhSkE+3wACzrVELNGwtLQkC9AZ1aE00vKltUx/lvHlR3emxV1iR/+4tgumGfCfe9BMIrvFuZkJB7PjZLu84m7RXaIqfnRvWkiRF/vH+HFtx1k3J3QXB58T/CBnPTOWxNLcOOan0sKK0frfPSnh5WFBVPbkJOPHM2JIsv3DDjD76NpA5s1dFc6VgjReuLKxXK9jbfdEEgdS8bBkUH4l7lBApPGoUBV/1QVYfoSqinTfmUrj3vSY5E6TzeLcyudIyI/l2XFh0caSEZSqTeGbz2gNMlcKktEw7k6ncXdwDTJxlXoL/+uvayhW6zIaON0wSYAJAqMA8LWDzAZwvqVFeu/uXRwf59BstpCvNPB0K4tENCzUIvOgyWlPjSVk7hTC5BzK7GzOwZReGkwioOf8XEo9/ef5iSQyyYgYaHTBzqt8Dgaq9gArCQxyucqNlvjSqy8PZZltOjOG+flZTE5PIRgKDZ2rdK5LXnl5rZLMljjS7JX5bf/gQJafNJt17OfLWN89RpyUYzruWMyqgmDAWcVw/ldQcfM6dJ34fNHB92lghQOKDAbhJs+dywoVBJrcNCWYfPfLwzz+vL4nU4Xm8wnA9PVTyYQQPBfdZxjfu3aQ2SmUxPFMRtyrcqWCjY2XEvMlB03jh+DQAKOEkdb8mIPf9wxWIl50Jap4MmIkOlY3j3BYqEo2yPhYGivLy1iYm0c4HB4ZVc2+GgqQ2ZBAwC8uCUHm4nTWtqTbwqgQwb3fd1J0qVI/9rgIXF6TJActb9KVjBtTkslwhUMhfPHoIe7fXxYX0HdbGObDIKA0j6XTWLm/jFarJcH63EkOe7myE02y+zDnxsXq5hxNPvvX5OOH3ZvSy2Q9EiUEmK4atQiTCxgXvnv3Dr7/7lvh3sncvWlK+LC7X/63Pl4sPmEb6UPTPWEOMzuej1wuh+3jooQiG50eGGqcycQRDQUHNORHNKBP6eWCOUMYs51sEev7OYkrk/0iabN47w7++F/+DkuLi4hGIiOlpt2eGSqQ2SiuqliYn5f20Sr+5YlHgN46KqLa7EqY8v7cuLg59KXp277vPE11TS3AYAdJloN8GVtHBWwdFoQ5Y7AkGotiefEefv/D98K3U4JHxWVywXWfhw5kNiwYDEhCnAThfV6pK3JwdCRxW0pzvlIX9oqEBZkspt8wniyG2W/sGUEtwYQBJgsyIYF5XMw8of9NdU3/KzOewf3lJXzz1Zd4+OA+mGY7airaBZjPQwkyJYZrpUj+axpXHzoVAFhQtdHqiDFEX3rjMI+7U2nMT6RkKQstcdfPZRSLLhXdZa5o5DJWSi6jXqUakxYqAnC+0kSj0wWXoSqKhonxcTx8uIKvv/wC9+7ekcq4owzwUILMeZhEBQuq0trl6kF2/NzsjFTQJVliG7bEhOnqMOWHSQTMyWJQgw8Bm8YZK9QzBm2YEsGi5VyoNSSi1Wx1JX7Nz5xkwj7isTDGxzOYmpwURsv5rgFtsI3Qrbo+rx8+4DXBpSpliQla17V6XRaTsTYH01zz+YIsT6Gb7EoWBwFzqBm9IqABr4awn+lCXqlKwFQgzr5kyAgmDaxauwPTdorFcC4ncA4FysQAC9VqFbu7e7JFQXosJWxcPB4Xiaabx3VRvK7bhg/4qVf+Fc91b63rWtHMFmGAolwuC6DZ4xMwT5vLUErlElqtthMW1DQnFUjxyH4TDj3ppPQyNEn9TLXMUhO8NoFk+QgSKlThzS41BPO0nACJ18vSiszWtGAwGQx9KavI+pnkqTMZR7JZt4s5aslkXFZK0BMYFaCvFWSCwLIPXFeUzR7LMhrOu8fZE1lMxsIrPIcAcYMQv88nRhkNIc2ryQDgIjoCw1ofs2NOhghTfrqGIWFCSqrfq0qmJqV9dSeLdrcHRdUQi0ZFLRN8VsJttVuiLQzdqT3CwcB7U6LHM+O4e2dBFrUxVy2VSkq2C7n3YT+u1fCieq5UKvjf//wvskUPVTJB44oL8sdigHHpSiop2Z6RaBTBgF+CGkwJ6tBg0g1JA2IW5h+/WZLkexZ5o4qm0UX1TnCZQMAlLlvZkqhtghOLxzA7MyVuG9vS6znJ8ZVqVSJi9VpdisAU8iUUi2Wpw/34yapY3t9/9zt5ZpbLsEv0tYBMEAuFAn55sop//b//JvtNdLsdR/1atkhreiwtezIx3hwI+iU4T6ki8OxUBvMp2fzbMp2SygSJRV9ikaCTlDcQMQJNevK4UINpspiLs/idFCkNO/rA1BiBQF8YLg6quVldVkNwkbkbHet2uijkC1LZ98XGJu4vL+Jv/+YHke5h5rOvDGR2orvHxO7+HtbXN7C2/kL2meBnnOOSyYSzT2IsJss/SYz4fF6R3PPSwtesyRVPxFCltPV6EvfdyhaQikcwP5mU3GqeR41AcoM+MdN46SNTwqnyw5EwWBqCA4WHovTFsGIaD3113p+DjO3i3hi1WkOMQuajcSmM7EfVbkth1eWlJfECuO0fDblhOq4EZBpH3CGG65NZmZ7gcgsCSgl9YPrEDMIzMZ0GDzuK4LpSex5gt/MYEkwlk6hWqqAWqHd64kqREGFGJZPxWc2HKzMq9bZQo+t7x+J6eX0+JOIxsZiZE+4e7n2cQJejNfh5NBKW9tXrjQHYdTSaLVmOy8FK24Gq/f79+1iYn5NB4V5zGJ7PfuEltYZzHV0i7un0fP2FSDBfczc2AsmVFXRREvGohPBYEYjAux3+pmZRVhg8YCIdq+zWqnVJNmD2JckOZnkQcLpOZLeY6JevNiUvm/FgqmRGl95mOLENDEvymRJN1S7SHY2gWqnJNEOJPjhwkgqazbYMZiYoUvpdDfGm33BV718qyASYG3Xt7e9j9elTrK1tSAV4qu1wOChRJ7op4SiT9nzS4e/TMRwMBJn3oRvE3d8KtabQk8wEobFFX5prkelWqVxdEY9LOjCT/TnIfmswEQhOJ2yXU9bJmcc5QLiXIyv91msN0VIs0t5stWTp6rfffDUoyXj91velgcyO4Q9mAZiffn6Mp0+fy44x7DSqZDJL45m0uDHMY/7Qg6qd1/J6fSiXg5LxSfVJN4ptIIicd2kYpVNJkWBKMQF7nwHlto+Sz/ncmbeDCPgDyHsLKJXLUlaCkt1sNGXg/fD9d2JjvE1buNe9zOcP791zrWJnvn50WARmbx+PHz/Bk9Vn4tOyY6jGJibGxXKm6vvYDiBQnNNJakQiIcQTcZkj9R5dK0uuzymAqp3SKz72O0wHr/+e839z4LDdcl9W9dNUMdhY1cgtm8EphNK+snJfBvXrA+pdNMj5e37M6w8GmR1ItctdTvksu7QMWkKLlnFgSu/6iw3ZU8kFI5mIIxIOi4RRvX2aH+vEnr2aF8l4HLFIRJIAaPDxvjSeSHioqib7P3IPyE92X7pygYCoZv4e1idrd7o4ODzEf/74F3HUmadNzeEYdE4RHNKjHPTMMnkXG+RKQabUEmByy0I5lspiWJEWdA8uNj85OcHu7r6cQ7/Y/SFMVKc7Qkv1Ux6nTgt78rQan0OGSLzZ6WFR4Z/yvnIt7m2l67Jsh4PK9SY2NregaqoYnXTJuHqT6eKqR5V0J4c6HZPEwMvccf29aU0CRhJ/4+UWXm5uCh1Jd4JLSN2DlX3INTdb3M/YmRv542XkksCQwIF79s14JsHCvtENHVy8xzHF30zXkGpb9m0ejEQaiSRgaDRyDRVTnuh6sX8u43gvdc0RSiqRKxK5fok7iNPXpbo+laRBK6kOGa0RKRqQA9zoS3+tcs9l/KjruqYoC1bV1xxyheknXLlZq9acZbNO1QzRJqRaaQzSOufgkPj59PSlNP29QGZjypWykBncU5HGFRs3NrBWBxrxUhp6Uy5KG5XVCtqi6VrC+NGIo1HIODal/1Mf7wUyVS+jRazHRYMrHIlg5f4ivv7yoSxcoxq6PX67B1qdDp6vbWD12ZqEVVl+kszZH/72b4SP/zRG4Vk73gtkGlecZ8lgaaqGeCyKqYE7RCvxAk/q7E63r057IB6NIE2ePhxCmUty0Jd4NmPq7MdrBZlzDAukMIxH1cwyDQwsEHCnYb/2l09/2e2L0x5g4Xa6dfQ4HCPU8QicDVROT/tkLz5gAngVSCro27n4A/BwZzb3WejTD7jOO3zlA0B+h6venvKbPXCVU9styL8JxyWeQKX4qmK8lJvdgnwp3TpcF70FebjwuJTW3IJ8Kd06XBe9BXm48LiU1tyCfCndOlwXfS/Ga7ia/ubWXJTE8KlZpDffffg+uTEgE1g+mI/NsCcXsUn4sz/YQGSwMpJgn+Mfhg+RS2jRjQDZTWRgQkKH2RndDtrtrmRxko1jwJ5VAliWKcA9FqU46+cD9ciDTMlkPJslG/cPjrC9u4/Do2PJ87JM1tIeBOhTaVnLdH/5LibGxy4l2nMJQvhJLjnSIBNgJiLs7O1jY2MbB0dZVGp1tLYhzLQAAAeJSURBVDvcB9J0Un1swGhzkXleqgqd5E7wcGUZdxfmkUiw5PL1p8x+EiTfcpGRBZkAM/S5vbOH5+sb2Ns/QrNRh9fu4Y6/jbS3hYCiw+orqFtBFPQISnUDXb0HUwqY21L0hXnYTKq7yFh7S7+N1EcjCzJ7uVSuYHN7V9R0q1FFzNPC3XAVy6EyJnwNhJSegFw2Q9jtpPCsNYbjXgTZkxNJpONczSzKSDg0UqC9b2NHFmRmjHJzz6zU42wihDaWgmX8EMtiKVhCSO1B87BUFNC1fZjyNRBWdfyfygLqPeAkl5cccNb1dJfDvm/njcr5Iwmym/J6dHQsqcF9S8e4v4VH4QJWQkWktCYUz9neTEHVRFA14FMs7HUTeNFOylosGmvckIy54MHgzZ2bR5LxIsjNdgf1RlMWoQdgYMLbwnygioTWegVgShtr9wUUA1P+Or6NlBBRDcmQlLRhXsNgGYmbe4wcyAy/ssoAEwlZioIbh1BSE1oPYaUH1XOW//0qbH1osHE3UENI5c4xloDLpHiq/pt8jBzIBIPzLKVZWC70wUJOqseG4nGq+lwEGKkPPvyKKeczWM/lPHzwoLV+U4+RA5lQMGGfCYRc30SSsmeraFkaerYGu3/xTyL8XOBaMoLQ+yxJ4RSB40K5y8h1HqYBc3GPDFMLL2gLyzVwdSKXmpCi7NgaSkYIZSOMju2Ds2nu2RcJsGkrqJt+PG8l0TS9skaJLhTXIHHA3ORjREFWEA4FZKEYgTI8XuSNCLY79IMTaFt+GH1VfGSzr6Jre1E2w9jupPFLM42G5RX/mAvOuFbppoM8ki4U50+SGAvzszjJF2RxXUEP4UlzXOZlo68g4W1B83BLQAVNK4DDbhI/N6aR1aMwoSETiyKTTskCAa4vvmW8hlGX9fu4d2cBhWJZNifJ5XVsdyOoWj7sdKOY9DUQUExQkitmCIfdGPa6EZiWgkDIL1V4uWkI63BxTr4FeQhBJijknBlsoAFG/vro6AjFXh9NcwwvlSRUD0ugemDYCrqWAt0CItEwvv36Czx8sCzVDlgb7CYDTOhGUl2fH3OxWATLS/cQCgaQSiSEx2b9jma355wmRVJVp1j65ATuLy1iYX5G5nP/OxaGOX+/UXw98iBTEhOxmCwUY63MyYkMCkUWXG0JWcLV/Zy/ZXHe1ATmpqcR4g41H1k3ZJTAHnmQ2dlU14wkMesjk0nLRl2s0ekUKlfg9/kRDPoRCjoFZG66X/z6ALwRIPNH0eJmXS4+QsGQ1OsiK0aai6By9aBT1/oK1qW83svX/PeNAZn96BpQsqxW1v2eRZb4mfv5Nff5ld/+RoF8vvc+V0DP94H7eiQZL7fxN+WZmofTzWXZCm+UZM5nTJJjATLDZBV4W6rYcIs9FoiR4+YGbq50/DBXnBX8SqWyPDO5kOWeWEmQ5SUI/sdEyS4EmSASzFyuIPUiWUrQMJwi3wcHWbQ7HYnpXmlP3OCbMaWYpZ5++vlncfdYqpmcOve8yIylnZLNHxFE+RXIDKATYBZie/ZsHce5HFrNpkgvg/QEmEVCL0u13GAs3/jTCHI+l5cyjZRiMnmRSFS2SXqwsox7i/fEW/jQ9OFXQKaxwuLjR9ks/v0//lMKnxJQ7rTGSracO6i2ORA+Rn288dd+hh+wz1lsh/1eLHEa5GIBZr2YODg4kEUCPr8fwUBAwqsf0u+vgEzwWGHv2fN1PFl9LtX3QqGwJLpFYxFpQK1Wk7nDybP4DFG5hJ9MMoeBEm5LpKgKKuWq4MAtlLjXBXejpermPE2m7n2P029wRBFk1s3c3z+Q9USGruPbr77Ao0crciOOtvWXW3jcfioj731vdnv+r3uAkukP+DE9PYW//+MfhINngdl//9OfpX5ps9mQPPFqrSa1OKmy31eaT0Hm7WnlsUwwt+ERNdLvI5GMY3yw6RULtYW5pa0QDU6ulXOe0/j3vfmvf/Ln9M4ZOeOBIlY0pTnCivihkEg2+5PTI+dsPliF/0MOLZ/Pn36PmYvciMuynLmBczD3RixXq0ysQq/bk82rOUczAY6SXapUxTI04rHPbknoace9xwuSqpxvufqD5Re51If9SaOWxWlZRpqpwuTeGShl0iIFj8ZwqVgSlU1cnOP0hfvG4PlV6lb7jz/9eHoCDYBiuSS1qHkaK8cdZU9kLo7HoyLp9OWcUcUSjE3s7x+Caj0Wi91O06c9+ZYXfQj/wIwWTo3COah90NZ5+XJTKt9Vq3XZ4Y6CxF3meN76i5fI54sSjHn16qxG7Lwj0J79d3qa53/8z38cFOh1ziTx0Wq2xCmnKmb+E6M7JP4dy8+Qzwg01QmzHRnKo9N+erfTy9+++FUPDHZfZ944ySbaQXRHaVSxoj/7nIVqqSUN05TP2P8sm3xmdLmS6lTBPw8yv/96kVPPf/uH/+5+QyTRGQhUFINj8OJsvnXecM5zT3Lw/fzW8J/9/vd5JWr4tS9QxNz+4+IBOQYSev6z174mmLnfE9QGXz1/nvZf//6P5/++fT2qPcCRcAHA/Dmevsj3qP6y23a/Sw/cRqHepZdG/JxbkEccwHdp/v8HBhDpUnD0G7YAAAAASUVORK5CYII=;" parent="1" vertex="1">
          <mxGeometry x="-7146" y="-2281.5" width="48" height="51" as="geometry"/>
        </mxCell>
        <mxCell id="oC6a1WEsOzrQhsxOkKVa-72" value="&lt;b&gt;Notebook Developer&lt;/b&gt;" style="rounded=1;whiteSpace=wrap;html=1;fillColor=#b1ddf0;strokeColor=#10739e;" parent="1" vertex="1">
          <mxGeometry x="-7146" y="-2230" width="120" height="60" as="geometry"/>
        </mxCell>
        <mxCell id="oC6a1WEsOzrQhsxOkKVa-79" value="" style="edgeStyle=orthogonalEdgeStyle;rounded=0;orthogonalLoop=1;jettySize=auto;html=1;startSize=9;endSize=13;entryX=0;entryY=0.5;entryDx=0;entryDy=0;" parent="1" edge="1">
          <mxGeometry relative="1" as="geometry">
            <mxPoint x="-7268.5" y="-2204.6666666666665" as="sourcePoint"/>
            <mxPoint x="-7145.7692307692305" y="-2205.3846153846152" as="targetPoint"/>
            <Array as="points">
              <mxPoint x="-7183" y="-2205"/>
              <mxPoint x="-7183" y="-2205"/>
            </Array>
          </mxGeometry>
        </mxCell>
        <mxCell id="oC6a1WEsOzrQhsxOkKVa-74" value="" style="shape=image;verticalLabelPosition=bottom;labelBackgroundColor=#ffffff;verticalAlign=top;aspect=fixed;imageAspect=0;image=data:image/png,iVBORw0KGgoAAAANSUhEUgAAAD0AAAA1CAYAAADyMeOEAAAFIklEQVRoBe2aQWhdVRCGJ5JFwNQGWqhtAioRo+1CsEK6EbNpN5qVXbTZ2cXrUiHPpWlal76CXTYL3dlNu4qrdpPipgEjdNFqigWF1BpoIbFZZFGIfBdO3tzJuy9zzz3vBcwbCPfce8+b+f8zc+bMOTd9W1tbW7LP5JV9xjej2yO9X7ze83TP0//jEejvJLeNh8uyvvirrN37RTZXngr3WgaPj8nAyFEZOvWhHBz/QLjvhvSlXqc3V/6W1Vs/yT8354V2GRkYOSavn52UI599KrQ7JclIv/z3hfx1bU5Wvv8xCdaRC1Pyxhc16X/tQBJ9WkkS0s9uL8jyV7MC8d1k8L13si4bvz3arWtGeOzbWTl8ZmLXvmU6VCb9+Jurhd6F4KEzExnoovnKPGfQnt9ekKKBwOujX0+X4dW2bzRpvAph5q6Vw6cnZHRmuvS8JAcs12dlbXHJqszmOl5PIdGkCWdLGM+OztRl6NTJStjW7i3J4yuNHZ4nyaUgHkX6jysNefLDjRwxvDvWmE2WeIgkvP7szkLOzvDn5+XtmXruWdmb0mUo888SZok5MXc1GWFIkLXRiW4t2AZDFSnlaUZ/8aPJXJbGw4BD7p+rifQ14bx/Yy67YRqs3mrO/fC82bN960FtOudxBmT85/noQS5Vkf353fUcYeYwIR2kVQLiHQmKeRor2Ng8V9ue4ww+WGLD3B3eALdhTdLqRPFgBwcb2NIClrIVX/i9m7TN1IR11SwdQHiu2Boaz68KFpNHD33cpKmntbAOd1v0VMK2xeTF4yJN1aRDibncyQ1BEXhsYjsImOzOLbxrd3WRtkmI0rKqkIjuvnVy+497j1jbFptHh4v0usm8qTcAHqChj7VtsYV+7a4u0ptPnuZ0FG0ecp06dGNtW2wesy7SMfPGYzxFnxhsLtIanE4k+nk321UxlCYtfarO7CZTbasihtKky4QT5SKik03/gUENP6pdBkMrAy7S3nCyFdPSJ1Py4OJ07lCAk8+U4sWmbbpI20KkaKSHL0xp3VlBY7eBtk/uB44ba9tic6jwlaEHzUmIJRIMsYZystEqhHnGu6r1urVtsQUs7a6uraUF+vzOXXnzy4st9XKkA/mNh48yT7ND4s/qaPljx0Nsa4nR6yJNQTAwfFRCIUCIUfcWhVaTZH5XpMHGtG2tDSZbrHj0uuY0io6cnczp42AwpawvLmUfC/hgwF+rbaO1aTF58bg8jTLCFjBBKPT5iwmvoENfg77wjJUAm0Hse55zHh4jbk8TypxEauHcO6zF+nnqNjawpQUsTKMYcXsa5SSv1Zvz8vLFRmaLuU3InbieB+QBwiDadV3/7tXjzX0zNvRSxUpQlEi1jqJ2qdNQlLBkUHBoSXUIr3WGNoTt/GaQ7RYz9Pdc3eEdlGHMhjmgGIiUoY6u++drOwhjuwpheJT2dCD/e/3SjjMqlg8+tFVNbiQt5rAOaexy8P9u43KAEH2NJo0n+LzT6nAO0lRfRet4EVrWYcIZ0lZSEUZvNOkAqtV3rfAOzxOKh05/XFhE4E2qLHKF9WzQQ0jHHuwHHfpamTTKALxcv7Sd1bUB2w4VVBFB3T+r1xuXK89hrZN2EtIoItw50bRfQaxB7z3eZVmKXYvb2UlGOhhhXpLNWc9DrR7e7Xallqa0ZAksmw92063fJyetlRPCJCVOTrLNgvk/Ew4AIMf2kOQXQl/r6ES7o6Q7ATiFztLFSQqje62jR3qvPdAt+z1Pd2uk99rOf1iJR1SgNUmuAAAAAElFTkSuQmCC;" parent="1" vertex="1">
          <mxGeometry x="-7363" y="-2242" width="87" height="76" as="geometry"/>
        </mxCell>
        <mxCell id="oC6a1WEsOzrQhsxOkKVa-80" value="" style="edgeStyle=orthogonalEdgeStyle;rounded=0;orthogonalLoop=1;jettySize=auto;html=1;startSize=9;endSize=13;entryX=0;entryY=0.5;entryDx=0;entryDy=0;" parent="1" edge="1">
          <mxGeometry relative="1" as="geometry">
            <mxPoint x="-7026" y="-2200.833333333333" as="sourcePoint"/>
            <mxPoint x="-6903.5" y="-2200.833333333333" as="targetPoint"/>
          </mxGeometry>
        </mxCell>
        <mxCell id="oC6a1WEsOzrQhsxOkKVa-86" value="" style="shape=image;verticalLabelPosition=bottom;labelBackgroundColor=#ffffff;verticalAlign=top;aspect=fixed;imageAspect=0;image=data:image/png,iVBORw0KGgoAAAANSUhEUgAAAHwAAABlCAYAAACPx4ftAAAQS0lEQVR4Ae2deYwVRRrAPxDCsTAMxyC3YARciHIMiQxGGNFkRSGgROJKFBDjYtCACX+YsBswWYl/aBRc4mIkqCEuQQGVS0U5TBzYDQOOEQ2HHGFcLmFgRgXC0Ztfud+zabrf6/emrzfzKnmvu6vr+Or71VdVXd1d3cSyLEsKrtFooGmjKWmhoEYDBeCNrCI0i6u8l0+dlmYlHePKXg4fPizvvPOOyX/evHmxyRF1xpECB/KF7/fJL9sqzBbgfxhZJm1GjogMPqBfeOEF2bp1q5SXlxt99+nTR6ZOnSqNAXykwM+tWis/f7k9VampAOdWrTO/7gsXRAJ92rRpBvShQ4dSclAJ8L/pppsM+NSJBrgTWR8OXDtspy6pDGE7wPJzWnLv3r1lypQpqSY+bDniTD8y4DTl6Vy6ypAuXjbn6LO1GXfGo0nHUSEasousSb/43d6Megx7IEeT7QVUrZ8tFh+m++KLL2T37t1SU1Mj7du3lyFDhsg999wTZpaptCOz8BYD+qcyddupa9Y09D78TxP/LG+//bZb9mYQ16JjV88WwDVSDp6MHTZv3mxgEx3oHL/88stCRQjbRQKcQv370q8CVC9X2b51SgleYXL1P1Z3UZZWHpWJ/9olJWX3mwGaWjpbKgEj92blk02YXf+tzTWrjPEOHjzoGiYq8E3CnFqlELt27TI1mFJ2vXBJyk/VSdvLV1OFphIca9lcqvr1kjlz5qT8g9gB9IZ9J2VpZXUquYunj8nJig1SvW5pqukmXM9x001l0IBd27aQuaNukaHditQrkC0W/tZbb2VMi6Z+9OjRMnTo0IxhswkQCnAnaKdAbS9fkdIaLP4G2de2hTQr6STTp083/ZkzbC7HbqDd0qndt8t4F/XzVirg/zF2oLANymEEq1at8pVc0OADBa6gdUCSqURBD1j8gs4kl9v5IV2L5K/ltwQGXnVF/+3HoauJEycKk0T1cYEAV+HjBr1h3ykBepguDPBAx+r9uPqCrzdw+yVGJoHDsugoQDvLNr20h9zfr3OgFp8t+Fy6wZyBq1X7aZIUNAMQ9uvrsOLdx2rNyDtsi84kaxjg6d/tU7/pZKCZz2ZglzNwLDsT7KBBU3CsmUusuEE7IQB+emlPp3fOxxiUX/BPPvmk7749J+CZRplhgV6/96Sx7Jy1GEHEuMC/+OKLvkqXE3CuI92aHEAziuT6MYimmxJg0fkA2qntoMGjbywey3dzfpv2rIGTIdOATgfgICcKaLL/vvVA4i3aqQf7Mdfu9/crCbSp9zI2+nGgZ3Lec50eMc+ePet6pri4OKvBg2siIqZvnrl2j5niZGCWz45KyywfU7qMO4Jw9Nduzu9lXdZ3y7yalPo24Q3Bot1A4Kfg6Z6CtnivPL38s7Zwr4Tq4683NvLdojPpQMFj8WHeoEknRyKAx1X4dIoJ8xzguakTh8u6SQ9DyMXjBpo+Lo4ZszDKky7NsO7CpcvTfi4RwBGISQt+NO8NETygKR99eJwuMcBVCXbw9vvYej7ftkkBrXpLHHAVLN/Bh3ENrrqpzzaxwLVQ+QY+qaBVn5ED/+70r/L3HdXyx46tZMagLlLSqrnKknb7W//X+bpHltJGivBkrqB/vXRV0AnbkT2DfZzKrfiRA//p/GUjx/enz8uszYeyAv97f5gc8PUBfbj2gqCHKF3kwJ2FU/AT+3Y0NdyPxScBfL6BVr3HDlwFWbX/tPBLOvh8Ba16TgxwFcgOfmI/f68TR2Hx+Q5a9Zs44CpYUsA3FNCq18QCVwHjAq+gs31QkdF2HIMx1VembeKBawEA/2V1rYzsUSS5NPU6ZavpeW0bKmgtb94AR+BT5y+ZgV0u4HmJgGt5L/CA5plzwrDv16lFH6m9aK6l/caLK1xeAVclBQFeH59qLKBVd76B85Yl66K89tprUlRUJLfffru0a9dO04llWx/w3JLlvjQuW4smX50di6XgtkzPnTsnR44ckW+++UYqKirMSha6uIEtWGrX1wMQvE579913y7Zt2wxwXl5fvHix+aVSinFHwTNzt2rfad+SANovbJpumu1t1edk5/GfE9F8A3r58uXy7bffmtedWd2C1555chjjdHMZn1rFsoG9bNmy616Wx79NmzbG2v0+NUn/+8+q426yBObHbF02g7tMGQM6Cov2OxidO3euERnYTzzxxHVr1mCgGCfMnC6jhVNTWALDbW0UFsKhKUmas1s8FSxXB+gvj9YmxqLt5aApb9q06XWwCUOT7rXSRUbgLITjXPVIMyZhMk2qAzytCU19NuDtoEkjiQ5DczNCldULekZaJKorFmpiuqW593psWcMkYWsHT9Ps5ein1aKTClpl79Wrl2c/rcuYuC1OlBE41u3VPDBAYLSeLw6I6W5HMhhLOmjVNStSXb161RW6rjLp1gJkBE4GNA+M/ACMowaxcuGaNWvkrrvuUhnyfvvL5St5VQZ0Dwc7F/b5eXXDvoAz2tuyZYsBDfjBgwfLDz/8IDNnzswrBTU0YbHyBx54wCz31aRJE3M1RRlh5WbdnPM98UJ/oOA///zzhqa7vC0Pk19YOj8/rwz7snC7NuKeXbPLUtjPXgNZA88+i0KMJGmgADxJNCKQpQA8AiUnKYsC8CTRiECWAvAIlJykLArAk0QjAlkKwCNQcpKyKABPEo0IZCkAj0DJScqiADxJNCKQpQA8AiX7yaJ182hQRJOLrcTmWbO+/t4Zs0Vr0LvAvqnI/7Pw9VGG77tl9cnEGZeH9Xj5nadLeKOksToFPaBj68hUEAtwSseTpY0VfBygtUbFBlwFaEzg4wSt+o4duApiB8/LBNk8ZappJHWbBNCqm8QAV4EAz2I/NPc8YpzuoUONk9Stgu5d1FLYD8J5PSXsd3HjrKXwSpjlm72EyaWggP/b8J6ycHQfs/BPLmnEFQe4rFI1qkc7YUAWFGzK4/ZhgmzKmbWF8xAj0N3gLl26NPAPpyp4fbY8yRYPWOQNGjJA0TdG5fWdGbj4cVkDJ1G+huuWMULhz/fLgvw6AnkqeF4kWFJ1IlHPj8cJGt1ggH6/bJTxZUKvWuP1KQZ7eAQJGrymnyt4Vonyemlv46GarN8KZcIkDotWPbBFx34/R50zcKzZ7dsndkF0H/BBfEZR07NvdUTv942RoIADml9Ja38rSdplTrefqel2xs0GNnFzBk7kbIVLAvj6Aqf5HnZjm9BAh/05z3oB19qmfbffD62EDT7ddG2uwPMdtLIKBLgmBni/X9MjDiNLmnoqQNCOpt4NfLbAwwTNJRaDXPSWyaEjBst++2qv9AIFrpnkAt7r80yaZq5bJ3g7cF6KtL9Sax+0AZrBWBh3sdAPl7DZgGYUHoRhhAJc4WQDHmsPCzoDOu7MMV37l0E3Suu6k+YNS16DBjhvx/K2pb4uHBZo9IJO/Ax21aKDAq1Msp5p04h+tggNRH6ZaifNm58a7ydfZxiu4bkUY9buP2tXmrcsAW1ZlnnTkvC8fdnpwk8ypk/7UKxaZco0zkFPQOZT0TTfmfSm6frdhmrhTiHSfT+Tgs2ZM8cZJdBjmnBaErfXaXmnmvNuC+EEKQTAGec4HeVHNi6zgoZszytS4JqxThGqRVPAIAYkmr7Xliac5UsA7uawcqw+bAdwu6Vj0fwAHrqzYnRnzpyxKisrI5Ng6tSp1rJlyzzzKy8vt7Zs2eJ5PsgTUZddZadGNxoHbKC6uUOHDlm9e/d2O9Wg/EIdtIXePGWZAaNx+mm3VQrpwznf0F1Od8vyWSkMylhBklE6l2IsX6mrVHn17flcXqfssQzanELEcYxF6yqTrCjptQhOHLKFmWejBR6mUpOcdqPqw5MMIirZAuvD6RftjrXcxo8f32Cayk2bNpmFhJkcmjx5spSWlpoZxLZt29qLnfz9oK45RMRcw3Idy49LoHbt2llr1qwJKovY0nnllVesgQMHWl999ZWRYcmSJdbDDz9slZaWxiZTrhkHdh0OcKebN2+eNX78eONdU1NjzZ492xo8eLC5FrZPgMyfP9/4cY3M5AhhcVQc/IgzYcIEa/fu3cafuPb49mPCU8mIgyMt0nSmTVqk6UzbRLL9HThwgKk3a+3atTbf33YXLVpk7d+/3xyQ/rp166ynn37aHH/22WcmHnHLysqsTZs2GX90wk+d/Zg0KPOkSZOskpKSa8KhI+YJCGOPr+n43V5PyW9MRzg34Cj01VdfNSERcsqUKWYfCIMGDTKFQ/HsK2TCAYzj4uLiayDrxIhdSSRoP0YO8tH0AIoSNZxWQNLSSsN5TdsEtP2tXr3a6t69u83HfZd8R4wYYS1fvtyqq6uzOnXqlMp3z549VocOHaza2tprZCUlu+zAfPzxx00GFRUVplXZu3evCTNt2jTjX1VVZY0bN85asWKFuyAZfAPrw+m87P34119/LaNGjUpNZnz00Udmn5X6ccydc1k0e/ZsMxnCHDd9/vz58815zg0aNMis64oHkyIsJMvESSZH2OLiYpM+8/V6yWVPmzSYu0Ye5tA1vIbVPKqqqqRv3756aLZc0qmjjBqHtWcfffRRk2+nTp1S/gMGDJDOnTtLZWWlRvPckh6urKxMhg8fbuKMGTPG7I8dO1buvPNO+fjjjz3jZzoR6CidiQt+eseJD+KgSBwVgOe1NAwLw6Iozn/44YfmAfsJEyYYCIQ9e/asq+yZgDuXBrU/4GBPUG+NqjxUNrewyLhnzx57VFORUbxzxq5bt26pcM47Xq1atUqdS7dz8803p05TaX788Ue54447ZPXq1bJz507p0qWLPPbYY3LgwIFUuGx2ArVwzRjFzZo1S5577jmzxDb+1FyA8nM6RvRqJVghFQUr5TMPTkc4p6KpIKSB063ua4vCsU6rEoa01eJNRI8/8hs2bJi8+eab8tRTT5lQKmu6xWyPHj2aSvH48eOmsqvH+fO/f0L64MGDYofMLWRNn33uiV+8eFH69+8vDz74oCxYsEDGjRsnGzdulGeffVaT9L0NBTi5o0zAY71ApummKaTmY70cs946+1QMIONoQrWZxAoXLlxoIDL9yYwYDmDEoQsBoh24CfD/P1oP4tAVUIFIgxaAfboL9Sc+rRJbN7do0SJjZSdOnJDbbrtNTp48KZ988ok0b95cunfvfl0UgGGJ77//vpSUlMj69etNXvhj6VSUd999V86cOXMNbBL69NNPzcrI1dXVsnLlSiFvugIqG5eE6JSvGL3++uvX5evH44b5fqq5n5REUjVTg1NAlEhfdOuttxoloCgFjj8F4BwVY8eOHXLffffJjBkzTBKPPPKIsWbSIMxLL71k/NnHER7FApB0+OGoENqVUNmoFIQlv+eff96EIY76E5YK17JlS3PO+dehQwd55plnTHgqKc3syJEjjdI7dvx9NQu7DA899JB88MEH8t5770ldXZ2sWLHCJNujRw/p2rWryY8lr4GOQ1eMY4C6fft2eeONN0x8xg89e/aUK1eumHXRN2zYIPfee69MmjTJKaav48LUqi81RROIFosbOsAPywU6aAtLyEK6wWmgYOHB6TIvUipYeF5gCk7I/wGyZPQ19GsiIwAAAABJRU5ErkJggg==;" parent="1" vertex="1">
          <mxGeometry x="-6245" y="-1942" width="50" height="40" as="geometry"/>
        </mxCell>
        <mxCell id="oC6a1WEsOzrQhsxOkKVa-103" value="ProdRG" style="rounded=1;whiteSpace=wrap;html=1;fillColor=#008a00;strokeColor=#005700;fontColor=#ffffff;gradientColor=none;" parent="1" vertex="1">
          <mxGeometry x="-5611" y="-1950" width="407" height="48" as="geometry"/>
        </mxCell>
        <mxCell id="oC6a1WEsOzrQhsxOkKVa-104" value="" style="shape=image;verticalLabelPosition=bottom;labelBackgroundColor=#ffffff;verticalAlign=top;aspect=fixed;imageAspect=0;image=data:image/png,iVBORw0KGgoAAAANSUhEUgAAAHwAAABlCAYAAACPx4ftAAAQS0lEQVR4Ae2deYwVRRrAPxDCsTAMxyC3YARciHIMiQxGGNFkRSGgROJKFBDjYtCACX+YsBswWYl/aBRc4mIkqCEuQQGVS0U5TBzYDQOOEQ2HHGFcLmFgRgXC0Ztfud+zabrf6/emrzfzKnmvu6vr+Or71VdVXd1d3cSyLEsKrtFooGmjKWmhoEYDBeCNrCI0i6u8l0+dlmYlHePKXg4fPizvvPOOyX/evHmxyRF1xpECB/KF7/fJL9sqzBbgfxhZJm1GjogMPqBfeOEF2bp1q5SXlxt99+nTR6ZOnSqNAXykwM+tWis/f7k9VampAOdWrTO/7gsXRAJ92rRpBvShQ4dSclAJ8L/pppsM+NSJBrgTWR8OXDtspy6pDGE7wPJzWnLv3r1lypQpqSY+bDniTD8y4DTl6Vy6ypAuXjbn6LO1GXfGo0nHUSEasousSb/43d6Megx7IEeT7QVUrZ8tFh+m++KLL2T37t1SU1Mj7du3lyFDhsg999wTZpaptCOz8BYD+qcyddupa9Y09D78TxP/LG+//bZb9mYQ16JjV88WwDVSDp6MHTZv3mxgEx3oHL/88stCRQjbRQKcQv370q8CVC9X2b51SgleYXL1P1Z3UZZWHpWJ/9olJWX3mwGaWjpbKgEj92blk02YXf+tzTWrjPEOHjzoGiYq8E3CnFqlELt27TI1mFJ2vXBJyk/VSdvLV1OFphIca9lcqvr1kjlz5qT8g9gB9IZ9J2VpZXUquYunj8nJig1SvW5pqukmXM9x001l0IBd27aQuaNukaHditQrkC0W/tZbb2VMi6Z+9OjRMnTo0IxhswkQCnAnaKdAbS9fkdIaLP4G2de2hTQr6STTp083/ZkzbC7HbqDd0qndt8t4F/XzVirg/zF2oLANymEEq1at8pVc0OADBa6gdUCSqURBD1j8gs4kl9v5IV2L5K/ltwQGXnVF/+3HoauJEycKk0T1cYEAV+HjBr1h3ykBepguDPBAx+r9uPqCrzdw+yVGJoHDsugoQDvLNr20h9zfr3OgFp8t+Fy6wZyBq1X7aZIUNAMQ9uvrsOLdx2rNyDtsi84kaxjg6d/tU7/pZKCZz2ZglzNwLDsT7KBBU3CsmUusuEE7IQB+emlPp3fOxxiUX/BPPvmk7749J+CZRplhgV6/96Sx7Jy1GEHEuMC/+OKLvkqXE3CuI92aHEAziuT6MYimmxJg0fkA2qntoMGjbywey3dzfpv2rIGTIdOATgfgICcKaLL/vvVA4i3aqQf7Mdfu9/crCbSp9zI2+nGgZ3Lec50eMc+ePet6pri4OKvBg2siIqZvnrl2j5niZGCWz45KyywfU7qMO4Jw9Nduzu9lXdZ3y7yalPo24Q3Bot1A4Kfg6Z6CtnivPL38s7Zwr4Tq4683NvLdojPpQMFj8WHeoEknRyKAx1X4dIoJ8xzguakTh8u6SQ9DyMXjBpo+Lo4ZszDKky7NsO7CpcvTfi4RwBGISQt+NO8NETygKR99eJwuMcBVCXbw9vvYej7ftkkBrXpLHHAVLN/Bh3ENrrqpzzaxwLVQ+QY+qaBVn5ED/+70r/L3HdXyx46tZMagLlLSqrnKknb7W//X+bpHltJGivBkrqB/vXRV0AnbkT2DfZzKrfiRA//p/GUjx/enz8uszYeyAv97f5gc8PUBfbj2gqCHKF3kwJ2FU/AT+3Y0NdyPxScBfL6BVr3HDlwFWbX/tPBLOvh8Ba16TgxwFcgOfmI/f68TR2Hx+Q5a9Zs44CpYUsA3FNCq18QCVwHjAq+gs31QkdF2HIMx1VembeKBawEA/2V1rYzsUSS5NPU6ZavpeW0bKmgtb94AR+BT5y+ZgV0u4HmJgGt5L/CA5plzwrDv16lFH6m9aK6l/caLK1xeAVclBQFeH59qLKBVd76B85Yl66K89tprUlRUJLfffru0a9dO04llWx/w3JLlvjQuW4smX50di6XgtkzPnTsnR44ckW+++UYqKirMSha6uIEtWGrX1wMQvE579913y7Zt2wxwXl5fvHix+aVSinFHwTNzt2rfad+SANovbJpumu1t1edk5/GfE9F8A3r58uXy7bffmtedWd2C1555chjjdHMZn1rFsoG9bNmy616Wx79NmzbG2v0+NUn/+8+q426yBObHbF02g7tMGQM6Cov2OxidO3euERnYTzzxxHVr1mCgGCfMnC6jhVNTWALDbW0UFsKhKUmas1s8FSxXB+gvj9YmxqLt5aApb9q06XWwCUOT7rXSRUbgLITjXPVIMyZhMk2qAzytCU19NuDtoEkjiQ5DczNCldULekZaJKorFmpiuqW593psWcMkYWsHT9Ps5ein1aKTClpl79Wrl2c/rcuYuC1OlBE41u3VPDBAYLSeLw6I6W5HMhhLOmjVNStSXb161RW6rjLp1gJkBE4GNA+M/ACMowaxcuGaNWvkrrvuUhnyfvvL5St5VQZ0Dwc7F/b5eXXDvoAz2tuyZYsBDfjBgwfLDz/8IDNnzswrBTU0YbHyBx54wCz31aRJE3M1RRlh5WbdnPM98UJ/oOA///zzhqa7vC0Pk19YOj8/rwz7snC7NuKeXbPLUtjPXgNZA88+i0KMJGmgADxJNCKQpQA8AiUnKYsC8CTRiECWAvAIlJykLArAk0QjAlkKwCNQcpKyKABPEo0IZCkAj0DJScqiADxJNCKQpQA8AiX7yaJ182hQRJOLrcTmWbO+/t4Zs0Vr0LvAvqnI/7Pw9VGG77tl9cnEGZeH9Xj5nadLeKOksToFPaBj68hUEAtwSseTpY0VfBygtUbFBlwFaEzg4wSt+o4duApiB8/LBNk8ZappJHWbBNCqm8QAV4EAz2I/NPc8YpzuoUONk9Stgu5d1FLYD8J5PSXsd3HjrKXwSpjlm72EyaWggP/b8J6ycHQfs/BPLmnEFQe4rFI1qkc7YUAWFGzK4/ZhgmzKmbWF8xAj0N3gLl26NPAPpyp4fbY8yRYPWOQNGjJA0TdG5fWdGbj4cVkDJ1G+huuWMULhz/fLgvw6AnkqeF4kWFJ1IlHPj8cJGt1ggH6/bJTxZUKvWuP1KQZ7eAQJGrymnyt4Vonyemlv46GarN8KZcIkDotWPbBFx34/R50zcKzZ7dsndkF0H/BBfEZR07NvdUTv942RoIADml9Ja38rSdplTrefqel2xs0GNnFzBk7kbIVLAvj6Aqf5HnZjm9BAh/05z3oB19qmfbffD62EDT7ddG2uwPMdtLIKBLgmBni/X9MjDiNLmnoqQNCOpt4NfLbAwwTNJRaDXPSWyaEjBst++2qv9AIFrpnkAt7r80yaZq5bJ3g7cF6KtL9Sax+0AZrBWBh3sdAPl7DZgGYUHoRhhAJc4WQDHmsPCzoDOu7MMV37l0E3Suu6k+YNS16DBjhvx/K2pb4uHBZo9IJO/Ax21aKDAq1Msp5p04h+tggNRH6ZaifNm58a7ydfZxiu4bkUY9buP2tXmrcsAW1ZlnnTkvC8fdnpwk8ypk/7UKxaZco0zkFPQOZT0TTfmfSm6frdhmrhTiHSfT+Tgs2ZM8cZJdBjmnBaErfXaXmnmvNuC+EEKQTAGec4HeVHNi6zgoZszytS4JqxThGqRVPAIAYkmr7Xliac5UsA7uawcqw+bAdwu6Vj0fwAHrqzYnRnzpyxKisrI5Ng6tSp1rJlyzzzKy8vt7Zs2eJ5PsgTUZddZadGNxoHbKC6uUOHDlm9e/d2O9Wg/EIdtIXePGWZAaNx+mm3VQrpwznf0F1Od8vyWSkMylhBklE6l2IsX6mrVHn17flcXqfssQzanELEcYxF6yqTrCjptQhOHLKFmWejBR6mUpOcdqPqw5MMIirZAuvD6RftjrXcxo8f32Cayk2bNpmFhJkcmjx5spSWlpoZxLZt29qLnfz9oK45RMRcw3Idy49LoHbt2llr1qwJKovY0nnllVesgQMHWl999ZWRYcmSJdbDDz9slZaWxiZTrhkHdh0OcKebN2+eNX78eONdU1NjzZ492xo8eLC5FrZPgMyfP9/4cY3M5AhhcVQc/IgzYcIEa/fu3cafuPb49mPCU8mIgyMt0nSmTVqk6UzbRLL9HThwgKk3a+3atTbf33YXLVpk7d+/3xyQ/rp166ynn37aHH/22WcmHnHLysqsTZs2GX90wk+d/Zg0KPOkSZOskpKSa8KhI+YJCGOPr+n43V5PyW9MRzg34Cj01VdfNSERcsqUKWYfCIMGDTKFQ/HsK2TCAYzj4uLiayDrxIhdSSRoP0YO8tH0AIoSNZxWQNLSSsN5TdsEtP2tXr3a6t69u83HfZd8R4wYYS1fvtyqq6uzOnXqlMp3z549VocOHaza2tprZCUlu+zAfPzxx00GFRUVplXZu3evCTNt2jTjX1VVZY0bN85asWKFuyAZfAPrw+m87P34119/LaNGjUpNZnz00Udmn5X6ccydc1k0e/ZsMxnCHDd9/vz58815zg0aNMis64oHkyIsJMvESSZH2OLiYpM+8/V6yWVPmzSYu0Ye5tA1vIbVPKqqqqRv3756aLZc0qmjjBqHtWcfffRRk2+nTp1S/gMGDJDOnTtLZWWlRvPckh6urKxMhg8fbuKMGTPG7I8dO1buvPNO+fjjjz3jZzoR6CidiQt+eseJD+KgSBwVgOe1NAwLw6Iozn/44YfmAfsJEyYYCIQ9e/asq+yZgDuXBrU/4GBPUG+NqjxUNrewyLhnzx57VFORUbxzxq5bt26pcM47Xq1atUqdS7dz8803p05TaX788Ue54447ZPXq1bJz507p0qWLPPbYY3LgwIFUuGx2ArVwzRjFzZo1S5577jmzxDb+1FyA8nM6RvRqJVghFQUr5TMPTkc4p6KpIKSB063ua4vCsU6rEoa01eJNRI8/8hs2bJi8+eab8tRTT5lQKmu6xWyPHj2aSvH48eOmsqvH+fO/f0L64MGDYofMLWRNn33uiV+8eFH69+8vDz74oCxYsEDGjRsnGzdulGeffVaT9L0NBTi5o0zAY71ApummKaTmY70cs946+1QMIONoQrWZxAoXLlxoIDL9yYwYDmDEoQsBoh24CfD/P1oP4tAVUIFIgxaAfboL9Sc+rRJbN7do0SJjZSdOnJDbbrtNTp48KZ988ok0b95cunfvfl0UgGGJ77//vpSUlMj69etNXvhj6VSUd999V86cOXMNbBL69NNPzcrI1dXVsnLlSiFvugIqG5eE6JSvGL3++uvX5evH44b5fqq5n5REUjVTg1NAlEhfdOuttxoloCgFjj8F4BwVY8eOHXLffffJjBkzTBKPPPKIsWbSIMxLL71k/NnHER7FApB0+OGoENqVUNmoFIQlv+eff96EIY76E5YK17JlS3PO+dehQwd55plnTHgqKc3syJEjjdI7dvx9NQu7DA899JB88MEH8t5770ldXZ2sWLHCJNujRw/p2rWryY8lr4GOQ1eMY4C6fft2eeONN0x8xg89e/aUK1eumHXRN2zYIPfee69MmjTJKaav48LUqi81RROIFosbOsAPywU6aAtLyEK6wWmgYOHB6TIvUipYeF5gCk7I/wGyZPQ19GsiIwAAAABJRU5ErkJggg==;" parent="1" vertex="1">
          <mxGeometry x="-5611" y="-1946" width="50" height="40" as="geometry"/>
        </mxCell>
      </root>
    </mxGraphModel>
  </diagram>
</mxfile>
